<?xml version="1.0" encoding="UTF-8" standalone="no"?>
<!-- Created with Inkscape (http://www.inkscape.org/) -->

<svg
   width="176.74167mm"
   height="259.82083mm"
   viewBox="0 0 176.74167 259.82083"
   version="1.1"
   id="svg1"
   xml:space="preserve"
   inkscape:version="1.3 (0e150ed6c4, 2023-07-21)"
   sodipodi:docname="ferret1clip.svg"
   xmlns:inkscape="http://www.inkscape.org/namespaces/inkscape"
   xmlns:sodipodi="http://sodipodi.sourceforge.net/DTD/sodipodi-0.dtd"
   xmlns="http://www.w3.org/2000/svg"
   xmlns:svg="http://www.w3.org/2000/svg"><sodipodi:namedview
     id="namedview1"
     pagecolor="#ffffff"
     bordercolor="#000000"
     borderopacity="0.25"
     inkscape:showpageshadow="2"
     inkscape:pageopacity="0.0"
     inkscape:pagecheckerboard="0"
     inkscape:deskcolor="#d1d1d1"
     inkscape:document-units="mm"
     inkscape:zoom="0.73890575"
     inkscape:cx="387.05883"
     inkscape:cy="240.22008"
     inkscape:window-width="1350"
     inkscape:window-height="1237"
     inkscape:window-x="307"
     inkscape:window-y="54"
     inkscape:window-maximized="0"
     inkscape:current-layer="layer1" /><defs
     id="defs1" /><g
     inkscape:label="Layer 1"
     inkscape:groupmode="layer"
     id="layer1"
     transform="translate(-16.629166,-18.589584)"><path
       style="fill:#000000"
       d="M 67.826041,278.0315 C 65.673914,277.41665 64.624618,276.89208 63.141877,275.68975 62.371188,275.06481 61.358212,274.39671 60.890819,274.20508 59.721208,273.72554 57.744054,271.54332 56.966997,269.87428 56.151663,268.12303 56.105969,265.87649 56.842161,263.73671 58.61998,258.56939 61.513425,254.94403 64.575507,254.04717 66.059738,253.61245 68.074047,254.02567 69.751892,255.10904 71.918232,256.50784 73.696334,256.81613 78.604781,256.64399 82.923772,256.49253 85.557759,255.97342 88.241379,254.74482 89.238149,254.28848 89.665856,253.93789 89.693856,253.55422 89.715656,253.25513 89.745456,252.87295 89.759956,252.70493 89.774456,252.53692 89.159009,252.18619 88.392189,251.92554 87.625369,251.66489 86.312789,251.10345 85.475339,250.67789 L 83.952722,249.90415 83.087822,250.6262 C 80.898242,252.45414 77.27395,253.61463 73.646829,253.64919 71.585476,253.66879 71.0612,253.57609 69.744224,252.95891 68.261277,252.26394 67.93526,251.81636 68.50037,251.25125 68.69398,251.05764 68.06742,250.92772 66.427752,250.82149 62.810374,250.58713 60.151587,249.285 55.825503,245.62909 53.745153,243.87101 51.039465,239.89414 48.953703,235.52879 46.521778,230.43895 44.002132,226.698 41.206263,224.02608 39.329929,222.23292 38.673914,221.7841 37.049023,221.18181 35.716151,220.68776 34.613122,220.46724 33.481171,220.46852 31.725136,220.47052 28.400869,221.17613 26.190127,222.01614 24.563583,222.63418 24.465492,222.39112 25.676756,220.74406 26.696358,219.35761 26.436928,219.41598 24.351081,221.04233 22.871848,222.1957 20.14986,225.50378 19.491959,226.94772 18.92116,228.20049 18.584526,227.89057 17.671135,225.27142 16.83083,222.86185 16.774047,222.47342 16.678648,218.48229 16.566701,213.79888 16.765138,212.45012 17.989434,209.57307 19.676024,205.60964 22.063691,202.1717 24.330078,200.44333 25.498139,199.55256 25.579229,199.42706 25.101029,199.25016 24.368828,198.9793 24.43073,198.2948 25.313163,196.9044 26.844622,194.49138 30.339431,191.84464 33.70957,190.5455 37.369075,189.13482 39.950152,188.63242 43.484328,188.64288 50.153726,188.66258 56.261107,191.29017 61.269873,196.29469 L 63.445,198.46797 63.289212,197.33137 C 63.188145,196.59401 63.242212,196.12754 63.443127,196.00336 63.918545,195.70954 66.447551,197.06592 67.960432,198.42613 70.172117,200.41463 73.267991,205.4261 74.416377,208.87674 74.925163,210.40553 75.734243,215.7747 75.596319,216.70701 75.581039,216.81029 75.585579,217.4901 75.606399,218.21771 L 75.644259,219.54062 77.313417,216.10104 C 78.231453,214.20927 79.687032,211.57142 80.548032,210.23914 88.109409,198.53904 93.090036,189.15708 95.203383,182.63294 96.031263,180.0772 96.458713,177.97271 95.996413,178.72865 95.435183,179.64632 91.741556,178.97646 90.745566,177.77637 90.579816,177.57664 89.793956,177.34613 88.999209,177.2641 86.777969,177.03485 84.607569,175.73262 81.848912,172.97396 80.539222,171.66427 78.931882,169.72421 78.277034,168.6627 77.62219,167.6012 76.306345,165.51761 75.352933,164.03249 73.184117,160.65417 69.484097,153.82741 68.870423,152.07187 L 68.407978,150.74896 66.13261,150.72176 C 62.331584,150.67626 58.61652,148.86483 56.724189,146.1342 55.506023,144.37638 54.295112,143.77428 51.085897,143.33069 49.524407,143.11485 47.613671,142.74206 46.839816,142.50227 45.279742,142.01885 43.078375,140.23203 42.370346,138.87446 40.873088,136.00361 41.88335,132.44946 44.557316,131.18058 L 45.516368,130.72548 44.993226,130.15389 C 44.112128,129.1912 43.31398,127.33561 43.168009,125.91052 42.920587,123.49496 43.904688,121.22255 45.73958,119.97244 46.560978,119.41282 46.885658,119.35725 48.775992,119.45277 50.320104,119.53077 51.294677,119.74396 52.378872,120.24081 L 53.865084,120.92189 53.503351,119.71994 C 52.467388,116.2777 53.511751,112.63654 55.927566,111.26829 59.18004,109.42615 63.775132,111.8912 68.009546,117.7497 69.542814,119.87105 71.397867,123.61098 71.397867,124.58083 71.397867,124.84217 71.71798,124.41361 72.10923,123.62847 74.41611,118.99917 78.558693,117.86073 81.384752,121.07943 82.503952,122.35413 82.864942,123.62971 82.711892,125.76888 82.598622,127.35198 82.427752,127.81822 81.295372,129.63405 80.161232,131.45271 79.996112,131.90407 79.910822,133.41876 79.852722,134.45137 79.982622,135.78813 80.236132,136.76424 80.760382,138.7831 80.768732,139.91837 80.269732,141.3327 79.894102,142.39734 79.900712,142.44162 80.468172,142.66259 80.791022,142.78831 81.977902,143.55647 83.105692,144.3696 L 85.156209,145.84802 V 144.56284 C 85.156209,142.49068 85.907369,138.77267 86.752329,136.66246 87.385949,135.08006 87.479859,134.59927 87.242089,134.15499 86.770689,133.27417 87.407499,131.66412 88.751219,130.33942 89.395029,129.70472 90.023966,129.18543 90.148866,129.18543 90.273756,129.18543 90.362366,128.74858 90.345766,128.21467 90.298966,126.7102 91.408136,126.1793 94.865363,126.05133 L 97.566983,125.95132 97.645483,124.45952 C 97.734183,122.77353 97.795413,122.74795 100.28037,123.35886 101.18829,123.58206 101.79935,123.58523 102.59547,123.37086 103.19035,123.21067 103.67707,123.01786 103.67707,122.94239 103.67707,122.86689 103.54353,122.27483 103.38032,121.62664 103.1646,120.76997 102.92976,120.41521 102.52042,120.32766 102.21069,120.26136 99.040253,119.89935 95.474993,119.52308 83.243402,118.2322 82.019682,118.08547 79.992722,117.6668 74.164963,116.46304 71.5689,115.35073 67.41551,112.27796 64.874161,110.39782 62.651111,108.08099 61.067566,105.66224 60.668652,105.05293 60.639072,105.04869 59.803125,105.48098 58.653436,106.0755 57.735838,105.63624 56.877662,104.08054 56.051908,102.58361 55.801661,98.769554 56.402604,96.840115 56.78962,95.597531 56.787327,95.583344 56.199481,95.583344 55.097638,95.583344 54.637714,94.72297 54.797512,92.960697 54.987201,90.868775 56.002029,89.059172 58.070745,87.123989 59.614422,85.679955 61.907198,84.470844 63.101768,84.470844 63.366056,84.470844 63.460471,84.323465 63.361465,84.065461 62.518041,81.867533 62.286636,80.131055 62.278444,75.938399 62.269844,71.535422 62.266004,71.506994 61.680513,71.506628 60.435367,71.505851 55.820359,69.510458 53.903811,68.144212 53.231588,67.665005 52.572268,67.272927 52.438656,67.272927 51.944061,67.272927 49.701498,64.697893 48.521481,62.775011 47.851717,61.683604 46.985179,59.838136 46.595841,58.673969 45.979416,56.830784 45.887809,56.129987 45.886831,53.250011 45.885831,50.232103 45.956791,49.741657 46.698104,47.644834 47.716627,44.763912 49.911628,40.773999 51.437805,39.029349 L 52.60349,37.696797 51.685165,37.524518 C 50.702442,37.340158 50.231243,36.748861 50.231243,35.700022 50.231243,34.943009 51.622765,33.605797 53.016527,33.023447 53.663068,32.753304 53.883814,32.521333 53.771892,32.22967 53.413074,31.294604 53.906002,30.524169 55.06255,30.212402 56.617802,29.793157 58.594955,30.078935 61.87291,31.196775 65.691817,32.499088 67.182675,33.301194 70.594146,35.888943 73.436033,38.044636 74.478506,39.138091 76.00062,41.559814 L 76.718455,42.701908 77.571774,42.198437 C 78.0411,41.921528 78.719212,41.620995 79.078692,41.530586 79.715682,41.370383 79.732282,41.303091 79.732282,38.882141 79.732282,36.449688 79.758482,36.345392 80.991332,33.862448 82.487652,30.848973 84.296079,28.833431 85.389759,28.960301 85.990129,29.029941 86.081939,29.163865 86.079669,29.966678 L 86.076669,30.892719 87.413849,29.568415 C 88.149299,28.840048 89.222039,28.047861 89.797716,27.807998 90.373386,27.568136 92.146166,26.85465 93.737226,26.222473 95.580833,25.489947 97.403913,24.520985 98.763703,23.550916 99.937203,22.713737 101.01668,22.070264 101.16253,22.120976 101.87613,22.369084 100.86626,26.773675 99.551623,29.147017 99.196783,29.78761 98.937973,30.335591 98.976473,30.364753 99.014973,30.393913 99.612813,30.556315 100.30498,30.72564 102.26953,31.20622 104.28766,32.270731 105.40656,33.416585 106.42819,34.462833 106.43343,34.464594 108.52119,34.464594 110.40521,34.464594 110.59459,34.418704 110.43208,34.001573 110.01683,32.935711 109.24092,28.676936 109.23708,27.442579 109.23208,25.899681 109.84363,23.346751 110.47307,22.281193 110.71222,21.876343 111.18587,21.418447 111.52562,21.263646 111.86537,21.108845 112.14335,20.813634 112.14335,20.607623 112.14335,20.401611 112.48878,19.863278 112.91096,19.411325 113.5158,18.76384 113.89731,18.589594 114.71013,18.589594 115.27748,18.589594 115.87178,18.719687 116.03078,18.878689 116.23985,19.087759 116.4694,19.087759 116.86005,18.878689 117.82972,18.35974 122.26116,18.521842 123.90356,19.13634 127.26687,20.394717 130.93157,23.538032 133.30265,27.19821 136.39732,31.975379 137.33399,34.840565 137.38178,39.67593 137.40728,42.259786 137.47018,42.653859 137.87408,42.760014 138.22923,42.853364 138.3371,43.161699 138.3371,44.083457 138.3371,45.438077 137.24515,49.165531 136.40537,50.677546 135.87348,51.635208 135.86922,51.708996 136.3034,52.444001 136.5526,52.865876 137.35626,54.797391 138.08931,56.736257 140.10382,62.064514 141.68961,65.00437 143.02003,65.877172 143.52291,66.207082 144.52724,66.398922 146.39437,66.521717 149.52972,66.727919 150.42794,66.970504 152.34196,68.127998 154.85454,69.647474 156.07108,71.853954 154.87747,72.726744 154.44461,73.043262 154.44855,73.104945 154.94647,73.805712 155.93574,75.198125 156.38129,76.658383 156.52399,78.975889 156.67507,81.429447 156.45959,82.089594 155.50771,82.089594 155.18162,82.089594 154.9688,82.33469 154.87592,82.817198 154.57426,84.384271 153.8799,86.267783 152.92464,88.20098 151.40561,91.479158 149.06687,94.240655 146.97627,97.151784 145.90001,98.663822 142.83178,102.14464 141.18491,104.20321 139.94061,105.75859 138.05939,107.99428 135.85932,110.5323 135.2286,111.25991 134.55731,112.33147 134.36757,112.91355 133.90469,114.33354 133.08049,115.59886 131.7596,116.91732 130.71402,117.96098 130.66423,118.08423 130.66423,119.6293 130.66423,121.24918 130.86151,121.56976 131.43392,120.88005 132.04987,120.13788 134.46063,119.33948 136.50978,119.19903 138.45411,119.06576 138.5874,119.09287 139.25109,119.75657 139.7877,120.29317 140.21026,120.45418 141.08203,120.45418 141.72651,120.45418 143.46171,120.89761 145.1049,121.48223 147.66591,122.3934 148.00368,122.586 148.07567,123.17617 148.13197,123.63744 148.41649,123.94911 149.00171,124.19045 150.62085,124.85816 153.82066,128.39462 153.62322,129.29819 153.58332,129.48073 154.08778,130.15512 154.74422,130.79682 157.09593,133.09573 159.48593,136.64955 161.9346,141.48855 163.26007,144.10793 164.61128,146.60824 164.93729,147.0448 165.26331,147.48136 165.82803,148.43404 166.19223,149.16186 166.56963,149.91603 167.43633,150.97584 168.20742,151.62603 169.11376,152.39027 170.05734,153.61124 171.06568,155.32455 174.36936,160.93797 174.97917,163.85056 173.67236,167.77455 173.10625,169.47442 172.84662,169.93126 172.44667,169.93126 172.16758,169.93126 171.93375,169.78243 171.92704,169.60053 171.92004,169.41863 171.51086,170.10324 171.01711,171.12188 169.90874,173.40854 167.93406,175.47708 167.33452,174.9795 167.11648,174.79855 166.85813,174.1173 166.76041,173.46563 166.62079,172.5346 166.49356,172.31499 166.16649,172.4405 165.93756,172.5283 164.87174,172.73681 163.79799,172.90374 161.91434,173.19658 160.81867,173.09747 158.51859,172.42615 157.93307,172.25526 157.93407,172.2657 158.72759,174.59858 160.34859,179.3642 160.96803,182.42446 161.8769,190.15741 162.42827,194.84866 162.71625,195.8493 163.84386,196.99192 165.36887,198.53725 171.27116,213.47347 172.99795,220.15709 173.52185,222.18486 174.0454,226.87454 174.05157,229.5948 174.05957,232.91003 173.22176,236.19744 172.42303,235.98857 172.06363,235.89457 171.89677,236.04467 171.78248,236.5646 171.31104,238.7095 170.44107,240.74156 169.29643,242.37148 168.05373,244.14101 167.38761,244.70532 166.89842,244.40298 166.77161,244.32458 166.42749,244.73165 166.13371,245.30751 165.37141,246.80172 162.98308,249.28206 161.26422,250.36459 160.4555,250.87392 159.78811,251.3707 159.78111,251.46855 159.74341,251.99606 161.8805,252.28044 164.62819,252.11356 169.21515,251.83496 171.43366,251.27057 180.27361,248.13332 183.60344,246.95158 184.98223,246.91418 187.16415,247.94642 189.137,248.87974 189.95231,249.82393 191.44264,252.90125 192.94183,255.99684 193.62619,259.45588 193.16988,261.63136 192.82008,263.29904 191.54935,265.22003 190.27499,266.00763 189.7947,266.30447 189.40173,266.70236 189.40173,266.89184 189.40173,267.3808 187.39702,269.13024 186.32198,269.57941 184.89339,270.17632 181.17278,270.99278 179.45427,271.08648 178.36,271.14618 177.36544,271.42548 176.16886,272.00924 173.76934,273.17986 171.20344,273.64793 167.18573,273.64793 163.76257,273.64793 159.22884,273.04411 156.10619,272.17233 146.0835,269.37418 138.71271,265.51228 135.43707,261.34279 135.18378,261.02038 135.04697,260.20626 135.0402,258.98112 135.0312,257.29013 135.14985,256.85726 136.28552,254.45125 138.0167,250.78362 138.4106,249.32687 138.39215,246.66043 138.38065,244.99987 138.19535,243.84037 137.6839,242.22866 L 136.99121,240.04584 135.87824,240.05084 C 135.26611,240.05384 133.93184,240.17695 132.91319,240.32467 131.89455,240.47239 129.57283,240.76562 127.75382,240.97629 124.83469,241.31437 124.19071,241.4854 122.26692,242.43348 119.51706,243.78867 116.61032,246.08783 114.88392,248.27325 113.73402,249.72889 113.46131,250.31197 112.94745,252.41366 112.42069,254.56811 112.37181,255.23343 112.53758,257.99234 112.71822,260.99884 112.69918,261.17714 112.06437,262.42532 111.31775,263.89335 107.8382,267.91299 106.52573,268.82366 105.12065,269.7986 100.99326,272.43626 99.707993,273.18063 98.268103,274.01454 91.097946,276.58293 88.184379,277.30845 84.053772,278.33703 79.571402,278.60973 74.307989,278.15268 74.089708,278.13368 72.839551,278.18368 71.529864,278.26372 69.868373,278.36524 68.748748,278.29502 67.825697,278.03127 Z"
       id="path1"
       sodipodi:nodetypes="csssssssssssscssssssssssssssssssssscscsssssscscssssssssccssssscssscscscssssssccssscssssssscssssscscsssssssssssssssscsscsssssssscssscsccssssssssssscssssssssscssssssssscsssssssssssssssssssssssssscssscsssssscsssssssssssssssssssscsssccsssssssssssscc" /></g></svg>
