<?xml version="1.0" encoding="UTF-8" standalone="no"?>
<!-- Created with Inkscape (http://www.inkscape.org/) -->

<svg
   width="154.896mm"
   height="271.58481mm"
   viewBox="0 0 154.896 271.58481"
   version="1.1"
   id="svg1"
   xml:space="preserve"
   inkscape:version="1.3 (0e150ed6c4, 2023-07-21)"
   sodipodi:docname="ferret2clip.svg"
   xmlns:inkscape="http://www.inkscape.org/namespaces/inkscape"
   xmlns:sodipodi="http://sodipodi.sourceforge.net/DTD/sodipodi-0.dtd"
   xmlns="http://www.w3.org/2000/svg"
   xmlns:svg="http://www.w3.org/2000/svg"><sodipodi:namedview
     id="namedview1"
     pagecolor="#ffffff"
     bordercolor="#000000"
     borderopacity="0.25"
     inkscape:showpageshadow="2"
     inkscape:pageopacity="0.0"
     inkscape:pagecheckerboard="0"
     inkscape:deskcolor="#d1d1d1"
     inkscape:document-units="mm"
     inkscape:zoom="0.26124263"
     inkscape:cx="145.45865"
     inkscape:cy="334.93767"
     inkscape:window-width="1350"
     inkscape:window-height="1237"
     inkscape:window-x="307"
     inkscape:window-y="54"
     inkscape:window-maximized="0"
     inkscape:current-layer="layer1" /><defs
     id="defs1" /><g
     inkscape:label="Layer 1"
     inkscape:groupmode="layer"
     id="layer1"
     transform="translate(-227.44411,-12.676157)"><path
       style="fill:#000000"
       d="M 325.27004,284.10646 C 321.94296,283.50282 318.75563,282.09634 315.94384,279.99105 313.47628,278.14351 311.48145,276.03715 307.68139,271.26667 305.94262,269.08385 303.51413,266.28588 302.28475,265.04896 299.30726,262.05319 298.93667,261.07249 299.43526,257.50841 299.96134,253.74788 298.90104,249.10663 296.59831,245.09013 295.24112,242.72286 294.93476,242.48045 292.02151,241.46868 290.02466,240.77518 289.41667,240.83865 287.87307,241.90177 286.28642,242.99454 285.20274,244.27591 284.17653,246.27268 283.19135,248.1896 283.23192,249.43897 284.42798,254.01681 285.45981,257.9661 285.66116,260.74919 285.06016,262.75513 284.36048,265.09047 280.01902,268.42445 276.02681,269.69221 273.02194,270.64644 266.25779,272.0537 256.27803,273.8009 251.83908,274.57804 251.51667,274.59952 248.47282,274.32084 242.94681,273.81492 240.35114,272.90701 237.7572,270.57276 237.10235,269.98347 235.9472,269.09999 235.1902,268.60947 233.46042,267.4886 232.9934,266.60553 232.99929,264.46678 233.01098,260.22573 234.8011,255.87556 237.7759,252.85916 239.88392,250.72166 241.33381,249.91388 243.03867,249.92708 244.43889,249.93793 245.19033,250.18299 249.22524,251.9447 252.64901,253.43957 253.95735,253.61159 258.47335,253.16068 262.80143,252.72853 262.65959,252.78513 262.58495,251.52008 262.52778,250.55127 262.38614,250.37091 260.78952,249.23387 258.66498,247.72088 254.71959,243.95633 253.45974,242.24007 252.94772,241.54256 252.44964,240.9726 252.35289,240.97349 252.25614,240.97438 252.16193,241.5153 252.14352,242.17554 252.12511,242.83577 252.02459,243.46012 251.92013,243.56298 251.81568,243.66584 251.0865,243.05974 250.29974,242.21608 248.56396,240.35477 246.71795,236.70174 245.99416,233.69583 245.71384,232.53167 245.47043,231.81729 245.45325,232.10833 245.39873,233.03185 245.0024,233.44795 244.54156,233.06548 243.93945,232.56578 243.08129,230.78726 242.76608,229.38583 242.29407,227.28724 242.43421,222.29218 243.04986,219.27113 243.77574,215.70921 245.67068,209.99234 247.12026,206.99112 247.75767,205.67142 248.60427,203.81873 249.0016,202.87404 249.39893,201.92935 250.53838,199.53078 251.53372,197.54389 255.69836,189.23047 257.59622,183.26539 258.50911,175.61979 258.74368,173.65526 258.97499,171.7852 259.02313,171.46411 259.09924,170.95649 259.04229,170.91689 258.58674,171.1607 257.941,171.50628 257.6109,171.09054 257.605,169.92426 257.60108,169.14972 257.5662,169.12683 256.5391,169.22478 255.41011,169.33245 254.16136,168.74912 254.16136,168.11407 254.16136,167.9217 254.40338,167.54528 254.69918,167.27759 255.23255,166.79489 255.22579,166.78555 253.88112,166.14645 250.26003,164.42542 245.46342,157.903 243.70813,152.31324 L 243.24388,150.83482 242.198,151.19516 C 238.84661,152.3498 235.99488,151.68873 233.52471,149.18458 232.72267,148.3715 231.73693,147.09004 231.33417,146.3369 230.29971,144.40251 229.55511,141.25454 229.55511,138.81551 229.55511,137.22785 229.43326,136.54977 229.02301,135.85445 228.27443,134.58569 227.45096,130.61444 227.44417,128.24036 227.43757,125.92961 227.97093,124.09914 228.90712,123.21964 229.39193,122.76419 229.55511,122.3356 229.55511,121.51775 229.55511,118.9451 231.53419,115.07877 233.31793,114.16669 235.28128,113.16278 238.04191,113.83215 239.67249,115.70747 240.32253,116.45509 240.66761,116.32458 240.66761,115.33113 240.66761,114.14706 241.93723,111.95217 243.36433,110.66908 245.81673,108.46416 248.98074,108.19735 251.45144,109.98712 253.73227,111.63934 253.94721,114.34889 252.13487,118.60208 251.197,120.80305 251.12012,121.17363 251.11942,123.49688 251.11873,125.77972 251.19592,126.17089 251.96052,127.7589 253.16721,130.26509 253.63897,132.22801 253.81683,135.48278 L 253.973,138.34056 255.10483,139.11928 256.23665,139.898 256.38314,139.17191 C 256.4637,138.77257 256.66178,137.6124 256.82331,136.59375 257.26767,133.79151 258.62483,128.8586 259.45751,127.01915 260.87164,123.89524 263.43239,120.78478 265.88666,119.20988 L 267.23066,118.34744 266.13228,118.15993 C 264.87568,117.94541 263.95095,117.51103 263.95095,117.13528 263.95095,116.54265 265.51478,115.17015 266.99366,114.46483 268.79104,113.60761 269.6584,113.53788 271.51567,114.1013 272.23002,114.31801 272.84425,114.4966 272.88063,114.49818 272.91701,114.49975 272.94678,113.97229 272.94678,113.32603 272.94678,111.94663 273.14404,111.76897 274.41162,112.00676 275.0562,112.12769 275.92397,112.70494 277.14329,113.82391 278.97118,115.50136 281.18658,117.14688 281.61709,117.14688 281.74941,117.14688 281.98148,116.87514 282.13281,116.54303 282.38615,115.98701 282.28673,115.87203 280.87768,115.09147 278.4461,113.74447 276.53859,111.81905 275.19648,109.35692 274.5434,108.15882 273.93702,106.8184 273.84898,106.37821 273.70706,105.6686 273.53436,105.54241 272.32566,105.26515 268.71997,104.43804 264.30804,99.323196 262.81306,94.236975 262.59541,93.496477 262.09367,92.543977 261.69808,92.120308 258.48144,88.67534 255.35373,81.577894 255.03322,76.996355 L 254.88052,74.813542 H 254.12407 C 252.53003,74.813542 251.85712,73.225105 252.12046,70.083966 252.30399,67.894796 253.09745,65.735354 254.21709,64.377897 254.74245,63.740938 255.04711,63.104525 254.99973,62.742982 254.8313,61.457692 256.66736,59.31452 258.97809,58.099182 259.89571,57.616555 260.55129,57.499739 262.38334,57.49241 L 264.65219,57.483334 264.53387,56.240911 C 264.34368,54.243835 264.59648,53.646876 265.63242,53.646876 266.28865,53.646876 266.92321,53.978456 268.14777,54.961223 269.0485,55.684114 270.27306,56.421656 270.86901,56.600205 271.82368,56.886233 271.99241,56.870327 272.28772,56.466461 272.89898,55.630524 273.51509,52.500046 273.72789,49.148959 273.86256,47.0282 274.10598,45.429952 274.40637,44.694069 274.85493,43.595203 274.85481,43.505318 274.40351,42.577402 273.75757,41.249281 273.60012,38.28443 274.06916,36.281426 274.36954,34.99868 274.38287,34.527479 274.13275,34.032467 273.80845,33.390647 273.37725,31.285958 273.075,28.869681 272.98133,28.120817 273.04262,26.33488 273.21121,24.900931 273.85211,19.449659 276.28586,14.488543 278.31917,14.488543 278.80351,14.488543 279.43402,14.190557 279.99866,13.694793 281.01155,12.805468 282.47178,12.58785 282.47178,13.326225 282.47178,13.62287 282.61176,13.697367 282.9348,13.572651 284.53898,12.953334 287.05216,12.595835 289.12883,12.691551 291.13806,12.784159 291.67571,12.92302 293.49446,13.81908 296.39429,15.247767 298.69309,17.581892 300.15628,20.583257 300.76179,21.825298 301.2572,22.976654 301.2572,23.141827 301.2572,23.312625 301.91331,23.114618 302.77855,22.6827 305.84587,21.151534 309.80182,20.672835 312.8512,21.463835 313.80888,21.712255 314.20239,21.732847 314.11527,21.529981 313.44646,19.972533 313.11457,18.185764 313.23907,16.812782 313.42494,14.762955 314.11693,13.870421 314.64437,15.000197 314.98333,15.726234 318.51368,18.613419 322.68845,21.578786 324.65298,22.974205 327.07908,24.896551 328.07979,25.850665 329.3408,27.052968 329.84289,27.402698 329.7156,26.990105 329.3572,25.828292 330.58503,26.296697 332.18552,27.932347 334.37147,30.166328 336.34722,34.19719 336.84995,37.448539 L 337.02496,38.58041 337.99264,38.37612 C 340.32203,37.884358 345.44869,38.676816 347.84425,39.898942 348.85725,40.415734 348.99205,40.42442 350.15783,40.048012 352.12951,39.411399 355.77001,38.565626 356.53855,38.565626 357.34017,38.565626 357.87803,38.996431 357.87803,39.638501 357.87803,39.990308 358.24967,40.107534 359.76873,40.234886 361.02055,40.339834 362.14443,40.630684 363.09473,41.095624 364.72863,41.895014 365.26819,42.709167 364.81836,43.696436 364.57192,44.237307 364.62726,44.420042 365.19895,44.953207 368.95783,48.458763 368.12492,57.852113 363.44399,64.745082 361.3573,67.81787 359.09439,69.947107 356.60373,71.181276 354.379,72.283673 354.30522,72.300001 351.54798,72.300001 348.98401,72.300001 348.61709,72.234653 347.16241,71.518937 346.28928,71.089353 345.51538,70.7024 345.44262,70.659042 345.36986,70.615684 345.30595,70.8481 345.3006,71.175521 345.29525,71.502943 345.21676,72.128021 345.12617,72.564584 344.96567,73.338136 345.01534,73.384036 347.07822,74.368411 349.64638,75.593899 352.0572,77.770374 352.0572,78.863413 352.0572,79.255359 351.93814,79.590925 351.79262,79.609115 351.6471,79.627305 351.40897,79.671954 351.26345,79.708334 351.11793,79.744714 350.87272,79.789362 350.71853,79.807553 350.56435,79.825743 350.91601,80.40728 351.5,81.099858 352.08399,81.792435 352.94745,83.19142 353.41881,84.208712 354.18942,85.871881 354.27734,86.311948 354.29098,88.574202 354.30507,90.909662 354.24241,91.219783 353.41723,92.898975 352.63198,94.496897 352.45407,94.693692 351.8919,94.586225 351.37239,94.486915 351.23157,94.591615 351.12525,95.156243 350.29644,99.557743 349.02306,102.43896 347.1391,104.17553 345.9023,105.31557 344.97218,105.52614 344.27089,104.82485 344.04221,104.59618 343.85512,104.10976 343.85512,103.74393 343.85512,103.12926 343.73965,103.19198 342.33376,104.57027 340.32914,106.53552 338.43734,107.77091 335.81611,108.82642 332.73538,110.06696 323.96246,112.15983 314.22178,113.97797 308.22709,115.0969 308.83018,114.75359 309.0137,116.94271 309.18727,119.01299 309.58374,119.65609 310.91275,120.02305 311.56901,120.20425 312.19538,120.10515 313.71736,119.57931 317.1024,118.4098 322.13958,118.73508 323.79128,120.22985 324.13361,120.53966 324.19173,120.77861 324.00818,121.12158 323.80872,121.49428 323.8781,121.6206 324.34742,121.73924 325.4108,122.00804 327.33825,123.40257 328.34569,124.63202 329.17479,125.64383 330.36137,128.1274 330.36137,128.85095 330.36137,129.13868 329.19913,129.10112 328.37206,128.78667 327.75301,128.5513 327.81457,128.68253 328.89962,129.91114 329.70054,130.81803 330.95894,132.95944 332.51569,136.06458 335.58216,142.18103 337.78927,145.47054 340.87855,148.52866 342.22462,149.86115 343.32595,151.12014 343.32595,151.32642 343.32595,151.84868 342.78391,152.33646 342.20355,152.33646 341.75486,152.33646 341.76742,152.42579 342.36164,153.46094 343.82938,156.01778 344.46693,160.93578 343.5707,162.7875 343.0671,163.828 341.7884,163.91545 341.30337,162.94257 340.99229,162.3186 340.98105,162.32775 340.81591,163.33944 340.08498,167.81728 336.3139,174.39726 331.21397,180.09346 329.48102,182.02902 329.3562,182.23437 329.91269,182.23437 330.75654,182.23437 332.74934,183.8524 333.47901,185.12999 333.89899,185.86535 334.30967,186.39996 334.39162,186.31801 334.47357,186.23606 334.96378,186.24839 335.48098,186.34541 336.83557,186.59954 338.20532,188.07277 339.38895,190.54863 340.53817,192.95249 340.9447,194.71789 340.9447,197.3046 340.9447,201.59934 339.37113,203.29268 333.41537,205.40702 L 331.46134,206.10071 332.84223,208.91806 C 333.60172,210.46761 334.41931,212.22765 334.6591,212.82927 335.04419,213.79545 335.21256,213.9382 336.10166,214.05231 337.25801,214.20072 339.26686,213.34669 340.50693,212.17946 342.43909,210.36081 344.12684,205.39132 344.1092,201.57278 344.09921,199.41221 343.63896,196.13205 343.20557,195.13281 342.92966,194.49666 343.5936,194.52562 344.93132,195.20807 L 345.98644,195.74636 345.85386,195.14193 C 345.06383,191.54029 344.93982,185.78636 345.57388,182.15042 346.33539,177.7836 348.47959,172.8201 350.68867,170.31045 351.61654,169.25633 351.83235,168.7434 352.46794,166.08145 354.08641,159.3031 356.61038,154.40572 360.51867,150.46026 363.806,147.14166 370.63385,143.02503 373.46503,142.65467 L 374.89683,142.46737 373.55522,144.07947 C 367.71763,151.09405 368.47734,158.51843 377.59483,183.55729 380.56491,191.71385 381.74026,196.41645 382.19078,201.94583 383.18228,214.11476 379.18338,226.08256 371.7746,233.11914 370.22513,234.59075 367.80892,236.2792 365.61639,237.42249 L 363.69745,238.42311 364.95493,239.05633 C 366.33867,239.75314 367.66762,240.89451 367.66762,241.38615 367.66762,241.84633 366.53691,242.218 363.69887,242.69072 362.31642,242.92099 360.29236,243.38903 359.20095,243.73082 358.10954,244.0726 356.44429,244.44006 355.50039,244.54738 L 353.78421,244.74251 354.89725,245.17769 C 357.12179,246.04745 357.05614,246.46599 354.55531,247.35758 352.53347,248.0784 347.71997,248.31712 344.31107,247.86564 338.89345,247.14812 335.14559,245.74453 332.5242,243.4514 331.75737,242.78059 331.09896,242.2757 331.06107,242.32942 331.02318,242.38313 330.6572,243.23323 330.24778,244.21853 328.89345,247.47786 326.91429,250.48259 324.51837,252.91685 L 322.24726,255.2243 324.56431,256.28573 C 325.83869,256.86952 328.4601,257.8449 330.38968,258.45324 333.8958,259.55863 333.89933,259.55913 336.03228,259.26109 337.20614,259.09707 338.75752,258.96302 339.47978,258.9632 340.75919,258.96353 340.83605,259.0095 342.46658,260.74948 343.38705,261.73174 344.54352,263.1914 345.0365,263.99316 346.79703,266.85643 347.92531,271.61388 347.44766,274.15997 347.24497,275.24038 345.78124,277.03109 344.6026,277.64059 344.15769,277.87066 343.85512,278.24285 343.85512,278.56004 343.85512,279.24434 342.99902,280.92428 342.35225,281.50916 342.07679,281.75827 341.26044,282.22989 340.53816,282.55722 339.44413,283.05302 338.78323,283.14925 336.57907,283.13369 335.12387,283.12341 333.61003,282.98376 333.215,282.82334 332.75488,282.63649 332.43941,282.62449 332.33716,282.78993 331.6569,283.89062 327.91869,284.587 325.27004,284.10646 Z M 318.69895,161.10575 319.2883,159.95316 318.67357,159.25366 C 317.29928,157.68987 315.2627,155.70526 315.14896,155.819 314.99578,155.97218 315.48215,166.08248 315.71956,167.68035 L 315.89618,168.86904 317.00289,165.56369 C 317.61158,163.74574 318.37481,161.73967 318.69895,161.10575 Z M 239.87791,113.12759 C 239.87569,112.88152 239.99293,112.6066 240.13845,112.51667 240.4733,112.30971 240.4733,112.65997 240.13845,113.17813 239.91741,113.52015 239.88141,113.51316 239.87791,113.12759 Z"
       id="path2" /></g></svg>
