<?xml version="1.0" encoding="UTF-8" standalone="no"?>
<!-- Created with Inkscape (http://www.inkscape.org/) -->

<svg
   width="125.79844mm"
   height="125.79844mm"
   viewBox="0 0 125.79844 125.79844"
   version="1.1"
   id="svg5"
   xml:space="preserve"
   inkscape:export-filename="Furcation Logo.png"
   inkscape:export-xdpi="96"
   inkscape:export-ydpi="96"
   inkscape:version="1.2.1 (9c6d41e410, 2022-07-14)"
   sodipodi:docname="furcation-logo.svg"
   xmlns:inkscape="http://www.inkscape.org/namespaces/inkscape"
   xmlns:sodipodi="http://sodipodi.sourceforge.net/DTD/sodipodi-0.dtd"
   xmlns:xlink="http://www.w3.org/1999/xlink"
   xmlns="http://www.w3.org/2000/svg"
   xmlns:svg="http://www.w3.org/2000/svg"><sodipodi:namedview
     id="namedview7"
     pagecolor="#ffffff"
     bordercolor="#000000"
     borderopacity="0.25"
     inkscape:showpageshadow="2"
     inkscape:pageopacity="0.0"
     inkscape:pagecheckerboard="0"
     inkscape:deskcolor="#d1d1d1"
     inkscape:document-units="mm"
     showgrid="false"
     inkscape:zoom="0.914906"
     inkscape:cx="-37.162288"
     inkscape:cy="293.47277"
     inkscape:window-width="3178"
     inkscape:window-height="1230"
     inkscape:window-x="1205"
     inkscape:window-y="133"
     inkscape:window-maximized="0"
     inkscape:current-layer="layer1" /><defs
     id="defs2" /><g
     inkscape:label="Layer 1"
     inkscape:groupmode="layer"
     id="layer1"
     transform="translate(-26.316463,-39.983128)"><circle
       style="fill:#1b1464;fill-opacity:1;stroke-width:3.1295;stop-color:#000000"
       id="path410"
       cx="89.215683"
       cy="102.88235"
       r="62.89922" /><path
       id="rect4275"
       style="fill:#ffffff;fill-opacity:1;stroke:none;stroke-width:1.11715;stroke-dasharray:none;stroke-opacity:1;stop-color:#000000"
       d="M 126.73016,106.67797 C 114.26256,96.405075 101.79495,86.132185 89.327357,75.859285 76.756414,86.271125 64.185469,96.682955 51.614526,107.09478 v 34.3922 c -1.800324,1.08755 -7.143764,4.53328 -7.467446,5.29398 0.05371,1.4718 3.172459,3.26195 4.650052,4.30625 31.649974,-20.26885 53.647098,17.90653 77.933028,3.64994 0,0 6.74466,-6.82885 9.4602,-8.81871 -0.0632,-1.42744 -0.18205,-0.25166 -0.18909,-0.94526 -3.15986,3.2204 -7.15367,4.73032 -9.27111,5.1233 z M 85.302438,67.781535 41.792096,103.49687 c -2.688227,2.50238 2.02258,7.53785 5.564442,4.2762 0,0 28.464882,-23.725165 41.823607,-34.565915 14.293045,11.43272 42.586745,35.016045 42.586745,35.016045 4.01645,2.96574 7.75791,-2.688 4.87795,-4.86913 L 93.468938,67.781535 c -4.078197,-3.44312 -4.059844,-3.44979 -8.1665,0 z m 11.118798,28.93856 c 4.380704,1.34618 3.861824,7.917065 1.42487,10.892405 -2.993027,4.25644 -8.558365,-0.30917 -7.090805,-4.62292 0.12019,-2.93741 2.231358,-6.720015 5.665935,-6.269485 z m -14.295722,0.008 c 4.183341,0.37722 5.931128,5.391025 5.405384,9.057785 -0.272482,4.30742 -6.324334,4.70026 -7.658586,0.83952 -1.783311,-2.85236 -2.011935,-9.208785 2.253202,-9.897305 z m 22.103146,10.529415 c 5.12567,1.27218 3.6103,9.10132 -0.32984,11.08044 -3.978954,2.57318 -6.731354,-3.32308 -4.815074,-6.63291 0.78637,-2.11551 2.795444,-3.97704 5.144914,-4.44753 z m -29.922702,0.94158 c 2.969842,0.11453 5.222807,3.20368 5.458053,5.94709 1.388533,3.93198 -2.98518,7.03177 -5.841223,4.18308 -2.620332,-2.26977 -4.087391,-6.58105 -1.817082,-9.46917 0.436176,-0.53945 1.606595,-0.64405 2.200252,-0.661 z m 15.257516,7.22492 c 4.531395,-0.48141 7.390502,3.64615 9.739922,6.92562 1.547324,2.4645 3.776324,5.99339 1.515724,8.65808 -3.891074,2.32479 -7.353431,-2.49392 -11.492319,-1.40241 -3.294794,0.0191 -6.479958,3.18809 -9.656553,1.54615 -2.813319,-2.01815 -0.929678,-6.14593 0.112575,-8.60699 1.735933,-3.61204 5.288432,-7.39503 9.780651,-7.12045 z"
       sodipodi:nodetypes="cccccccccccccccccccccccsccssssscssccsssssss" /><g
       id="g4117"
       transform="rotate(0.94631925,1.5305129,185.3208)"
       style="fill:#ffffff;stroke:none"><circle
         style="fill:none;fill-opacity:1;stroke:none;stroke-width:1;stroke-dasharray:none;stroke-opacity:1;stop-color:#000000"
         id="path410-5"
         cx="-127.32935"
         cy="-43.341942"
         transform="rotate(-149.59475)"
         r="42.077408" /><text
         xml:space="preserve"
         style="font-style:normal;font-variant:normal;font-weight:normal;font-stretch:normal;font-size:16.0858px;font-family:Arial;-inkscape-font-specification:Arial;letter-spacing:-0.767292px;fill:#ffffff;stroke:none;stroke-width:15.199;stop-color:#000000"
         id="text356"><textPath
           xlink:href="#path410-5"
           id="textPath3557"
           style="font-style:normal;font-variant:normal;font-weight:normal;font-stretch:normal;font-family:Arial;-inkscape-font-specification:Arial;fill:#ffffff;stroke:none">FURCATION</textPath></text></g></g></svg>
