<svg width="475.459" height="475.459" viewBox="0 0 125.798 125.798" xml:space="preserve" xmlns="http://www.w3.org/2000/svg"><g transform="translate(-26.316 -39.983)"><circle style="fill:#1b1464;fill-opacity:1;stroke-width:3.1295;stop-color:#000" cx="89.216" cy="102.882" r="62.899"/><path style="fill:#fff;fill-opacity:1;stroke:none;stroke-width:1.11715;stroke-dasharray:none;stroke-opacity:1;stop-color:#000" d="M89.396 65.197c-1.018-.001-2.04.86-4.093 2.584l-43.511 35.716c-2.688 2.502 2.023 7.538 5.565 4.276 0 0 28.465-23.725 41.823-34.566 14.293 11.433 42.587 35.016 42.587 35.016 4.016 2.966 7.758-2.688 4.878-4.87L93.469 67.782c-2.04-1.721-3.054-2.584-4.073-2.584zm-.068 10.662-37.713 31.236v33.578c-2.72 1.318-5.522 2.991-8.42 5.086.97 1.216 2.305 2.695 3.718 3.672 35.16-22.777 52.225 15.124 82.23 2.066 7.657-5.946 12.145-12.484 15.294-18.499-4.335 6.856-12.112 11.257-17.707 13.397v-39.717L89.328 75.859zm6.465 20.825c.204-.004.414.008.628.036 4.38 1.346 3.862 7.917 1.425 10.893-2.993 4.256-8.558-.31-7.09-4.623.112-2.754 1.974-6.25 5.037-6.306zm-13.668.044c4.184.377 5.932 5.391 5.406 9.058-.273 4.307-6.324 4.7-7.659.84-1.783-2.853-2.012-9.21 2.253-9.898zm22.104 10.53c5.125 1.272 3.61 9.1-.33 11.08-3.98 2.573-6.732-3.323-4.815-6.633.786-2.116 2.795-3.977 5.144-4.447zm-29.923.941c2.97.115 5.223 3.204 5.458 5.947 1.388 3.932-2.985 7.032-5.841 4.183-2.62-2.27-4.087-6.58-1.817-9.469.436-.54 1.606-.644 2.2-.66zm16.088 7.187c4.056.07 6.707 3.89 8.91 6.964 1.547 2.464 3.775 5.993 1.515 8.658-3.891 2.324-7.354-2.494-11.492-1.403-3.295.02-6.48 3.188-9.657 1.546-2.813-2.018-.93-6.145.113-8.607 1.736-3.612 5.288-7.395 9.78-7.12.283-.03.56-.042.83-.038z"/><g transform="rotate(.946 1.53 185.32)" style="fill:#fff;stroke:none"><circle style="fill:none;fill-opacity:1;stroke:none;stroke-width:1;stroke-dasharray:none;stroke-opacity:1;stop-color:#000" cx="-127.329" cy="-43.342" transform="rotate(-149.595)" r="42.077"/><path d="m52.152 79.311-9.192-6.936 4.68-6.2 1.084.818-3.761 4.985 2.846 2.148 3.255-4.314 1.085.819-3.255 4.313 4.176 3.151zm4.051-20.831 1.178-.966 4.219 5.144Q62.7 64 63.044 65.04q.344 1.039-.044 2.189-.386 1.14-1.673 2.195-1.252 1.026-2.4 1.247-1.15.222-2.158-.313-1.012-.542-2.172-1.957l-4.219-5.144 1.179-.966 4.213 5.138q.951 1.16 1.617 1.539.667.367 1.433.236.773-.135 1.532-.758 1.3-1.066 1.37-2.108.069-1.042-1.306-2.719zm10.039 6.964L61.46 54.97l4.644-2.12q1.4-.64 2.26-.687.856-.054 1.618.462.762.515 1.156 1.38.51 1.114.137 2.208t-1.786 1.99q.671.013 1.074.14.862.28 1.787.868l3.123 2.019-1.743.796-2.381-1.547q-1.038-.666-1.66-.986-.62-.321-1.026-.378-.399-.06-.756.009-.259.058-.795.302l-1.607.734 2.123 4.651zm-1.285-6.484 2.979-1.36q.95-.434 1.398-.872.445-.445.527-1 .08-.564-.151-1.07-.34-.744-1.101-.975-.755-.234-1.92.298l-3.315 1.514zm18.66-3.2 1.568.119q-.152 1.931-1.213 3.12-1.055 1.179-2.828 1.486-1.834.318-3.116-.225-1.275-.552-2.124-1.864-.842-1.312-1.123-2.938-.308-1.772.137-3.204.452-1.442 1.58-2.339 1.134-.906 2.636-1.166 1.702-.295 3.013.37 1.311.666 2.04 2.158l-1.417.604q-.61-1.17-1.458-1.604-.849-.435-1.987-.238-1.307.227-2.081 1.007-.766.778-.938 1.9-.174 1.114.021 2.236.25 1.447.857 2.459.612 1.001 1.594 1.381.983.38 2.02.2 1.261-.219 2.01-1.098.748-.879.81-2.364zm2.085 3.765 5.117-11.223 1.639.1 4 11.782-1.733-.106-1.127-3.563-4.806-.294-1.476 3.403zm3.605-4.516 3.896.238-1.005-3.256q-.46-1.484-.669-2.433-.287 1.092-.754 2.157zm9.233 6.092 2.751-9.776-3.651-1.027.368-1.308 8.785 2.471-.368 1.308-3.667-1.031-2.75 9.776zm6.033 2.086 4.763-10.483 1.387.63-4.762 10.483zm6.081-3.615q1.638-2.353 3.826-2.801 2.193-.455 4.191.936 1.309.912 1.924 2.268.615 1.357.382 2.86-.222 1.501-1.21 2.92-1 1.437-2.37 2.167-1.37.731-2.842.577-1.467-.16-2.699-1.017-1.334-.93-1.936-2.306-.602-1.376-.367-2.868t1.101-2.736zm1.276.917q-1.19 1.708-.96 3.332.24 1.621 1.625 2.586 1.412.983 3.012.623 1.606-.355 2.876-2.18.804-1.153 1.007-2.285.215-1.133-.212-2.128-.415-.998-1.35-1.649-1.328-.924-2.926-.677-1.586.244-3.072 2.378zm5.387 10.904 8.854-7.36 1 1.201-3.086 10.43 6.952-5.78.934 1.124-8.855 7.361-.999-1.202 3.092-10.435-6.958 5.785z" aria-label="FURCATION" style="font-size:16.0858px;font-family:Arial;-inkscape-font-specification:Arial;letter-spacing:-.767292px;stroke-width:15.199;stop-color:#000"/></g></g></svg>