<?xml version="1.0" encoding="UTF-8" standalone="no"?>
<svg
   width="450.98529"
   height="450.98529"
   viewBox="0 0 119.32303 119.32303"
   xml:space="preserve"
   version="1.1"
   id="svg1090"
   sodipodi:docname="furcation-logo-circle.svg"
   inkscape:version="1.2.1 (9c6d41e410, 2022-07-14)"
   xmlns:inkscape="http://www.inkscape.org/namespaces/inkscape"
   xmlns:sodipodi="http://sodipodi.sourceforge.net/DTD/sodipodi-0.dtd"
   xmlns="http://www.w3.org/2000/svg"
   xmlns:svg="http://www.w3.org/2000/svg"><defs
     id="defs1094" /><sodipodi:namedview
     id="namedview1092"
     pagecolor="#ffffff"
     bordercolor="#000000"
     borderopacity="0.25"
     inkscape:showpageshadow="2"
     inkscape:pageopacity="0.0"
     inkscape:pagecheckerboard="0"
     inkscape:deskcolor="#d1d1d1"
     showgrid="false"
     inkscape:zoom="1.1357325"
     inkscape:cx="316.09556"
     inkscape:cy="250.49913"
     inkscape:window-width="1941"
     inkscape:window-height="1230"
     inkscape:window-x="2599"
     inkscape:window-y="82"
     inkscape:window-maximized="0"
     inkscape:current-layer="svg1090" /><rect
     style="fill:#1b1464;fill-opacity:1;stroke-width:0.141063;stop-color:#000000"
     id="rect4445"
     width="119.32304"
     height="119.32304"
     x="0"
     y="0"
     ry="59.661522" /><path
     id="path1080"
     style="fill:#ffffff;fill-opacity:1;stroke:none;stroke-width:1.11715;stroke-dasharray:none;stroke-opacity:1;stop-color:#000000"
     d="m 59.841896,21.97604 c -1.017999,-0.001 -2.03977,0.85982 -4.092768,2.583818 L 12.238146,60.275981 c -2.6879981,2.50199 2.023031,7.53821 5.565027,4.27622 0,0 28.464729,-23.725336 41.822716,-34.566325 14.292982,11.432989 42.587011,35.015905 42.587011,35.015905 4.01599,2.966 7.75824,-2.68798 4.87825,-4.86998 L 63.915027,24.560891 c -2.039998,-1.720998 -3.054132,-2.583818 -4.073131,-2.583818 z m -0.0677,10.661867 -37.713411,31.236294 v 33.57775 c -2.719997,1.318 -5.521633,2.990989 -8.41963,5.085989 0.969999,1.216 2.296116,2.44212 3.718114,3.67212 35.159965,-22.776969 52.224528,15.12401 82.229498,2.06602 3.452003,-1.55399 7.963493,-5.23298 8.569493,-6.24198 l -2.82101,-3.700029 c 0.165,0.387 -4.39425,5.007169 -8.161253,5.369169 V 63.457171 Z m -6.977343,20.670546 c 0.245179,8.46e-4 0.501556,0.02785 0.769978,0.08423 2.861149,0.601043 4.839475,4.350356 4.552688,7.901316 -0.286792,3.55097 -2.265079,5.28286 -5.097357,4.55786 -2.832274,-0.72502 -4.409945,-4.48115 -4.073648,-8.04911 0.194352,-2.061988 1.478276,-4.502474 3.848339,-4.494298 z m 13.500967,0.04444 c 2.370063,-0.0082 3.653987,2.43231 3.848339,4.494296 0.336298,3.56796 -1.241891,7.32409 -4.074165,8.04911 -2.832278,0.725 -4.810048,-1.00689 -5.09684,-4.55786 -0.286787,-3.55096 1.691022,-7.300271 4.552171,-7.901314 0.268423,-0.05639 0.525316,-0.08339 0.770495,-0.08423 z m 8.532797,11.000866 c 2.39133,-0.003 3.55623,1.6281 3.17293,4.6116 -0.41119,3.20059 -2.16391,6.33733 -4.88755,6.57426 -2.723629,0.23692 -4.316052,-1.58877 -4.090182,-4.78936 0.22587,-3.20059 2.586632,-6.13684 5.310262,-6.37376 0.17023,-0.0148 0.33512,-0.0225 0.49454,-0.0227 z m -30.173825,0.63562 c 0.159422,2e-4 0.324316,0.007 0.494543,0.0222 2.72363,0.23692 5.084393,3.17317 5.310263,6.37376 0.22587,3.2006 -1.366553,5.0268 -4.090184,4.78988 -2.723631,-0.23693 -4.476361,-3.37367 -4.887551,-6.57426 -0.383297,-2.9835 0.781607,-4.61459 3.172929,-4.6116 z m 15.8972,7.18146 c 5.631057,-0.0501 11.146545,8.58645 11.656125,12.67931 -0.0298,4.17124 -3.390273,4.61056 -7.408845,2.45722 -3.192052,-1.29705 -5.000333,-1.27597 -8.996855,0.17518 -4.018572,2.15337 -7.074862,1.18925 -7.16286,-2.69079 0.0096,-5.52233 4.647793,-12.44952 11.367249,-12.58888 0.181724,-0.0201 0.363539,-0.0304 0.545186,-0.032 z" /><g
     transform="rotate(0.946,2604.0417,-1626.1357)"
     style="fill:#ffffff;stroke:none"
     id="g1088"><circle
       style="fill:none;fill-opacity:1;stroke:none;stroke-width:1;stroke-dasharray:none;stroke-opacity:1;stop-color:#000000"
       cx="-127.329"
       cy="-43.341999"
       transform="rotate(-149.595)"
       r="42.077"
       id="circle1082" /><g
       aria-label="FURCATION"
       style="font-size:16.0858px;font-family:Arial;-inkscape-font-specification:Arial;letter-spacing:-0.767292px;stroke-width:15.199;stop-color:#000000"
       id="g1086"><path
         d="m 52.151,79.311 -9.19,-6.935 4.678,-6.201 1.085,0.818 -3.761,4.985 2.846,2.148 3.255,-4.314 1.085,0.819 -3.255,4.313 4.175,3.151 z m 4.052,-20.831 1.178,-0.966 4.218,5.144 q 1.1,1.343 1.445,2.381 0.343,1.039 -0.044,2.19 -0.386,1.139 -1.674,2.194 -1.25,1.026 -2.4,1.248 -1.15,0.22 -2.157,-0.314 -1.012,-0.541 -2.173,-1.956 l -4.218,-5.145 1.178,-0.966 4.214,5.138 q 0.95,1.16 1.617,1.539 0.666,0.367 1.433,0.236 0.772,-0.135 1.531,-0.758 1.3,-1.066 1.37,-2.108 0.07,-1.042 -1.305,-2.719 z m 10.039,6.965 -4.783,-10.475 4.645,-2.12 q 1.4,-0.64 2.26,-0.687 0.855,-0.054 1.617,0.462 0.762,0.515 1.157,1.38 0.509,1.114 0.136,2.208 -0.372,1.094 -1.785,1.99 0.67,0.013 1.074,0.14 0.862,0.28 1.786,0.868 l 3.124,2.019 -1.743,0.796 -2.381,-1.547 q -1.038,-0.665 -1.66,-0.986 -0.621,-0.32 -1.027,-0.377 -0.398,-0.06 -0.756,0.008 -0.258,0.058 -0.794,0.302 l -1.608,0.734 2.124,4.652 z m -1.286,-6.485 2.98,-1.36 q 0.95,-0.434 1.398,-0.872 0.444,-0.444 0.527,-1 0.08,-0.563 -0.152,-1.07 -0.34,-0.744 -1.1,-0.975 -0.755,-0.234 -1.92,0.298 l -3.315,1.514 z m 18.661,-3.2 1.567,0.119 q -0.151,1.931 -1.213,3.12 -1.055,1.18 -2.827,1.486 -1.834,0.318 -3.116,-0.225 -1.276,-0.552 -2.125,-1.863 -0.841,-1.313 -1.123,-2.938 -0.307,-1.773 0.138,-3.205 0.452,-1.441 1.58,-2.338 1.134,-0.907 2.635,-1.167 1.703,-0.295 3.014,0.37 1.311,0.666 2.04,2.158 l -1.418,0.604 q -0.61,-1.17 -1.458,-1.604 -0.848,-0.435 -1.986,-0.238 -1.308,0.227 -2.081,1.007 -0.766,0.778 -0.938,1.9 -0.174,1.114 0.02,2.236 0.251,1.448 0.857,2.459 0.612,1.002 1.595,1.381 0.982,0.38 2.02,0.2 1.26,-0.218 2.01,-1.098 0.748,-0.879 0.809,-2.364 z m 2.084,3.765 5.118,-11.222 1.638,0.1 4,11.78 -1.732,-0.105 -1.128,-3.563 -4.806,-0.294 -1.475,3.403 z m 3.605,-4.516 3.897,0.238 -1.005,-3.256 q -0.46,-1.484 -0.67,-2.433 -0.287,1.092 -0.753,2.157 z m 9.234,6.092 2.751,-9.776 -3.652,-1.027 0.368,-1.308 8.786,2.471 -0.368,1.308 -3.667,-1.031 -2.75,9.776 z m 6.033,2.086 4.762,-10.483 1.388,0.63 -4.763,10.483 z m 6.081,-3.615 q 1.638,-2.353 3.826,-2.801 2.192,-0.455 4.19,0.936 1.31,0.911 1.925,2.268 0.615,1.357 0.382,2.86 -0.222,1.501 -1.21,2.92 -1,1.437 -2.37,2.167 -1.37,0.73 -2.842,0.577 -1.468,-0.16 -2.699,-1.018 -1.334,-0.929 -1.936,-2.305 -0.602,-1.376 -0.367,-2.868 0.235,-1.492 1.101,-2.736 z m 1.276,0.917 q -1.19,1.708 -0.96,3.331 0.239,1.622 1.625,2.587 1.411,0.983 3.011,0.623 1.607,-0.356 2.877,-2.18 0.803,-1.154 1.007,-2.285 0.214,-1.133 -0.212,-2.128 -0.416,-0.998 -1.35,-1.649 -1.328,-0.924 -2.926,-0.678 -1.587,0.245 -3.072,2.379 z m 5.387,10.904 8.854,-7.361 1,1.202 -3.086,10.43 6.952,-5.78 0.933,1.124 -8.854,7.36 -1,-1.201 3.092,-10.435 -6.957,5.784 z"
         id="path1084" /></g></g></svg>
