<svg width="639.41" height="639.41" viewBox="0 0 169.177 169.177" xml:space="preserve" xmlns="http://www.w3.org/2000/svg"><path style="fill:#1b1464;fill-opacity:1;stroke:none;stroke-width:2.82609;stroke-dasharray:none;stroke-opacity:1;stop-color:#000" d="M4.627 18.294h169.177v169.177H4.627z" transform="translate(-4.627 -18.294)"/><path style="fill:#fff;fill-opacity:1;stroke:none;stroke-width:1.11715;stroke-dasharray:none;stroke-opacity:1;stop-color:#000" d="M89.396 65.197c-1.018-.001-2.04.86-4.093 2.584l-43.511 35.716c-2.688 2.502 2.023 7.538 5.565 4.276 0 0 28.465-23.725 41.823-34.566 14.293 11.433 42.587 35.016 42.587 35.016 4.016 2.966 7.758-2.688 4.878-4.87L93.469 67.782c-2.04-1.721-3.054-2.584-4.073-2.584zm-.068 10.662-37.713 31.236v33.578c-2.72 1.318-5.522 2.991-8.42 5.086.97 1.216 2.296 2.442 3.718 3.672 35.16-22.777 52.225 15.124 82.23 2.066 3.452-1.554 7.963-5.233 8.569-6.242l-2.821-3.7c.165.387-4.394 4.478-8.161 4.84v-39.717L89.328 75.859zm6.465 20.825c.204-.004.414.008.628.036 4.38 1.346 3.862 7.917 1.425 10.893-2.993 4.256-8.558-.31-7.09-4.623.112-2.754 1.974-6.25 5.037-6.306zm-13.668.044c4.184.377 5.932 5.391 5.406 9.058-.273 4.307-6.324 4.7-7.659.84-1.783-2.853-2.012-9.21 2.253-9.898zm22.104 10.53c5.125 1.272 3.61 9.1-.33 11.08-3.98 2.573-6.732-3.323-4.815-6.633.786-2.116 2.795-3.977 5.144-4.447zm-29.923.941c2.97.115 5.223 3.204 5.458 5.947 1.388 3.932-2.985 7.032-5.841 4.183-2.62-2.27-4.087-6.58-1.817-9.469.436-.54 1.606-.644 2.2-.66zm16.088 7.187c4.056.07 6.707 3.89 8.91 6.964 1.547 2.464 3.775 5.993 1.515 8.658-3.891 2.324-7.354-2.494-11.492-1.403-3.295.02-6.48 3.188-9.657 1.546-2.813-2.018-.93-6.145.113-8.607 1.736-3.612 5.288-7.395 9.78-7.12.283-.03.56-.042.83-.038z" transform="translate(-4.627 -18.294)"/><g transform="rotate(.946 1106.803 -103.97)" style="fill:#fff;stroke:none"><circle style="fill:none;fill-opacity:1;stroke:none;stroke-width:1;stroke-dasharray:none;stroke-opacity:1;stop-color:#000" cx="-127.329" cy="-43.342" transform="rotate(-149.595)" r="42.077"/><g aria-label="FURCATION" style="font-size:16.0858px;font-family:Arial;-inkscape-font-specification:Arial;letter-spacing:-.767292px;stroke-width:15.199;stop-color:#000"><path d="m52.151 79.311-9.19-6.935 4.678-6.201 1.085.818-3.761 4.985 2.846 2.148 3.255-4.314 1.085.819-3.255 4.313 4.175 3.151zM56.203 58.48l1.178-.966 4.218 5.144q1.1 1.343 1.445 2.381.343 1.039-.044 2.19-.386 1.139-1.674 2.194-1.25 1.026-2.4 1.248-1.15.22-2.157-.314-1.012-.541-2.173-1.956l-4.218-5.145 1.178-.966 4.214 5.138q.95 1.16 1.617 1.539.666.367 1.433.236.772-.135 1.531-.758 1.3-1.066 1.37-2.108.07-1.042-1.305-2.719zM66.242 65.445 61.459 54.97l4.645-2.12q1.4-.64 2.26-.687.855-.054 1.617.462.762.515 1.157 1.38.509 1.114.136 2.208-.372 1.094-1.785 1.99.67.013 1.074.14.862.28 1.786.868l3.124 2.019-1.743.796-2.381-1.547q-1.038-.665-1.66-.986-.621-.32-1.027-.377-.398-.06-.756.008-.258.058-.794.302l-1.608.734 2.124 4.652zm-1.286-6.485 2.98-1.36q.95-.434 1.398-.872.444-.444.527-1 .08-.563-.152-1.07-.34-.744-1.1-.975-.755-.234-1.92.298l-3.315 1.514zM83.617 55.76l1.567.119q-.151 1.931-1.213 3.12-1.055 1.18-2.827 1.486-1.834.318-3.116-.225-1.276-.552-2.125-1.863-.841-1.313-1.123-2.938-.307-1.773.138-3.205.452-1.441 1.58-2.338 1.134-.907 2.635-1.167 1.703-.295 3.014.37 1.311.666 2.04 2.158l-1.418.604q-.61-1.17-1.458-1.604-.848-.435-1.986-.238-1.308.227-2.081 1.007-.766.778-.938 1.9-.174 1.114.02 2.236.251 1.448.857 2.459.612 1.002 1.595 1.381.982.38 2.02.2 1.26-.218 2.01-1.098.748-.879.809-2.364zM85.701 59.525l5.118-11.222 1.638.1 4 11.78-1.732-.105-1.128-3.563-4.806-.294-1.475 3.403zm3.605-4.516 3.897.238-1.005-3.256q-.46-1.484-.67-2.433-.287 1.092-.753 2.157zM98.54 61.101l2.751-9.776-3.652-1.027.368-1.308 8.786 2.471-.368 1.308-3.667-1.031-2.75 9.776zM104.573 63.187l4.762-10.483 1.388.63-4.763 10.483zM110.654 59.572q1.638-2.353 3.826-2.801 2.192-.455 4.19.936 1.31.911 1.925 2.268.615 1.357.382 2.86-.222 1.501-1.21 2.92-1 1.437-2.37 2.167-1.37.73-2.842.577-1.468-.16-2.699-1.018-1.334-.929-1.936-2.305-.602-1.376-.367-2.868t1.101-2.736zm1.276.917q-1.19 1.708-.96 3.331.239 1.622 1.625 2.587 1.411.983 3.011.623 1.607-.356 2.877-2.18.803-1.154 1.007-2.285.214-1.133-.212-2.128-.416-.998-1.35-1.649-1.328-.924-2.926-.678-1.587.245-3.072 2.379zM117.317 71.393l8.854-7.361 1 1.202-3.086 10.43 6.952-5.78.933 1.124-8.854 7.36-1-1.201 3.092-10.435-6.957 5.784z"/></g></g></svg>