<?xml version="1.0" encoding="UTF-8"?>
<svg width="450.99" height="450.99" version="1.1" viewBox="0 0 119.32 119.32" xml:space="preserve" xmlns="http://www.w3.org/2000/svg"><rect width="119.32" height="119.32" ry="59.662" fill="#1b1464" stop-color="#000000" stroke-width=".14106"/><path d="m59.842 21.976c-1.018-1e-3 -2.0398 0.85982-4.0928 2.5838l-43.511 35.716c-2.688 2.502 2.023 7.5382 5.565 4.2762 0 0 28.465-23.725 41.823-34.566 14.293 11.433 42.587 35.016 42.587 35.016 4.016 2.966 7.7582-2.688 4.8782-4.87l-43.176-35.571c-2.04-1.721-3.0541-2.5838-4.0731-2.5838zm-0.0677 10.662-37.713 31.236v33.578c-2.72 1.318-5.5216 2.991-8.4196 5.086 0.97 1.216 2.2961 2.4421 3.7181 3.6721 35.16-22.777 52.225 15.124 82.229 2.066 3.452-1.554 7.9635-5.233 8.5695-6.242l-2.821-3.7c0.165 0.387-4.3942 5.0072-8.1613 5.3692v-40.246zm-6.9773 20.671c0.24518 8.46e-4 0.50156 0.02785 0.76998 0.08423 2.8611 0.60104 4.8395 4.3504 4.5527 7.9013-0.28679 3.551-2.2651 5.2829-5.0974 4.5579-2.8323-0.72502-4.4099-4.4812-4.0736-8.0491 0.19435-2.062 1.4783-4.5025 3.8483-4.4943zm13.501 0.04444c2.3701-0.0082 3.654 2.4323 3.8483 4.4943 0.3363 3.568-1.2419 7.3241-4.0742 8.0491-2.8323 0.725-4.81-1.0069-5.0968-4.5579-0.28679-3.551 1.691-7.3003 4.5522-7.9013 0.26842-0.05639 0.52532-0.08339 0.7705-0.08423zm8.5328 11.001c2.3913-3e-3 3.5562 1.6281 3.1729 4.6116-0.41119 3.2006-2.1639 6.3373-4.8876 6.5743-2.7236 0.23692-4.3161-1.5888-4.0902-4.7894s2.5866-6.1368 5.3103-6.3738c0.17023-0.0148 0.33512-0.0225 0.49454-0.0227zm-30.174 0.63562c0.15942 2e-4 0.32432 7e-3 0.49454 0.0222 2.7236 0.23692 5.0844 3.1732 5.3103 6.3738 0.22587 3.2006-1.3666 5.0268-4.0902 4.7899-2.7236-0.23693-4.4764-3.3737-4.8876-6.5743-0.3833-2.9835 0.78161-4.6146 3.1729-4.6116zm15.897 7.1815c5.6311-0.0501 11.147 8.5864 11.656 12.679-0.0298 4.1712-3.3903 4.6106-7.4088 2.4572-3.1921-1.297-5.0003-1.276-8.9969 0.17518-4.0186 2.1534-7.0749 1.1892-7.1629-2.6908 0.0096-5.5223 4.6478-12.45 11.367-12.589 0.18172-0.0201 0.36354-0.0304 0.54519-0.032z" fill="#fff" stop-color="#000000"/><g transform="rotate(.946 2604 -1626.1)" fill="#fff"><circle transform="rotate(210.4)" cx="-127.33" cy="-43.342" r="42.077" fill="none" stop-color="#000000"/><g stop-color="#000000" stroke-width="15.199" aria-label="FURCATION"><path d="m52.151 79.311-9.19-6.935 4.678-6.201 1.085 0.818-3.761 4.985 2.846 2.148 3.255-4.314 1.085 0.819-3.255 4.313 4.175 3.151zm4.052-20.831 1.178-0.966 4.218 5.144q1.1 1.343 1.445 2.381 0.343 1.039-0.044 2.19-0.386 1.139-1.674 2.194-1.25 1.026-2.4 1.248-1.15 0.22-2.157-0.314-1.012-0.541-2.173-1.956l-4.218-5.145 1.178-0.966 4.214 5.138q0.95 1.16 1.617 1.539 0.666 0.367 1.433 0.236 0.772-0.135 1.531-0.758 1.3-1.066 1.37-2.108t-1.305-2.719zm10.039 6.965-4.783-10.475 4.645-2.12q1.4-0.64 2.26-0.687 0.855-0.054 1.617 0.462 0.762 0.515 1.157 1.38 0.509 1.114 0.136 2.208-0.372 1.094-1.785 1.99 0.67 0.013 1.074 0.14 0.862 0.28 1.786 0.868l3.124 2.019-1.743 0.796-2.381-1.547q-1.038-0.665-1.66-0.986-0.621-0.32-1.027-0.377-0.398-0.06-0.756 8e-3 -0.258 0.058-0.794 0.302l-1.608 0.734 2.124 4.652zm-1.286-6.485 2.98-1.36q0.95-0.434 1.398-0.872 0.444-0.444 0.527-1 0.08-0.563-0.152-1.07-0.34-0.744-1.1-0.975-0.755-0.234-1.92 0.298l-3.315 1.514zm18.661-3.2 1.567 0.119q-0.151 1.931-1.213 3.12-1.055 1.18-2.827 1.486-1.834 0.318-3.116-0.225-1.276-0.552-2.125-1.863-0.841-1.313-1.123-2.938-0.307-1.773 0.138-3.205 0.452-1.441 1.58-2.338 1.134-0.907 2.635-1.167 1.703-0.295 3.014 0.37 1.311 0.666 2.04 2.158l-1.418 0.604q-0.61-1.17-1.458-1.604-0.848-0.435-1.986-0.238-1.308 0.227-2.081 1.007-0.766 0.778-0.938 1.9-0.174 1.114 0.02 2.236 0.251 1.448 0.857 2.459 0.612 1.002 1.595 1.381 0.982 0.38 2.02 0.2 1.26-0.218 2.01-1.098 0.748-0.879 0.809-2.364zm2.084 3.765 5.118-11.222 1.638 0.1 4 11.78-1.732-0.105-1.128-3.563-4.806-0.294-1.475 3.403zm3.605-4.516 3.897 0.238-1.005-3.256q-0.46-1.484-0.67-2.433-0.287 1.092-0.753 2.157zm9.234 6.092 2.751-9.776-3.652-1.027 0.368-1.308 8.786 2.471-0.368 1.308-3.667-1.031-2.75 9.776zm6.033 2.086 4.762-10.483 1.388 0.63-4.763 10.483zm6.081-3.615q1.638-2.353 3.826-2.801 2.192-0.455 4.19 0.936 1.31 0.911 1.925 2.268t0.382 2.86q-0.222 1.501-1.21 2.92-1 1.437-2.37 2.167t-2.842 0.577q-1.468-0.16-2.699-1.018-1.334-0.929-1.936-2.305t-0.367-2.868 1.101-2.736zm1.276 0.917q-1.19 1.708-0.96 3.331 0.239 1.622 1.625 2.587 1.411 0.983 3.011 0.623 1.607-0.356 2.877-2.18 0.803-1.154 1.007-2.285 0.214-1.133-0.212-2.128-0.416-0.998-1.35-1.649-1.328-0.924-2.926-0.678-1.587 0.245-3.072 2.379zm5.387 10.904 8.854-7.361 1 1.202-3.086 10.43 6.952-5.78 0.933 1.124-8.854 7.36-1-1.201 3.092-10.435-6.957 5.784z"/></g></g></svg>
