<?xml version="1.0" encoding="UTF-8" standalone="no"?>
<!-- Created with Inkscape (http://www.inkscape.org/) -->

<svg
   width="265.44mm"
   height="199.3306mm"
   viewBox="0 0 265.44 199.3306"
   version="1.1"
   id="svg1"
   xml:space="preserve"
   inkscape:version="1.3 (0e150ed6c4, 2023-07-21)"
   sodipodi:docname="game-result-1.svg"
   xmlns:inkscape="http://www.inkscape.org/namespaces/inkscape"
   xmlns:sodipodi="http://sodipodi.sourceforge.net/DTD/sodipodi-0.dtd"
   xmlns="http://www.w3.org/2000/svg"
   xmlns:svg="http://www.w3.org/2000/svg"><sodipodi:namedview
     id="namedview1"
     pagecolor="#ffffff"
     bordercolor="#000000"
     borderopacity="0.25"
     inkscape:showpageshadow="2"
     inkscape:pageopacity="0.0"
     inkscape:pagecheckerboard="0"
     inkscape:deskcolor="#d1d1d1"
     inkscape:document-units="mm"
     inkscape:zoom="1.0449705"
     inkscape:cx="501.92803"
     inkscape:cy="362.21117"
     inkscape:window-width="2369"
     inkscape:window-height="1237"
     inkscape:window-x="470"
     inkscape:window-y="36"
     inkscape:window-maximized="0"
     inkscape:current-layer="layer1" /><defs
     id="defs1" /><g
     inkscape:label="Layer 1"
     inkscape:groupmode="layer"
     id="layer1"
     transform="translate(27.948547,-52.641688)"><path
       style="fill:#000000"
       d="m 17.07807,251.71379 c -0.46049,-0.16286 -0.91691,-0.1842 -1.44318,-0.0675 -0.42334,0.0939 -1.54902,0.12941 -2.50152,0.0789 -2.13286,-0.11309 -3.9650098,-0.7445 -5.2103298,-1.79562 -0.48612,-0.41032 -1.28778,-0.99181 -1.78146,-1.29221 -1.87265,-1.13947 -3.1255,-2.72912 -3.51198,-4.45611 -0.30957,-1.3833 0.15625,-3.41642 1.31149,-5.72412 1.15051,-2.29824 3.31173,-4.56536 4.71789,-4.94905 1.3435998,-0.36663 2.6927098,-0.12761 4.1857598,0.74157 1.73896,1.01233 3.23679,1.25484 6.95207,1.12558 3.14761,-0.10951 5.80205,-0.63352 7.43872,-1.46849 0.90522,-0.46181 0.94157,-0.50587 1.0319,-1.25074 0.065,-0.5358 0.004,-0.58203 -1.66708,-1.25344 -0.954,-0.38342 -2.00131,-0.88708 -2.32735,-1.11924 l -0.59281,-0.42212 -0.62135,0.64107 c -1.37032,1.41381 -4.02134,2.28338 -7.0391,2.30892 -1.63044,0.0138 -2.09318,-0.0552 -3.03069,-0.45208 -1.15907,-0.49064 -1.42516,-0.95726 -0.76969,-1.34976 0.26762,-0.16026 0.19305,-0.18791 -0.36331,-0.13468 -1.9164598,0.18335 -5.0350398,-0.81287 -7.4687898,-2.38588 -1.71327,-1.10735 -3.76111002,-3.15444 -4.98301002,-4.98119 -0.60906998,-0.91058 -1.81269998,-3.08271 -2.67472998,-4.82695 -0.86202,-1.74425 -1.98324,-3.79938 -2.49158,-4.56695 -1.83933,-2.77731 -4.11205,-5.03333 -6.1541802,-6.10895 -1.01172,-0.53289 -1.24487,-0.57667 -3.03228,-0.56947 -2.03134,0.008 -3.48732,0.30533 -5.52096,1.12675 -0.62135,0.25097 -1.12973,0.38643 -1.12973,0.30102 0,-0.0854 0.19752,-0.40006 0.43892,-0.69922 0.2414,-0.29916 0.68151,-0.87225 0.97802,-1.27352 l 0.5391,-0.7296 -1.02612,0.6253 c -1.44985,0.88351 -3.96703,3.49722 -4.86852,5.05523 l -0.76361,1.31971 -0.24818,-0.60821 c -1.28203,-3.14191 -1.74225,-7.35855 -1.1319,-10.37076 0.66666,-3.2901 2.46845,-6.59087 5.02396,-9.20362 0.9525,-0.97383 1.63475,-1.73136 1.5161,-1.68339 -0.11865,0.048 -0.35264,-0.0497 -0.51999,-0.21705 -0.2774,-0.27741 -0.26799,-0.36757 0.10661,-1.02129 0.58311,-1.01761 3.16235,-3.48644 4.43408,-4.24427 5.368,-3.19881 11.7150902,-3.56901 17.35406018,-1.01218 2.80048002,1.2698 5.70938002,3.60542 7.57086002,6.07881 0.47791,0.635 0.80285,0.98136 0.7221,0.7697 -0.76749,-2.01174 -0.84852,-2.38181 -0.57184,-2.61145 0.47461,-0.39388 2.5433798,0.77686 3.8600798,2.18447 3.55841,3.80407 5.4554,8.69058 5.45626,14.05492 l 2.8e-4,1.766 1.4058,-2.79015 c 0.77319,-1.53459 2.62328,-4.73845 4.11133,-7.1197 4.58064,-7.33021 7.03644,-11.86136 8.81947,-16.2726 0.7233,-1.78946 1.63968,-5.01976 1.62634,-5.73294 -0.007,-0.37941 -0.0294,-0.37202 -0.2824,0.0937 -0.49367,0.90851 -1.76144,0.84126 -3.3726,-0.17891 -0.47259,-0.29924 -1.36277,-0.64492 -1.97817,-0.76816 -2.50294,-0.50125 -5.43088,-2.69852 -7.48864,-5.61984 -2.87572,-4.08255 -6.68114,-10.66954 -7.58593,-13.13087 l -0.54743,-1.4892 -1.50547,-0.002 c -2.6810098,-0.004 -5.5319198,-1.2711 -7.2501198,-3.22307 -0.42318,-0.48076 -0.76941,-0.93948 -0.76941,-1.01938 0,-0.0799 -0.41991,-0.41473 -0.93314,-0.74406 -0.79486002,-0.51006 -1.27247002,-0.6424 -3.22311,-0.89307 -1.25948,-0.16186 -2.69502,-0.42586 -3.19009,-0.58667 -1.99352,-0.64754 -3.26186,-2.13044 -3.66186,-4.2813 -0.18328,-0.98554 -0.16605,-1.28602 0.11607,-2.02474 0.3874,-1.0144 1.61369,-2.20161 2.44603,-2.36807 l 0.58275,-0.11655 -0.67598,-0.69494 c -0.93766,-0.96394 -1.45762,-2.2039 -1.46144,-3.48508 -0.005,-1.51335 0.27789,-2.33183 1.14402,-3.31581 1.45183,-1.64937 3.22077,-1.66427 6.97854998,-0.0588 0.30234,0.12917 0.29635,0.0564 -0.062,-0.7538 -0.4549,-1.02838 -0.55492,-3.29644 -0.18708,-4.24205 1.01997002,-2.62201 3.36513002,-3.53609 5.91918002,-2.30714 2.42562,1.16715 6.4379998,6.01551 7.5876498,9.16853 l 0.40112,1.1001 0.56811,-1.13689 c 0.63521,-1.27118 1.95591,-2.55216 2.97961,-2.89001 1.5631,-0.51587 3.72608,0.44979 4.47562,1.99813 0.84425,1.74398 0.52112,3.80684 -0.95716,6.11054 -0.87649,1.36589 -1.03965,2.65536 -0.56889,4.49601 0.46462,1.81664 0.49185,3.0792 0.0873,4.04743 -0.16495,0.39478 -0.27319,0.74338 -0.24053,0.77467 0.0327,0.0313 0.92529,0.63538 1.98362,1.34242 l 1.92425,1.28552 0.33863,-2.46965 c 0.36872,-2.68913 0.70613,-3.93627 1.41801,-5.24133 0.42717,-0.78311 0.43875,-0.87341 0.15248,-1.18972 -0.51305,-0.56693 -0.16907,-1.44814 1.0471,-2.68246 0.59658,-0.60548 1.21457,-1.14242 1.37332,-1.1932 0.24751,-0.0792 0.24024,-0.14693 -0.0511,-0.47559 -0.32553,-0.36729 -0.3234,-0.40397 0.0511,-0.88009 0.57054,-0.72533 1.58232,-0.99794 3.70219,-0.99751 l 1.87421,3.8e-4 -0.0237,-1.02741 c -0.013,-0.56508 0.0622,-1.11327 0.16709,-1.21819 0.12608,-0.12609 0.58181,-0.0591 1.34394,0.1977 0.94758,0.31921 1.28691,0.3525 1.90339,0.18673 1.17677,-0.31644 1.28288,-0.50162 0.94309,-1.64581 -0.28069,-0.94517 -0.3203,-0.98441 -1.10789,-1.09744 -1.26263,-0.18122 -6.03901,-0.66623 -9.76452,-0.99153 -9.13681,-0.79779 -12.14927,-1.71172 -16.87287,-5.11895 -1.7636198,-1.27214 -3.4176298,-2.98555 -4.4748998,-4.63561 -0.61871,-0.96561 -0.74124,-1.06769 -0.98683,-0.8221 -0.15422,0.15422 -0.55492,0.3353 -0.89045,0.40241 -0.81222,0.16244 -1.4644,-0.48455 -1.87201,-1.85712 -0.32546,-1.09595 -0.40946,-3.90747 -0.13869,-4.64188 0.0903,-0.24501 0.21803,-0.66829 0.28376,-0.9406 0.11024,-0.45673 0.0764,-0.48881 -0.43577,-0.41363 -0.42853,0.0629 -0.60854,-0.018 -0.78861,-0.35449 -0.33592,-0.62767 -0.129,-2.62326 0.37429,-3.6098 0.89124,-1.74697 3.07562,-3.55716 4.91338,-4.0717 1.05995,-0.29687 1.13256,-0.38815 0.86614,-1.0889 -0.52588,-1.38318 -0.79349,-3.401262 -0.82363,-6.211147 l -0.0318,-2.967408 -1.1263,-0.255747 c -1.39408,-0.316552 -3.93162,-1.491293 -5.45297002,-2.524423 -3.83591998,-2.604924 -5.81971998,-6.39027 -5.82875998,-11.122037 -0.006,-3.34777 1.37955,-6.928251 4.03636,-10.427667 l 1.34680998,-1.773947 h -0.65883 c -0.48255998,0 -0.76553998,-0.135655 -1.05764998,-0.507011 -0.51587,-0.655818 -0.50978,-0.700188 0.20834,-1.518085 0.63020998,-0.717769 1.83149998,-1.43854 2.39757998,-1.43854 0.30140002,0 0.30025002,-0.02859 -0.0151,-0.377095 -0.22153,-0.244782 -0.30113,-0.537033 -0.22686,-0.83292 0.47695002,-1.900327 6.36665002,-0.673244 10.93898982,2.279072 2.79141,1.802385 4.92892,3.806477 6.17183,5.786613 l 0.49858,0.794307 1.05697,-0.533148 c 0.58133,-0.293231 1.15594,-0.566138 1.27691,-0.60646 0.16459,-0.05486 0.1651,-0.291063 0.002,-0.9387 -0.49165,-1.952509 0.91419,-5.706561 2.80763,-7.497299 1.24985,-1.182051 1.86753,-1.252797 1.96612,-0.225189 l 0.0613,0.639333 0.92156,-0.862009 c 1.05237,-0.984375 1.86007,-1.429849 4.23736,-2.337057 2.38957,-0.911894 3.86638,-1.69371 5.10495,-2.702538 0.5915,-0.481788 1.15481,-0.826934 1.2518,-0.766992 0.2184,0.13498 0.0533,1.799796 -0.30363,3.061569 -0.14669,0.518569 -0.56282,1.481575 -0.92475,2.140013 l -0.65804,1.197162 0.92987,0.110129 c 1.24684,0.14767 2.7338,0.929991 3.94513,2.075614 l 0.99662,0.942564 h 1.68571 c 1.48228,0 1.67111,-0.03803 1.56479,-0.315104 -0.35167,-0.916446 -0.88238,-3.966659 -0.88238,-5.071443 0,-2.251412 0.84619,-4.653946 1.68205,-4.77572 0.26658,-0.03884 0.55495,-0.355699 0.81774,-0.898568 0.48147,-0.994571 1.20985,-1.349777 2.11839,-1.033058 0.3175,0.110681 0.57728,0.292779 0.57728,0.404662 0,0.111883 0.182,0.03871 0.40445,-0.162606 0.30792,-0.278664 0.76875,-0.382573 1.9307,-0.43534 4.84973,-0.220238 10.03063,3.868361 12.56594,9.916623 0.99857,2.38218 1.31729,3.866827 1.36858,6.374934 0.0374,1.830125 0.0989,2.216108 0.38628,2.426266 0.22501,0.164532 0.33319,0.478242 0.31665,0.918215 -0.0356,0.946991 -0.89684,3.542067 -1.55018,4.670961 l -0.55295,0.955428 0.64834,1.179504 c 0.35658,0.648728 1.04013,2.244856 1.51899,3.546953 1.07288,2.91736 1.90985,4.621919 2.75324,5.607233 0.94593,1.105111 1.49462,1.321363 3.3526,1.321363 3.16066,0 5.77962,1.281012 6.61833,3.237231 0.30371,0.708396 0.18838,1.380951 -0.23682,1.380951 -0.37127,0 -0.36002,0.04724 0.28702,1.205567 0.803201,1.437875 1.198332,2.978709 1.130574,4.408719 -0.0563,1.188282 -0.07227,1.221082 -0.681714,1.400512 -0.51499,0.15163 -0.64389,0.30296 -0.73759,0.86591 -0.62904,3.77952 -2.88593,7.25068 -10.95284,16.84581 -2.13546,2.54 -4.02664,4.73703 -4.20264,4.88228 -0.176,0.14525 -0.3219,0.44832 -0.32422,0.67348 -0.008,0.76931 -0.73688,2.02397 -1.90607,3.28077 -1.15133,1.23759 -1.16845,1.27236 -1.16555,2.36733 0.004,1.39658 0.18653,1.74233 0.65032,1.22985 0.62821,-0.69417 2.22653,-1.22402 3.99826,-1.32546 1.61243,-0.0923 1.68485,-0.0784 2.13873,0.41136 0.38211,0.4123 0.64524,0.50786 1.40984,0.51199 0.58475,0.003 1.74008,0.28517 3.05673,0.74612 2.07609,0.72682 2.11617,0.75208 2.09088,1.31811 -0.0227,0.5078 0.0605,0.60293 0.6927,0.79235 0.39516,0.11839 1.11174,0.51554 1.59238,0.88253 0.88113,0.6728 2.07025,2.34969 2.07025,2.91947 0,0.16933 0.68786,1.03455 1.52859,1.92272 1.785161,1.8859 3.017775,3.81004 5.303551,8.27899 2.120132,4.14509 3.234369,5.91937 4.380485,6.97539 1.664209,1.53338 3.641177,4.96784 4.271448,7.4205 0.428848,1.66884 0.370323,3.20358 -0.192531,5.04889 -0.494702,1.62187 -0.691622,1.86363 -1.028154,1.26229 -0.103154,-0.18433 -0.215696,-0.29257 -0.250092,-0.24053 -0.0344,0.052 -0.3478,0.66828 -0.696453,1.36943 -0.634595,1.2762 -2.079636,3.05472 -2.481946,3.05472 -0.265625,0 -0.636412,-1.02572 -0.636412,-1.76053 0,-0.30171 -0.03907,-0.54856 -0.08682,-0.54856 -0.04775,0 -0.585491,0.12989 -1.194974,0.28864 -1.480389,0.38559 -3.395201,0.35546 -4.635248,-0.0729 -0.555625,-0.19195 -1.010227,-0.32682 -1.010227,-0.29971 0,0.0271 0.261866,0.85064 0.581926,1.83006 1.273362,3.89664 2.283796,8.88655 2.703576,13.3513 l 0.229464,2.44056 1.070544,1.76627 c 0.588799,0.97144 1.483949,2.68763 1.989221,3.81374 1.223136,2.72604 3.623223,9.13905 4.474251,11.95516 1.272077,4.20939 1.665675,9.95976 0.861051,12.57975 -0.47442,1.54478 -0.468577,1.53585 -0.81595,1.24756 -0.219596,-0.18225 -0.290595,-0.0829 -0.391455,0.54786 -0.391352,2.44738 -3.01184,6.60515 -3.717947,5.89905 -0.05831,-0.0583 -0.443637,0.41635 -0.856288,1.0548 -0.929166,1.4376 -2.260227,2.78446 -3.689973,3.73375 -0.600298,0.39858 -1.091451,0.79038 -1.091451,0.87068 0,0.34986 2.029046,0.61659 3.730853,0.49045 3.063793,-0.22711 7.145343,-1.02879 8.365517,-1.64312 0.173247,-0.0872 0.747949,-0.29222 1.277116,-0.45554 0.529167,-0.16332 1.698144,-0.60466 2.597727,-0.98077 2.225421,-0.93041 3.594251,-0.95092 5.231251,-0.0784 1.44558,0.77048 2.3136,1.76315 3.25085,3.71767 1.30536,2.72215 1.68172,6.16924 0.85184,7.80187 -0.48042,0.94512 -1.61499,2.3004 -1.92577,2.3004 -0.14467,0 -0.50969,0.36801 -0.81115,0.8178 -1.05719,1.57736 -4.06619,2.80569 -7.177522,2.92999 -1.223168,0.0489 -1.660832,0.15753 -2.415287,0.59967 -1.450317,0.84994 -3.581024,1.23521 -6.856692,1.23981 -3.946305,0.006 -7.690337,-0.62846 -11.968909,-2.02679 -4.22043,-1.37932 -9.42337,-4.04726 -11.07139,-5.67715 -1.72967,-1.71064 -1.81086,-1.85582 -1.82616,-3.26556 -0.0122,-1.1258 0.0896,-1.47644 0.97972,-3.37307 0.54635,-1.16417 1.13931,-2.67951 1.3177,-3.36743 0.40903,-1.57741 0.40193,-3.84537 -0.0173,-5.51697 -0.50151,-1.99971 -0.78651,-2.56485 -1.29344,-2.56485 -1.16218,0 -8.56298,1.06556 -9.56321,1.3769 -1.21185,0.37722 -3.53648,1.67685 -4.71439,2.6357 -1.56044,1.27022 -3.10645,3.23116 -3.53484,4.48353 -0.60741,1.77578 -0.85749,3.5494 -0.69686,4.94241 0.0813,0.70505 0.14908,1.67158 0.15063,2.14783 0.007,2.19844 -2.79157,5.5164 -6.79121,8.05121 -0.68775,0.43586 -1.34823,0.87448 -1.46774,0.97469 -0.88032,0.73821 -5.72695,2.76285 -8.49738,3.54972 -4.48823,1.27476 -9.99739,1.84138 -11.77852,1.21142 z m 178.90783,-0.50431 c -2.41969,-0.43901 -4.73775,-1.46191 -6.78269,-2.99303 -1.79459,-1.34367 -3.24537,-2.87556 -6.00905,-6.345 -1.26457,-1.5875 -3.03074,-3.62239 -3.92483,-4.52197 -2.16545,-2.17875 -2.43497,-2.89198 -2.07236,-5.48404 0.3826,-2.73493 -0.38852,-6.11038 -2.06323,-9.03148 -0.98706,-1.72165 -1.20986,-1.89795 -3.32859,-2.63378 -1.45225,-0.50436 -1.89442,-0.4582 -3.01705,0.31498 -1.15392,0.79474 -1.94205,1.72665 -2.68839,3.17884 -0.71649,1.39413 -0.68699,2.30275 0.18287,5.63209 0.75043,2.87222 0.89686,4.89628 0.45977,6.35515 -0.50886,1.69842 -3.66628,4.12314 -6.56971,5.04515 -2.18536,0.69398 -7.10474,1.71744 -14.36275,2.98813 -3.22832,0.5652 -3.4628,0.58082 -5.67651,0.37814 -4.01892,-0.36794 -5.90668,-1.02824 -7.79318,-2.72587 -0.47625,-0.42857 -1.31636,-1.07111 -1.86691,-1.42785 -1.25802,-0.81518 -1.59768,-1.45741 -1.59339,-3.01286 0.008,-3.08441 1.31041,-6.24817 3.4739,-8.44191 1.5331,-1.55455 2.58757,-2.14203 3.82747,-2.13242 1.01834,0.008 1.56484,0.18612 4.49932,1.46736 2.49001,1.08717 3.44154,1.21228 6.7259,0.88435 3.1477,-0.31429 3.04454,-0.27313 2.99025,-1.19317 -0.0416,-0.70459 -0.14458,-0.83576 -1.30576,-1.66269 -1.54512,-1.10037 -4.4145,-3.83822 -5.33076,-5.08641 -0.37237,-0.50727 -0.73461,-0.92179 -0.80497,-0.92115 -0.0704,6.5e-4 -0.13889,0.39405 -0.15227,0.87422 -0.0134,0.48017 -0.0865,0.93425 -0.16247,1.00905 -0.076,0.0748 -0.60627,-0.366 -1.17846,-0.97956 -1.26239,-1.35368 -2.60494,-4.01043 -3.13133,-6.19655 -0.20387,-0.84666 -0.3809,-1.36621 -0.39339,-1.15454 -0.0397,0.67165 -0.3279,0.97426 -0.66305,0.69611 -0.4379,-0.36343 -1.06202,-1.6569 -1.29126,-2.67611 -0.34328,-1.52625 -0.24136,-5.15902 0.20639,-7.35615 0.52791,-2.59049 1.90605,-6.74821 2.96029,-8.93092 0.46357,-0.95978 1.07928,-2.30719 1.36824,-2.99424 0.28897,-0.68705 1.11766,-2.43146 1.84155,-3.87647 3.02883,-6.04612 4.40908,-10.38436 5.07301,-15.9448 0.17059,-1.42875 0.33882,-2.78879 0.37383,-3.02231 0.0554,-0.36918 0.0139,-0.39798 -0.31737,-0.22067 -0.46963,0.25134 -0.70971,-0.051 -0.714,-0.89922 -0.003,-0.56331 -0.0282,-0.57995 -0.7752,-0.50872 -0.82108,0.0783 -1.72926,-0.34593 -1.72926,-0.80778 0,-0.13991 0.17601,-0.41367 0.39114,-0.60835 0.38791,-0.35106 0.38299,-0.35785 -0.59496,-0.82265 -2.63352,-1.25166 -6.12196,-5.99524 -7.39853,-10.06051 l -0.33764,-1.07522 -0.76064,0.26206 c -2.43737,0.83974 -4.51136,0.35897 -6.30784,-1.46224 -0.58331,-0.59133 -1.30021,-1.5233 -1.59313,-2.07103 -0.75233,-1.40684 -1.29386,-3.69627 -1.29386,-5.47011 0,-1.15466 -0.0886,-1.64781 -0.38698,-2.1535 -0.54442,-0.92273 -1.14331,-3.81092 -1.14825,-5.53752 -0.005,-1.68054 0.3831,-3.01179 1.06397,-3.65143 0.35259,-0.33124 0.47126,-0.64294 0.47126,-1.23774 0,-1.87102 1.43933,-4.6829 2.7366,-5.34622 1.42789,-0.73012 3.43562,-0.24331 4.62149,1.12057 0.47276,0.54372 0.72373,0.4488 0.72373,-0.27371 0,-0.86114 0.92336,-2.45743 1.96125,-3.39058 1.78357,-1.60358 4.08466,-1.79762 5.88154,-0.49597 1.65878,1.20161 1.8151,3.17219 0.49703,6.26543 -0.68208,1.6007 -0.73799,1.87021 -0.7385,3.55985 -5.1e-4,1.66025 0.0556,1.94474 0.6117,3.09965 0.8776,1.82269 1.2207,3.25026 1.35005,5.61737 l 0.11358,2.07838 0.82314,0.56634 0.82315,0.56634 0.10654,-0.52806 c 0.0586,-0.29043 0.20265,-1.13419 0.32012,-1.87502 0.32317,-2.038 1.3102,-5.62557 1.91578,-6.96335 1.02846,-2.27194 2.89082,-4.53409 4.67575,-5.67947 l 0.97745,-0.62723 -0.79882,-0.13637 c -0.91389,-0.15601 -1.58642,-0.47193 -1.58642,-0.7452 0,-0.431 1.13733,-1.42918 2.21288,-1.94214 1.30719,-0.62344 1.93799,-0.67415 3.28873,-0.26439 0.51953,0.15761 0.96625,0.28749 0.99271,0.28864 0.0265,10e-4 0.0481,-0.38247 0.0481,-0.85247 0,-1.00321 0.14347,-1.13241 1.06534,-0.95947 0.46878,0.088 1.09989,0.50777 1.98667,1.32156 1.32937,1.21997 2.94057,2.4167 3.25367,2.4167 0.0962,0 0.26502,-0.19762 0.37507,-0.43916 0.18424,-0.40438 0.11194,-0.488 -0.91282,-1.05568 -1.76843,-0.97963 -3.1557,-2.37994 -4.13178,-4.17058 -0.47497,-0.87135 -0.91597,-1.8462 -0.98,-2.16633 -0.10322,-0.51608 -0.22882,-0.60786 -1.10787,-0.8095 -2.62233,-0.60154 -5.831,-4.32142 -6.91825,-8.02049 -0.1583,-0.53855 -0.5232,-1.23127 -0.8109,-1.5394 -2.33937,-2.50543 -4.61408,-7.66721 -4.84717,-10.99924 l -0.11106,-1.587502 h -0.55014 c -1.1593,0 -1.6487,-1.15523 -1.45717,-3.439692 0.13347,-1.592123 0.71054,-3.162627 1.52481,-4.149868 0.38209,-0.463243 0.60366,-0.926089 0.5692,-1.189029 -0.1225,-0.934757 1.21282,-2.493427 2.89335,-3.377309 0.66736,-0.351002 1.14415,-0.435959 2.47655,-0.441289 l 1.65007,-0.0066 -0.0861,-0.90358 c -0.13832,-1.452419 0.0455,-1.886571 0.79894,-1.886571 0.47726,0 0.93877,0.241149 1.82935,0.955889 0.65508,0.525738 1.54567,1.062133 1.97909,1.191987 0.6943,0.20802 0.81701,0.196452 1.03179,-0.09727 0.44454,-0.607954 0.89263,-2.884665 1.04739,-5.321819 0.098,-1.54237 0.27497,-2.704733 0.49344,-3.239921 0.32623,-0.799175 0.32614,-0.864546 -0.002,-1.539394 -0.46977,-0.965906 -0.58428,-3.122161 -0.24316,-4.578891 0.21846,-0.932906 0.22815,-1.275598 0.0462,-1.635606 -0.23585,-0.466779 -0.54945,-1.997462 -0.76927,-3.754755 -0.0681,-0.544628 -0.0236,-1.843491 0.0991,-2.886363 0.46611,-3.964562 2.23611,-7.572646 3.71488,-7.572646 0.35225,0 0.8108,-0.216717 1.22145,-0.577273 0.73665,-0.646782 1.79863,-0.805049 1.79863,-0.268049 0,0.215741 0.10181,0.269922 0.33675,0.179219 1.16667,-0.450413 2.99444,-0.710412 4.50475,-0.6408 1.46125,0.06735 1.85227,0.168341 3.175,0.820021 2.10896,1.039045 3.78082,2.73659 4.84496,4.919401 0.44037,0.903303 0.80067,1.740653 0.80067,1.860778 0,0.124217 0.47717,-0.01979 1.10644,-0.33391 2.23077,-1.113575 5.10782,-1.46172 7.32556,-0.886447 0.69649,0.180669 0.98268,0.195645 0.91932,0.04811 -0.48641,-1.132689 -0.72778,-2.432158 -0.63723,-3.43069 0.13518,-1.490784 0.63844,-2.139899 1.02203,-1.318244 0.24652,0.528027 2.81405,2.627798 5.85024,4.784428 1.42875,1.014851 3.19319,2.412921 3.92098,3.106822 0.9171,0.874402 1.28225,1.128751 1.18968,0.828683 -0.26066,-0.844955 0.63231,-0.504296 1.7963,0.685267 1.58978,1.624713 3.0267,4.55625 3.39231,6.920867 l 0.12728,0.823179 0.70377,-0.148574 c 1.6941,-0.357645 5.42258,0.218688 7.16481,1.107507 0.73673,0.375849 0.83476,0.382165 1.6826,0.108414 1.43395,-0.462991 4.08159,-1.078099 4.64053,-1.078099 0.583,0 0.97417,0.313313 0.97417,0.780273 0,0.25586 0.27028,0.341115 1.37505,0.433735 0.91041,0.07632 1.72778,0.287852 2.41891,0.625991 1.18829,0.581374 1.58069,1.173486 1.25355,1.891499 -0.17923,0.393361 -0.13899,0.526259 0.27679,0.914016 2.73373,2.549495 2.12798,9.381022 -1.27633,14.394091 -1.5176,2.234755 -3.16335,3.783291 -4.97474,4.680868 -1.61798,0.801744 -1.67165,0.813618 -3.67691,0.813618 -1.86471,0 -2.13155,-0.04752 -3.18951,-0.568046 -0.635,-0.312425 -1.19784,-0.593846 -1.25075,-0.625379 -0.0529,-0.03153 -0.0994,0.137497 -0.10329,0.375622 -0.004,0.238125 -0.061,0.692727 -0.12685,1.010227 -0.11674,0.562582 -0.0806,0.595962 1.41967,1.311872 1.86775,0.89127 3.62107,2.474162 3.62107,3.269102 0,0.28505 -0.0866,0.5291 -0.19242,0.54232 -0.10583,0.0132 -0.27902,0.0457 -0.38485,0.0722 -0.10583,0.0265 -0.28417,0.0589 -0.3963,0.0722 -0.11214,0.0132 0.14362,0.43617 0.56834,0.93986 0.42472,0.50369 1.05269,1.52114 1.39549,2.26099 0.56045,1.20957 0.62439,1.52962 0.63431,3.1749 0.0103,1.69851 -0.0353,1.92406 -0.63545,3.14529 -0.57109,1.16212 -0.70048,1.30525 -1.10934,1.22709 -0.37782,-0.0722 -0.48023,0.004 -0.55756,0.41456 -0.60277,3.20109 -1.52886,5.29651 -2.89902,6.55948 -0.89949,0.82912 -1.57594,0.98226 -2.08597,0.47223 -0.16631,-0.16631 -0.30238,-0.52006 -0.30238,-0.78612 0,-0.44703 -0.084,-0.40142 -1.10644,0.60097 -1.4579,1.42928 -2.83376,2.32774 -4.74011,3.09538 -2.24053,0.90221 -8.62083,2.4243 -15.70497,3.74658 -4.35977,0.81377 -3.92116,0.56409 -3.78769,2.15618 0.12623,1.50566 0.41458,1.97337 1.38113,2.24025 0.47728,0.13178 0.93282,0.0597 2.03971,-0.32272 2.46185,-0.85056 6.12525,-0.61399 7.32649,0.47312 0.24897,0.22531 0.29124,0.39909 0.15774,0.64853 -0.14506,0.27105 -0.0946,0.36292 0.24673,0.4492 0.77336,0.1955 2.17514,1.2097 2.90783,2.10385 0.60298,0.73586 1.46594,2.54209 1.46594,3.06831 0,0.20926 -0.84525,0.18194 -1.44677,-0.0468 -0.45021,-0.17118 -0.40544,-0.0757 0.38369,0.8178 0.58249,0.65955 1.49769,2.21694 2.62987,4.47523 2.23015,4.44832 3.83533,6.84069 6.08208,9.06478 0.97896,0.96909 1.77992,1.88472 1.77992,2.03473 0,0.37983 -0.39421,0.73458 -0.81629,0.73458 -0.32632,0 -0.31718,0.065 0.11498,0.8178 1.06744,1.85952 1.53111,5.43625 0.87931,6.78296 -0.36625,0.75672 -1.29621,0.82032 -1.64897,0.11277 -0.22624,-0.45379 -0.2344,-0.44714 -0.35451,0.28864 -0.53159,3.25661 -3.27419,8.04205 -6.98323,12.18474 -1.26033,1.40768 -1.3511,1.55703 -0.94638,1.55703 0.61371,0 2.06302,1.17674 2.59368,2.1059 0.30544,0.53481 0.60412,0.92362 0.66372,0.86401 0.0596,-0.0596 0.41612,-0.0506 0.79226,0.0199 0.98516,0.18482 1.98134,1.25626 2.84216,3.05689 0.8358,1.74826 1.13145,3.03219 1.13145,4.91344 0,3.12344 -1.14441,4.35496 -5.47587,5.89266 l -1.42111,0.5045 1.00428,2.04899 c 0.55236,1.12694 1.14697,2.40697 1.32136,2.84451 0.28006,0.70267 0.40251,0.80649 1.04913,0.88948 0.84099,0.10794 2.30196,-0.51317 3.20384,-1.36207 1.40521,-1.32265 2.63266,-4.93682 2.61983,-7.71395 -0.007,-1.57132 -0.34199,-3.95689 -0.65719,-4.68361 -0.20066,-0.46265 0.28221,-0.4416 1.25509,0.0547 l 0.76737,0.39147 -0.0964,-0.43958 c -0.57457,-2.61937 -0.66475,-6.80405 -0.20362,-9.44837 0.55382,-3.17587 2.11325,-6.78569 3.71985,-8.61089 0.67482,-0.76663 0.83177,-1.13967 1.29402,-3.07563 1.17706,-4.92972 3.01268,-8.49145 5.85507,-11.36087 2.39078,-2.41353 7.35649,-5.40744 9.41554,-5.6768 l 1.0413,-0.13621 -0.97572,1.17244 c -4.24551,5.10151 -3.693,10.50105 2.93791,28.71114 2.16005,5.93204 3.01485,9.35211 3.3425,13.37348 0.7211,8.85013 -2.18719,17.55399 -7.5754,22.6715 -1.12688,1.07026 -2.88413,2.29823 -4.4787,3.12971 l -1.39559,0.72772 0.91453,0.46053 c 1.00636,0.50676 1.97286,1.33686 1.97286,1.69441 0,0.33467 -0.82233,0.60498 -2.88636,0.94878 -1.00542,0.16747 -2.47746,0.50786 -3.27121,0.75643 -0.79375,0.24858 -2.00484,0.51581 -2.69132,0.59387 l -1.24813,0.14191 0.80948,0.3165 c 1.61785,0.63255 1.57011,0.93694 -0.24868,1.58537 -1.47043,0.52423 -4.97115,0.69785 -7.45035,0.3695 -3.94009,-0.52184 -6.66581,-1.54263 -8.57228,-3.21036 -0.55769,-0.48786 -1.03653,-0.85505 -1.06409,-0.81599 -0.0276,0.0391 -0.29373,0.65732 -0.59148,1.3739 -0.98497,2.37043 -2.42436,4.55568 -4.16685,6.32605 l -1.65172,1.67815 1.68513,0.77195 c 0.92682,0.42457 2.83331,1.13394 4.23663,1.57637 2.54991,0.80392 2.55248,0.80429 4.10372,0.58753 0.85371,-0.11929 1.98199,-0.21678 2.50727,-0.21665 0.93048,2.4e-4 0.98638,0.0337 2.17221,1.29911 0.66944,0.71438 1.51051,1.77595 1.86904,2.35905 1.28038,2.08237 2.10095,5.54234 1.75357,7.39404 -0.14741,0.78575 -1.21194,2.08809 -2.06913,2.53136 -0.32357,0.16732 -0.54363,0.438 -0.54363,0.66869 0,0.49767 -0.62261,1.71945 -1.09299,2.14482 -0.20034,0.18116 -0.79404,0.52416 -1.31934,0.76222 -0.79566,0.36058 -1.27631,0.43056 -2.87934,0.41925 -1.05833,-0.007 -2.1593,-0.10904 -2.44659,-0.22571 -0.33464,-0.13589 -0.56407,-0.14462 -0.63844,-0.0243 -0.49473,0.8005 -3.21343,1.30696 -5.13972,0.95748 z m -4.77897,-89.45507 0.42861,-0.83824 -0.44707,-0.50873 c -0.99949,-1.1373 -2.48063,-2.58065 -2.56335,-2.49793 -0.1114,0.1114 0.24232,7.46434 0.41498,8.62643 l 0.12845,0.8645 0.80488,-2.40389 c 0.44268,-1.32214 0.99776,-2.7811 1.2335,-3.24214 z m -57.32439,-34.8932 c -0.002,-0.17896 0.0836,-0.3789 0.18947,-0.44431 0.24354,-0.15051 0.24354,0.10422 0,0.48106 -0.16075,0.24874 -0.18693,0.24367 -0.18947,-0.0367 z"
       id="path1" /></g></svg>
