<?xml version="1.0" encoding="UTF-8"?>
<svg enable-background="new 0 0 1839.4 1749.8" version="1.1" viewBox="0 0 1839.4 1749.8" xml:space="preserve" xmlns="http://www.w3.org/2000/svg">
<style type="text/css">
	.st0{fill:none;}
	.st1{fill:#FFFFFF;stroke:#C4C4C4;stroke-width:0.75;stroke-miterlimit:11.3386;}
</style>

<g transform="translate(257.54 191.97)">
	<path class="st0" d="m472.5 352.2"/>
	<path class="st0" d="m472.5 352.2"/>
	<path class="st1" d="m-32.4 1555.9c-5.8-2.5-4.3-8.2-11.9-7.3-11.5 0.1-28.9 2.1-34.9 4.1-11.9 5-33.3 1.6-48.4-2.9-2.5-0.4-9.9-7.6-12-8.6-4.7-2.3-8.7-5.7-13.5-10-7.6-0.6-19.1 2.1-25.2 3-1-1 3-11.2 6.1-16 3.5-5.2 4.1-7 5.6-16.8 10.3-55.5 55.9-63.8 106.3-53.5 4.6 0.5 4.3 1.3 2.8-9.1-1.9-12.6-4.6-28.4-6.3-40.5-1.5-7.8-3.5-25.3-5.2-33-25.8-166.9-53.1-343.2-79.2-510.6-0.2-9.2-4.2-1.9-10.2-8.6-0.5-2.7-17.2-1.7-19.2-3.1-3.2 0.3-5.2-14.8-7.3-17.4-20.7 0.7-36.7 22.3-30.7 42.8 5.5 12.5 7.5 15.4 5.6 22.4-0.4 0-0.9 1.2-1.2 2.6-0.6 3.3-7.1 10-10.3 10.6-1.2 0.2-2.4 0.7-2.6 1.1-0.5 0.9-10.8 0.8-10.8 0-5.8-2.1-10.5-5-15.2-15.2-21.4-42.2 7-95.1 52.1-103 4.9-0.5 5.7-1.7 10.3-2 3.1-0.2 3.4-0.4 5.1-3.6 2.7-4.1 1.8-18.6 3.9-23.6 5.6-16.6 11.7-41.6 25.1-50.9 3.5-1.6 3.6-1.7 3.2-4.3-4.3-26.2 3.6-14.3 5.1-29.8 0.7-9 1.5-6 2.7-15.3 1.5-8.3 2.3-12.1 3.6-19.1 3.5-21.3 13.2-70.8 19.6-93.8 12-55.3 26-106.8 41.9-160.9 3.7-14.5 8.2-31.5 13.6-45.3 3.5-40 65.2-52.3 103.6-72-1.2-5.5-0.5-9.2 4-13.2-3.3-2.3-17.5-16.4-9.6-14.1 4.8 2 1-2.2-0.8-7.6-8.7-16.7 6.6-4.3 3-13.6-0.9-2.5-3.8-13.3-1.7-15.1 1.1-1.7 1.1-1.9 0-2.8-10.2-7.6-23.6-28.5-30.6-34.5-61.6 37.8-93 89.7-84.2 147.8-12.6 17.9-39.6-94.8-42.6-107.1-38-116.3 67.1-214.9 170.4-250-8.9-6.3-13.5-18.9-4.6-25.4 3.9-3.2 14.3-1.4 19-0.5-6.4-115.5 156.5-139.6 173-23.2 0.5 5.8 0.5 5.8 2.5 5.5 4.3-0.8 37.5-5 54.1-6.8 407-73.1 842.1 144.1 1226.3-48.4-0.1 4-3.1 32-2.4 42.8-7 6.3-19.6 14.7-27 21.2-4.9 4.3-5.3 4.4-22.9 10.4-62.7 21.6-169.8 46.5-230.4 50.9-18.6 1.9-23.1 5.5-22.6 25.8 0 6.7-0.4 23.3-0.8 37.1 0.8 21.4-5.4 28.5 7.2 35.6 74.7 1.4 175.7-17 252-33.1 8.9 4.7 29 14.6 35.6 16.1 9.5 1.9 11.9 5.2 7.9 5.6-382.7 105-806.5-19.7-1201 19.6 18.4 33.8 36.1 63.3 52.7 96.6 1.4 0.5 8.7 17.1 10.9 18.7 0.7 0.6 5.1 9.4 5.1 10.3 6.2 16 25.4 51.7 10.4 67.2-9.1 9.5-14 11-24.6 20-12.9 10.3-18.1 17-32.7 29.6-20 19.4-38.6 32.9-42.8 46.4-2.9 9.3-6.2 20.3-9.2 29.3-3.3 11-6.4 21.8-9.9 33.1-1.3 6-1.7 4.5-2.9 10.7-0.5 2.6-1.2 4.7-1.5 4.7-0.8 0.1-1.5 6.2-2.2 6.4-5.8 24.7-8.3 17.4-7.4 54 1.2 45.9 2.3 160.3 4.5 190.6 1.1 0.6 1 54.8 2.6 53 4.9 13.9 9.6 43.3 10.8 67.3 4.3 0.7-11.5 167.6-20.2 119.2-4-13.7-14.2-45-16.2-53.6-0.5-2.7-0.6-2.8-1.4-1.5-0.8 1.4-1.5 4.8-4.8 22.9-1.8 8.3-2.1 9.7-4 16.2-1.3 4.9 10.8 29.3 17 35.4 2.7 3.3 1.6 4.7-2.2 2.9-3-1.6-3.8-0.7-6.3-2.4-0.9-0.6-1.7-1.1-1.7-0.9 2.8 12.2 12.6 29.9 19.2 42.9-0.5 1.3-4.2 1.6-4.2 0.4 0-0.4-0.6-0.8-1.3-0.8-1.3 0.3-2.6-1.8-3.6-1.3 5.9 15.7 18.4 35.9 28.2 53.4 3.9 7.2 13.9 25.7 10 25.9-0.8 0.6-12.2-11.3-12.7-11.1-0.4 0.4 2.4 9.3 3.8 12.4 1.3 2.6 6 21.8 7 24.3 1.5 3.1 4.7 26.8 6.5 35.1 3 12 6.7 59.6 4.9 61.9-1.4 1.6-2.9 0.5-3.5-2.4-0.7-3.7-1.5-1.8-2.1 5-1.9 19.6-10.6 42-6.8 61.1 1.5 10.1 4.9 21.9 7.6 25.8 6.4 11.7-5.5 2.4-9.7-1.8 0.8 4.7 4.9 14.6 7 17.4 1.6 2.1 1.9 3.2 0.8 3.2-1.5 0-9.6-7.9-13.8-13.4-6.8-7.3-9.3-21.1-15.2-30.2-10.6-15.2-26.1-29.8-33.5-45.3 1.1 13 7.6 26 12.9 39.8 1.2 3.5-2.1 20.4-3.2 24.2-2.6 5.5 20.7 13.8 7.3 18.6-5.2 2.7-5.8 1.8-1.4 6.3 4.7 5.3 17.1 25.3 9.9 30.2-3.3 2.9-10.1 9.1-11.1 12.2 2.6 2.4 4.1 11.4 0.8 14.1-2.7 2.8-2.7 1.4-5.9 4.1-4.6 3.7-8 2-4.6 8.7 0.9 1.7 0.4 11.8 1.8 13.4 1.2 2.3 1.6 12.1 0.5 12.8-1 1-1.4 10.5-2.3 11.7-1 2.2-3.8 7.5-4.5 8.3-2.6 2.4-7.5 15.4-11 19.5-4.3 3.5-10.4 18-14.5 22.6-8.2 14-25.6 49.4-38.5 66.8-0.7 2.8-6.9 8.2-13 11.2-5.1 2.5-5.2 2.5-17.1 2.8-13.1-0.4-12.3 3-22.3 0.9-11.4-2.3-25.7-1.9-38.5-3.7-11.7-0.6-16.4-3.8-25.5-1.6-10.7 3.4-27.3 2.9-34.1-5.3-0.6-1.5-4.9-8.4-7.2-5.9-5.9 2.7-5.9 2.7-6.3 5.7-1 11-22.6 14.7-30.7 10.6zm122.8-108.9c5.1-5.4 7-13.9 11.2-18.4 3-4.8 5.3-8.7 7.7-13.6 3.9-8.2 8.9-15 8.4-25.1-6.7 7-11.3 7.9-22 7.4-0.4 11.8-4.2 26-6.7 37.5-1.1 2.3-1.5 7.4-3 10.3-2.9 5.5-1 6.5 4.4 1.9zm-102.9-27.8c7-10.4 15.2-23.7 9.7-37.5-1.9-7-12.8 7.2-17.8 2.1-5.9-2.9-5.3-3.2-4.7 2.9 1.9 9.3 5.5 34.8 6.3 40.4 0.2 0.7 6.1-6.4 6.5-7.9zm-13.9-67.1c14.3-18.8-13.6-16.5-3-41 14.1-28.5-3.5-50.3-12-76.7-1-0.6-1.6-6.2-2.6-7.1-1.9-4.3-3.8-12.3-5.5-16.4-1.5-1.9-4.4-15.9-3.6-3.4 7.3 44.8 14 90.2 21.7 138.7 1.3 9.5 1.8 12.7 5 5.9zm122.2-38.4c0-2.8 1.3-2.2 1.8-5.2 0.9-4 4.5-8.8 0.3-12-1.7-3.3-4.9-7.3-4.5-12.3-0.6-21.4-4.5-31.3-6.6-51-6.5-45.9-13.9-90.1-18-136.9-0.7-0.8-1.5-20.6-2.2-21.4-0.6-0.7-1-4.8-2-16.3-0.7-7.2-2.3-7.6-1.8-14.2-8.1 8.5-21 15.2-30.2 21-2.7 0.2-2.3 6-1.4 7.3 12.9 50.3 22.8 110.9 34.5 160.2 0.9 0.3 0.5 8.9 1.5 9.2 0.4 0.4 0.8 1.4 0.8 2.1 0.1 2 4 8.3 3.7 10.5-0.2 2.7 4 10.7 6.2 13.4 1.2 1.2 0.4 2.3 2.5 4.4 2.9 3.7 1.4 2.7 5.3 7.4 7.6 6.8 7.5 26.8 6.4 32.7-1.3 2.7 4.1 7.7 3.7 1.1zm-149.5-114c-0.2-0.6-0.4-0.4-0.5 0.5 0 2 1.1 0.5 0.5-0.5zm-35-238c5.9-20.2 12-42 19.5-61.9 18-45 36.6-93.2 60.1-136.5 2.5-4.2 3-6.2 2.2-10.8-6.1-55.9-11.9-115.7-9.4-180.7 0.5-9.4 0-13.6-1.6-5.9-2.7 11.3-6.6 24.6-9.3 35.8-8.6 30.5-14.7 61.3-24.8 90.8-2.7 3.7 0.2 9.1 0.8 12.9 0 3.7-7.1 16.9-12.9 24.2-2.3 2.9-3.5 7-2.2 7.8 1 0.6 1.1 4.7 0.2 5.2-1.8 16.7-3.8 37.3-16 50.3 0 11.1 3.7 12.7 3.5 24.9 0.4 9.9-1.7 11.5-5.5 19.4-6.4 13.8-6.6 13.2-13.3 20.1-2 0.1-10.5-1.7-9.4 0.7 0.7 10.8 3.1 21.2 4.5 30.5 3.6 25.2 8 53.4 12.2 78.4 0.3-1.3 0.7-4.4 1.4-5.2zm1.9-173.1c10.3-13.2 14.1-34.3 13.9-52.7-19.4-19.6-44.8-28.9-73.4-24.2-7.5 1.5-6.4 3.7-8.5 7.8-3.3 4-25.9 54.8-14 47.3 17.6-5.4 44.1 2.2 63 12 16.5 6.9 14.4 14.6 19 9.8zm263.7-411c20.7-12.6 19-12.2 31.5-23.8-0.8-0.1-3.2 3.1-4.1 3-3 1.9-4.3 4.3-8.8 4.6 1-7.6-2.8-23.1-8.1-18.6-2.2 1.8-2.6 0.8-5 3.5-2.4 2.5-3.8 2.7-6 1.1-6.6-5.6-15.9 12.3-20.3 10.9-3.5-2.7 2.8 5.5 3 6.1 3.6 5.5 8.2 9.8 12 12.6 3.1 3 2.2 2.6 5.8 0.6zm-25-81.5c5.5-2.8 4.4-3.3 6.6-6 27.4-46.5-2.4-43.2-35.4-23.6 0.1 7-1.7 16.5-3.5 21.5 8.1 5.1 21.5 12.5 32.3 8.1zm-41.2-10.6c4.7-0.8 6.2-11.8 6.4-17.8-4-2.2-11.6-5.6-14.3-3-4.2 2.9-8.4 7.5-8.4 9.2 0.2 9.8 7.2 14.7 16.3 11.6zm-22.2-2.1c-5.3-24.3 16.4-14.1-4.8-32-13.3-9.9-16.3-15.5-23.1-1.9-8.4 22.9 3.7 40.3 27.9 33.9zm-182.3-42.4c14.3-49.6 44.1-43.8 16.1-82.5-14.5-21.3-18-32.2-24.4-29.5-16.8 29.7-7.2 91 3.9 126.9 1.3-4.7 2.4-8.6 4.4-14.9zm338.3 7.2c4.8-3.6 35.7-17.2 35.8-21.1 0.7-4.4 2.6-6 2.2-12.2v-6c-8.3-13.8-16-27.9-19.9-38.4-2.7-7.5-3-1.6-4.5 0.9-1.4 3.4 4.7-2 1.2 5.9-2 4-31.3 32-27.9 29.7 1-1.2 4-0.6 4.9-1.7 0.9-1.5 3.3-0.8 3.8 1 0.4 1.6-3.1 13.3-5.1 17.3-0.8 1.5-0.9 1.5 4.5 0 1.5-0.4 1.7-0.2 1.7 2.1-0.5 9.7-13.2 12.7-11.4 19 0.9 12.5 4.8 8.8 14.7 3.5zm-278.9-70.1 2.1-1.7c-0.9-1.8-2.6-5.3-3.4-7.1-1.1 1.1-4.9 4.6-4.9 5.4s3.1 5.1 3.7 5.1c0.1 0 1.3-0.7 2.5-1.7zm18.2-12.7c1.4-0.8 2.5-1.7 2.5-2-0.1-0.8-3.3-7.2-4.1-9.1-2.3 1.9-7 5.7-9.3 7.6 5.2 7.4 3.1 8.6 10.9 3.5zm-24.3-4.5c7.2-4.9 22.9-17.4 29.8-22.4-1.8-4.5-17.6-38.5-8.2-32.5 1.9 3 1.5-26.4 2.5-27.1 1.3-5.1 5.2-14.8 6.2-15.2 0.6-0.2 1.9 0.4 2.9 1.3 2.1 2 2.3 1.8 3-5.3 1.6-11.6 0.2-9.9 8.2-6.3 5 2.6 5.1 2.6 4.7 0.9-1.1-4.3-1.4-13.2-0.6-17.7 2.6-17.8 22.4-23.8 37.1-21.1 5.5 1.8 12.8 2.2 19.4 6.4 3.3 1.8 6.5 2 6.5 0.4 7-2.9 15.9-6.8 23.1-8.2 2.6-0.5 5-1.3 5.3-1.8 0.7-1.8-6.8-30.5-8.4-37.3-52.8 10-106.7 38-144.1 76.2-12.7 12.7-19 20.1-27.1 32.1-9.2 13.5-6.8 19.6 3.3 35.1 9.1 13.6 19.8 32.5 27.5 42.1 2.3 2.5 4.6 2.6 8.9 0.4zm39.2-5c0.4-0.6-3.8-9-4.5-9-0.1 0-0.8 0.2-1.4 0.5-2.5-0.2 4.9 12.4 5.9 8.5zm1134.4-51.6c0-0.7 1-5.4 1.3-6.9h-15.3c-14.4 0-15.3 0.1-15.3 1.4 0 1.4-0.6 4.4-0.9 6.1 5.4-0.1 28.9 0.1 30.2-0.6zm37.2-0.5c0.5-0.4 0.4-5.7 0.3-7.5-4.9 0.2-25.5 0.9-26.8 1.3-0.3 0.5-1.3 6-1.6 7.4 5.1-0.2 26.9-1 28.1-1.2zm-76.2-3.4v-3.6c-10.8-0.5-24.1-1.1-33.6-1l-0.5 2.5c-1 5.4-1.1 5.4 20.4 5.6l13.7 0.1v-3.6zm-43.5 1.1c0-1.7 0.5-4.4 0.9-6.2-11.1-0.5-30-1.7-39.6-2.2-0.1 0.4-0.9 6.3-1.1 7.8 7.9 0.4 22.3 1.1 28.5 1.6 11.3 1 11.3 1.1 11.3-1zm176.2 0.3c15.8-1.7 13.7 2.4 15.2-8.2-7.6-0.2-22 1-31.7 1.7-0.5 11 0.3 6.5 16.5 6.5zm39.8-3c6.8-0.6 12.1-1.1 17.7-1.6 0-1.9-0.1-5.7-0.1-7.5-13.5 1.1-35.3 3.1-34.5 3.4-0.4 0.6 0.4 5.8 0.6 7.2 5.1-0.5 9.6-0.9 16.3-1.5zm-265.5-0.6c0-1.4 0.6-4.3 0.9-5.9-8-0.1-24.5-2.8-31.6-2-0.8 0.8-1.4 5.3-1.7 6.9 4.9-0.3 31.7 4.8 32.4 1zm-44.3-6.1v-3.7c-8.2-0.9-24.5-3-32.6-3.7-0.3 0.5-0.8 6.5-0.9 8.1 10.2 1 23.3 2.6 33.5 3.1v-3.8zm348.4 3c4.1-0.5 20.9-2.6 24.2-3 0.2-0.3 0.2-6.2 0.2-7.5-7.8 1.1-28.7 3.6-34.2 3.8-0.8 0-1 1-1 3.8 0 3.7 0 3.7 2.4 3.7 1.3-0.1 5.1-0.4 8.4-0.8zm-393.1-4c0.3-1 0.9-5.5 1.2-7.2-8.9-0.9-20.7-2.4-29.6-2.7-0.2 1.5-0.9 7.2-0.7 7.7 3.5 0.3 28.3 4.5 29.1 2.2zm436.6-1.6c4.1-0.6 11.2-1.6 15.8-2.2 11-1.5 10.9-1.4 10.9-5.4 0-3.8 0.2-3.7-7.5-2.5-10.8 1.6-21.9 3.2-29.2 3.9 0.5 6.8-3.6 8.5 10 6.2zm-1440.4-5.8c3.4-5.3 3.7-6.3 2.8-7.2-0.8-3.3-8.2 13.1-8 12.9 0 1.6 1.8-0.4 5.2-5.7zm962.6 0.4c0.3-1.9 0.3-3.7 0-3.9-0.9-0.9-21.7-2.1-22.3-1.3-0.6 0.9-0.6 5.4-0.6 7 8.2 0.6 14.7 1.6 22.3 1.6l0.6-3.4zm287.9-0.6c16.8-7.6 7.6-27 9.1-53l-0.4-30.4c-1.8-4.5-4.7-9.4-8.7-11.7-82.8 2.5-181.9-7.4-260.5-22.7-5.1-0.3-17.3-3.4-22.1-1.9-19.4 6.8-11.8 12.5-19.6 54.8-1.7 13-3.5 26.1-5.2 38 2.6 4.7 5.6 8.2 11.4 10.3 81.6 10 207.3 22.6 296 16.6zm236-1.2c4.7-0.8 14.3-2.5 19.9-3.5-0.1-1.3-0.4-6.4-0.7-6.8-4.4 0.4-14.9 2.4-20.9 3.3-7.8 1.2-8.1 1.3-8.1 3.2 0 8.3 4.1 4.1 9.8 3.8zm-584.3-3.3 0.2-4c-5.3-0.5-19.6-1.7-22.7-2-3-0.3-3.6 0.6-3.6 5.3 0 2.9 0.8 3.2 7.7 3.4 4.5 0 13.4 0.9 17.1 1.3 0.9 0.1 1.1-0.8 1.3-4zm-474.5 0.6 9.6-0.5v-10.6c-5.6 0.3-18.2 1-22.1 1.1-8.3-0.9-4.9 5.9-4.7 11.5 5.2-0.8 9.4-1.1 17.2-1.5zm437.4-2.2c0.3-1.9 0.7-3.9 0.9-4.4 0.4-1-2.8-1.3-22-2.3l-9.2-0.5v8.3c5.8 0.6 23.8 1.7 29.4 2.2 0.2 0.1 0.6-1.4 0.9-3.3zm-466.1-2.6c0-3.7-0.1-3.7-2.2-3.7s-2.2 0.1-1.5 1.9c1.9 3.3 4.2 9.2 3.7 1.8zm70.3 2.5 5.4-0.4v-10.4c-4.6 0.2-24.1 1-25.2 1.1-0.1 0.5-0.7 9.1-0.8 11.1 5.9-0.3 15.5-0.9 20.6-1.4zm350.6-3.9-0.2-4.4c-7.6-0.4-22.7-0.8-27.6-1.9v9.9c8.6 0.2 21.5 0.4 28.1 0.8l-0.3-4.4zm-314.2 2.5 14.1-0.5c0-3.3 0-7.7 0.9-10.3-10.2-0.1-22.8 0-31.7 1 0 15.8-2 9.5 16.7 9.8zm1019.4-0.7c5.2-1 16-3.1 20.6-4 4.1 0.1 2-5.4 2-7.3-3.1 0.4-12.9 2.4-17 3.2-5.3 2-18.4 0.2-15.4 8.4 0.5 3.3 6.1-0.2 9.8-0.3zm-743.2-1.7c1-6.5 1.5-5.9-4.7-6.5-5.4-0.5-16.3-0.5-22.7-0.5 0.1 2.1 0.3 6.5 0.4 8.6 5.3 0.2 22.6 0.8 24.9 1 1.4 0.2 1.7-0.3 2.1-2.6zm-218.9 0.7c1.2-0.4 0.2-7.9 0-9.9h-31.5c0.3 2.2 1 7.8 1 9.2 0 1.2 1.2 1.3 14.8 1.3 8.2 0 15.2-0.2 15.7-0.6zm176.1-3.6c0.3-2.3 0.3-4.4 0-4.7s-30.3-1.5-31.5-1.2c-0.1 0.4-0.7 7.6-0.9 9.3 9.8 0.4 21.6 0.6 31.9 0.8l0.5-4.2zm-43.1-1.4v-4.9c-8.5 0-22.2 0.2-28.5-1v9.9c5.4 0.1 25.7 0.4 27.6 0.6 0.6 0.2 0.9-1.1 0.9-4.6zm-75-0.7v-4.9h-24.8c0.7 3.1 1.3 6.8 1.2 9.8h23.6v-4.9zm36 1.1c0-2 0.2-4.2 0.5-4.9 2.8-2.1-23.9-0.8-28.1-1.2 0.2 2 0.8 7.7 1.1 8.8-0.6 1.4 22.2 0.8 26.6 0.9v-3.6zm-641.4-7c2.1-3.5 12-11.5 8.4-13-0.9-0.8-1.7-1.1-2.1-0.7-11.8 13.8-13.1 15.6-12.5 17.5 1.3 3.9 2.7-0.4 6.2-3.8zm296.3-6.4c12.4-11 36.8-22.9 51.4-20.4 1.2 1.2 3.3 1.3 2.3-1.7-1.4-5-12.3-26.2-16.3-32.9-15.2-13.4-65.1 2-67.8 22.9 0.3 2.6 2.4 5.8 2.7 7.9 0 1.4 3 4.6 3 6-0.1 1.5 4.6 6.1 4.5 7.6 0.3 2.1 1.9 2.1 2.8 4.6 11.9 20.6 7.5 16.4 17.4 6zm96.5 5.1c48.5-2.9 98.6-4.6 142.6-6.3 15.7-4.3 10.1-16.1 10-39.5-0.7-9.5-1.6-31.3-2.7-65.5-0.3-12.2-1.2-12.1-6.6-17.7-57.2-0.6-146.4 6.1-218.7 15.1 4.9 7.4 20.3 11.4 21 18.9 3 5.6 3.5 20.5 2.4 28.2-0.7 3.1-0.6 3.6 2 7.9 4.3 7.8 7.3 16.9 11.4 24.6 1.9 4.5 2.6 3.1 3.7 7.5 0.4 1.7 1.1 3.8 1.6 4.6 1.4 4-3.1 0.7 3.7 8.5 1.7 3.5 6.9 9.4 8.3 12.7 2.6 4.3 11.5 0.7 21.3 1zm484.4-0.1c15.9-5 13.6-34.1 17-48.2 2.6-28.9 18.1-58.4-15.6-61.3-104.6-13.4-177.7-18.6-289.5-20.4-2.4 2.3-8.4 7.6-8.8 9.9-1.3 4.9-0.2 74.6 0.6 99 2.6 5.4 6.9 10.5 12.9 12.6 82.5 0.6 209.1 6.5 283.4 8.4zm-855-22.2c4-3.8 7.8-7.1 11.5-10.3-0.8-1.2-2.5-3.6-3.3-4.8-3.1 3.2-14.9 14.6-15.3 16.5 1.6 5 2.8 2.5 7.1-1.4zm27.5-22.7c7.9-5.8 7.8-4.4 3.2-11.1-4.5 4-16.6 9.7-12 13.3 2.7 4.4 2.9 1.2 8.8-2.2zm195.3-10.7c-12.7-21.2 24.4-20.1-27.9-22.7-0.1 0.1 2.3 10.9 3.6 15.6 0.4 1.6 1.1 2.6 1.5 2.4 1-0.7 1.5 2.7 1.8 2.7 3.8-0.2 13.7-8 16.2-8.3 2.3 4.4-0.8 12.3-3.7 16.5h11.9l-3.4-6.2zm-163-9.6 9.5-5.2c-0.5-1.4-2.2-6.6-3.1-6.7-2.1 0-24.8 13.8-24.3 14.8 0.3 0.7 2.5 4.2 3.2 5.4 4.2-2.5 7.3-4.3 14.7-8.3zm26.7-12.9c4.2-1.9 17-6.4 20.3-7.6 0.2-0.6-1.2-8.8-1.5-10.7-6.7 2-27.2 11.8-28.3 13.4 0 0.7 3.1 7.5 3.5 7.5 0-0.1 2.7-1.3 6-2.6zm38.3-13c6.5-1.6 7.1-2.2 2.6-2.9-4.7-0.7-6-2.2-10.5-2.7 2.1 6.7-0.2 7.9 7.9 5.6zm1060.7-1.6c0-2 0.5-5.5 0.9-7.7h-26.4v9.7h25.5v-2zm27.4 1.3h9.3v-10.1c-6.7 0.2-18.6 0.2-23.3 1.2v9.9c3.9-0.9 6.9-0.9 14-1zm-66.2-4.3c0.2-2.4 0.3-4.4 0.1-4.6s-26.8-1.5-27-1.3c0 0.4 0.4 7.6 0.5 9.3 5.2 0.7 18.5 0.7 25.9 0.8l0.5-4.2zm-40-0.4c-0.2-8.2 4.7-5.4-12.5-7.2-15.9-0.4-13.3-4.2-14.2 8.5 8.1 0.7 20.3 1.8 26.6 1.9l0.1-3.2zm180.8-0.2c6-0.6 10.9-1.2 10.9-1.3 0-0.3-0.1-11.6-2-10.3-5.1 0-28.1 3.2-28.6 4-0.8 1.5-0.5 6.1-1.1 7.8-1.7 3.4 15.6-0.2 20.8-0.2zm-220.5-4.8c0-3.1-0.3-4.5-0.9-4.5-2.8-0.2-21.4-2.3-25.8-3.1 0.2 1.7 0.6 8.4 0.9 8.9 0.2 0.3 20.9 2.9 23.8 3.1 1.9 0.1 2 0 2-4.4zm260.7-0.5c7-1.1 12.7-2 12.8-2.1 0-0.3 0-12.7-2.3-10.6-2.2 0.5-25.4 4.1-26.6 4.1-0.7 0-0.9 0.7-0.6 2.1 1.5 12.7 2 7.8 16.7 6.5zm-300.9-4.1c0.3-2.1 0.3-4 0.1-4.2-0.5-0.5-21.6-3.9-24.2-3.9-1.4 0-1.7 0.5-1.9 3.9-0.2 2.2-0.2 4.1-0.1 4.2 0.3 0.4 21.1 3.7 23.6 3.8 1.9 0 2.1-0.3 2.5-3.8zm340.5-2.6c14.5-2.7 11.7-1.2 10-13.2-4.6 0.9-18.1 3.5-25.1 4.8 4.2 11.2-3.3 11.8 15.1 8.4zm-380.3-0.9c0.4-1.3 1-5.5 1.3-7.5-5.4-0.3-18.6-3.9-23.6-4.7-1.2 0-2.7 4.2-2.7 7.7 0 2.4-0.2 2.3 12.4 4 6.8 0.3 11.1 3.4 12.6 0.5zm-38.3-8.5c0.3-2.5 0.3-4.8 0.1-5-0.4-0.4-21.2-3.9-23.5-3.9-3-0.2-1.3 7.3-2.6 9.4 4.7 0.7 23.6 3.7 25 3.9 0.3 0.1 0.8-1.9 1-4.4zm459 0.8c8.8-2.7 15.1-1.9 17.1-5.2 0-2.4-1.7-9.8-2.3-9.8-0.5 0-28.8 7-29.4 6.7-3.4-1.7-1.1 11.1 0.6 11.3 0.6 0 6.8-1.3 14-3zm-523.4-8.4c0.4-1.6 0.7-5.1 0.9-7.1-8.1-1-20.4-2.6-26.7-3.4-0.1 1.8-0.2 6.8-0.3 7.9 0 0.6 1.4 1.2 3.7 1.5 3.4 0.2 24.1 4.9 22.4 1.1zm569.3-3.2c7.4-2 13.6-3.7 13.7-3.7 0.1-0.1-0.5-2.6-1.3-5.7-0.9-3.3-1.8-5.5-2.3-5.4-2.3 0.6-27.3 7.7-27.4 7.9-0.5 0.6 2.4 11 3.1 10.8 0.3-0.2 6.8-1.9 14.2-3.9zm-1160.2 1.9c2.8 1.3 1.5-7.8 1.8-10.2-10.3 0.4-5.9 2.2-8.3 9-2.4 2.8 5.3 1.1 6.5 1.2zm34.4-4.2c6.6-0.7 12.1-1.3 12.2-1.4 0.6-0.5-1.7-9.4-2.4-9.4-1.7 0-30.1 3.2-30.3 3.4-0.3 0.6 0.6 7.7 0.8 9.6 5.9-0.8 10.2-1.3 19.7-2.2zm-11.5-3.4c4.7-7.5 31.3 0.5-0.3 1.8l0.3-1.8zm530.3 1.4c0.8-2.4 1-4.1 0.5-4.4-0.6-0.5-29.4-3.8-30-4.1-1.8-1.6-2.3 9.2-1.9 9.2 0.5 0.5 22.2 3 27.1 3.1 3 0.1 3 0.1 4.3-3.8zm-43.7-3.9c0.5-1.8 1-3.8 1.3-4.5 0.6-1.6-0.3-1.7-16.2-3.1-7.2-0.6-14.7-1.3-16.7-1.6l-3.6-0.4c0.1 1.9-0.4 10.1 0.9 9.9 2 0.1 28.2 2.9 30.3 2.9 3.1 0.1 3.1 0.1 4-3.2zm-431-0.1c1.8-2.2 4.3-2.4 4.9-0.3 0.4 1.4 0.8 1.5 6.5 1.1 9.2-0.7 9.2-0.7 9.7-4 0.6-5.9 0.1-8.2-3.7-6.8-1.4-0.1-3.9 5.4-5.4 5.2-1.5 0-3.9-2.2-3.9-3.6 0-2-7.8 0.3-9.1-0.2-3.8-1.1-4.6 11.2-9.6 1.7 0-0.7-0.4-0.9-1.2-0.6-1.2 0.5-4.2 0.5-5.8 0.5 1.2 6.7-0.5 11.1 9.5 9.4 5.8-0.5 6.9-0.8 8.1-2.4zm1123-3.6 12.7-4c-0.1-2 1.2-14.5-0.7-12.7 0.4 0.3-32.5 9.6-29.3 10.8 4.1 12.9 1.1 10.6 17.3 5.9zm-738.9-1.3c0.3-2.5 0.2-4.8-0.1-5.2-0.8-0.7-25.4-2.6-26.8-2-1.6 0-1.1 7.9-1.2 10 5.6 0.4 22.3 1.4 25.2 1.6 2.4 0.2 2.4 0.2 2.9-4.4zm-333.7 2.6c11.9-0.6 8.4-1.1 8-9.6 0.1-0.9-0.1-1.6-0.5-1.6-7.1 0.2-20.7 1.4-22 2-1.7 0.6-1.8 1-1.3 4.5 0.4 9.7 8.1 4.2 15.8 4.7zm-8.2-2.6c-3.6-3.7 16.2-4.1 10.5-0.2-1.7 1.2-9.8 1.4-10.5 0.2zm56.4 0.4 8.4-0.4c-0.1-2.2 0.3-10.8-1.2-10.9-1-0.4-31.8 0.9-32.1 1.4-0.2 0.6 0.4 9 0.5 11.1 7.5-0.4 16.8-0.9 24.4-1.2zm244.2-2.3c1-7.3 1.9-6.7-10.2-7.3-9.1-0.4-15.3-0.8-22.5-1.4 0.2 2 1 10 1.3 10.6 1.7 0.5 23.8 1.7 30.9 1.7l0.5-3.6zm-45.4-3.5 0.1-5.5c-9.2-0.6-19.8-1.1-28.5-1 0.1 3.3-0.3 7.2-0.9 10.5 7.7 0 22.5 0.6 28.4 1.4 0.5 0 0.9-1.9 0.9-5.4zm-150.1 3.7c0.1-0.5-0.5-9-0.7-11-7.9-0.1-18.2 0.4-26.9 1 0.5 3.6 1.1 8 1.7 11.2 4.8-0.2 24.7-1 25.9-1.2zm68-4.4c0.4-3.3 0.5-5 0.5-7.3h-31.5v11.2h30.5l0.5-3.9zm41.2 0c0.8-8.8 4.3-5.4-14.1-6.9-18.9 0.1-15.8-4.3-15.2 10.8h28.9l0.4-3.9zm909.9-7.6 7.5-2.7c0-3.3 0.1-10 0.1-13.3-6.1 2.4-18.7 7-26.8 10 0.6 3.9 1.5 8.4 2.5 12.3 5.3-2.1 10.3-4 16.7-6.3zm-1182.8 1499.2c-36.2-27.2 1022.8-3.2 1217.4-11 46.3 33.7-1030.6 3.8-1214.9 13.5l-2.5-2.5zm5.1-27.4c-13.6-4.2-14.2-20.1-1.5-27.4h1213c43.5 49.5-72.6 20.9-606.7 28.1-331.3-0.1-603.4-0.4-604.8-0.7zm206.3-57.9c-22.7-58.4-49.4-119.2-70.8-177.6h68.3c0.2 1.1 0.8 5.1 1.6 5.2 1.1 0.7 1.6 6.1 2.6 7.1 1.3 1.9 1.8 6.4 3 8.2 1.5 4.1 3.2 8.2 4.6 12.6 0.3 1.5 0.8 2.8 1.1 2.8 0.7-0.2 2.4 8.5 3.2 8.2 5.4 14.4 11.2 29.1 16.1 43.9 11.5-23.7 18.2-38.8 30.5-64.9 4.3-7.8 14.6-34.8 16.3-29.7 13.5 28.7 28.5 63.6 41.3 93.7 3.7-6.6 12.3-27.9 14.2-32.1 6-14.1 14.8-33.2 18.7-46.2 0.6-7.4 6.5-12.5 12.3-8.3 3.3 4.2-1 13.2-2.8 17.8-2 3.8-3.6 11.2-5.7 14.6-2.6 5.4-6.1 15.9-8.2 19.5-1.9 2.6-4.6 13.5-5.5 13.5-9.9 24.6-21.1 49.9-30.7 75-5.5 10.8-9.6 24.6-15 35.3 0.1 4-4.1 0.1-4.5-1.7-13.8-31.9-28.4-63.9-42.5-94.9-14.9 32.6-26.1 55.9-41.6 89.8-4.5 9.7-4.9 10.1-6.5 8.2zm467.4-2.9c-38.3-30.5-87.8-68.8-123-96.6-0.2 22.8-0.6 68.6-0.8 91.3-4.4 7.1-15.4 3.6-12.7-6.1 0.8 3.2 0.9-183.7 2.5-170.4 7.4 3.5 26.3 20.6 34.6 26.2 5 4.7 28.5 22 36.8 29.2 19.4 15.4 37.5 29.9 56.2 44.4 1.2 7.3 0.6-94 0.7-90.3 17.2-11.1 11.1-2.8 12.1 86.8-0.1 48.4-0.3 88.3-0.5 88.6-0.6 1.1-1.2 0.8-5.9-3.1zm468.8-1.2c-4.9-1.6-12.5-2.7-17.2-4.7-4.1-1.3-23-9.6-22.4-17.1-0.9-5.9 6.7-8.8 10.2-5.8 1.4 2 2.8 1.2 5.7 4.1 2 1.6 4 3 4.4 3 0.5 0 0.8 0.3 0.8 0.8s0.4 0.8 0.8 0.8c5.5 1.4 11.9 6 18 6.6 30.5 9.1 69.3-8.8 26.9-39.5-22.5-17.3-57.1-44.1-60.2-61.9-13-46.3 31.6-67.5 70.6-60.3 9 0.9 33.3 7.7 32.3 18.3 0.3 6.3-8.5 5.6-12.3 2.4-8.8-10.8-61.9-19.8-48.3 6.2 20.8 25.4 56.6 42.4 71 74.9 16 52.9-33.1 79.1-80.3 72.2zm-1111.1-82.4v-80.6c-12.2 0-19.5 0.2-34.4 1.9-8.1 1.8-13.5-7.2-5-10.9-4.5-2.7 136-1.1 140.5-1.6 2.3 0.2 2.8 8.3 0.5 8.3-0.5 0-1.4 0.5-1.9 1.1 1.1 1.6-30 1.3-36.4 1.5-0.1 40.1-0.3 120.8-0.4 160.9h-63l0.1-80.6zm359.6 79.7c-0.5-7.9 0-139.5 0-170.5l55.7-0.2c64-0.2 59.3-0.7 59.4 6.3 1.5 6.9-9 6.9-11.7 5.5-1.4-1.1-32.7-1.5-40-1.7v34.7c9.2 0.3 40-1 40.6 1.6 3.5 2.5 2.8 8.9-1 8.9-0.7 0-1.4 0.3-1.4 0.8 0.3 1-10.9 1-10.5 0 0-1.1-22.8-0.3-27.4-0.4-0.1 26.1-0.3 78.6-0.4 104.6 7.1-0.1 39.2 0.3 40.1-0.8 0.8-1.2 6.8-0.9 9.3 0.6 2 1.2 2.3 1.7 2.3 4.8-2.2 10.2-1.4 4.8-59 6.5-44.5 0.2-55.7 0.1-56-0.7zm352.6 0.4c-0.7-7.1-0.5-131.9-0.5-161-5.8 0.2-28.5 0.8-30.3 1.8-1 1-9.4 0.9-9.4 0 0-0.4-0.5-0.8-1.1-0.8-1.3 0-2.1-2.7-1.8-5.7-0.2-2.4 4.1-4.2 6.2-5.4 21.6 0.1 144.5-1 138.7 0.6 1.8 1.5 1.5 5.7-0.5 7.7-1.6 1.6-2.1 1.7-20.2 1.9 0 0-18.6 0.2-18.6 0.2v161.2c-11.4 0-59.5 0.2-62.5-0.5zm124.4-0.4c-0.5-7.9 0-139.5 0-170.4 15.6-0.1 47-0.3 62.6-0.4v171.8c-9.9-0.3-64.9 0.5-62.6-1zm99.9 0.4c-0.7-7.6-0.5-140.3-0.5-171.3 19.8 0.6 119.8-1.4 113.5 1.6 4.4 3.7 1.3 12.9-6 10.9-17.4-2-28.4-1.9-44.5-1.9v34.5c13.1 0.9 58.8-4.5 39.2 11.1-2 1.1-10.1 1.2-11.2 0.2-1-1.1-22.5-0.4-27.7-0.4-0.1 26.1-0.3 78.6-0.4 104.7 9.6-0.2 39.1-0.5 43.8-1.2 9.5-1.8 11.6 7.1 4.9 12-20.1 0-106.1 0.5-111.1-0.2zm-465.5-195c-4-3 1.6-8 4.4-14.8-2.7-1.3-8.7-4.7-5.6-8.3 1.5-3.9 10.6 0.4 11.2-4.7 15.1-36.1 24.3-59.4 38-92.1 4.5-11 4.8-11.3 6.8-7.5 3.3 5.2 14.3 30.1 14.3 31.4 0.4 1.8 2.4 1.7 2.6 4.3 0.3 2.3 3 6.1 3.4 8-0.1 1.2 3.9 5.7 3.8 6.9 5.7 14.3 14.1 30.7 20.8 45.7 2.7 6.4 15.4 31 13.5 31.1-0.4 1.1-3.1 1.2-22.8 1.2-12.3 0-22.7-0.3-23.3-0.6-1.3-1-6.2-12-7.7-15.2-11.1 0.1-33.4 0.3-44.5 0.4-1.2 2.9-3.8 6.7-4.2 9.7-1.1 3.8-7.7 9.6-10.7 4.5zm54.7-23.4c-5.1-13-13-28.5-18.9-41.6-6 8.9-7.6 19.4-12.6 29.2-0.8 3.4-6.5 10.3-3.2 12.1 1.6 1.1 34.7 1.5 34.7 0.3zm521.2 23c-28.8-22.7-60.2-47.3-89.5-70.3-0.8 13.1 0.7 69.8-2.2 67.9-2.9 2.9-9.4-1.1-8.3-4.8 0.8 1 1-126.1 1.5-125.2 2.4-1.8 18.8 14.1 22 15.6 13.8 10.7 32.9 26.6 49.4 39 0.7-0.1 9.9 8.5 10.7 8.2 0.4 0.4 10.1 8.9 11.7 9 0.3 0 0.4-14.9 0.3-33.1-0.1-21.8 0.1-33.3 0.6-33.8 1.4-1.4 6.3-1.1 7.4 0.5 0.9 1.2 1 12 1 65-1.2 61.9 2.9 67.2-4.6 62zm-615.1-2.9c-10.7-4.3-19.8-22.9-23.7-33.7-3-0.2-10.5 0.8-11-1.8-4.2-5.9 6.1-8.9 8.2-7.3 6.6 1.9 8.5 0.3 13.7-0.9 19.7-3.5 32.2-28.9 24.7-47.7-7.7-20.9-34.2-25.8-52.7-23.9-0.7 0.8-0.9 15.7-1.1 58.8l-0.2 57.7h-45.8v-124.5c35.7 2.3 74.3-8.6 98.1 14.2 24.4 22.9 11.9 63.6-19.2 72.9-7.8 0.2-1.2 9.5 0.2 13.1 3.8 9.3 14.8 21 25.8 16.9 6.8-3.5 9 4.2 5.5 7.5-2.8 1.7-19.9 1.6-22.5-1.3zm183.2 0.6c-16.9-43.7-34.2-82.3-49.1-123.7 2.3-0.9 38.5-0.6 47.2-0.7 6.5 17.7 17.6 45.1 23.2 62.3 8-16 22.7-48.4 30.5-64.4 1.3-2.9 2.4-3.1 3.5-0.8 1.9 3.8 6.2 13.5 6.2 13.8 1.6 4.9 17.2 38.5 21 48.1 0.9 2.2 1 2.3 1.9 1.1 9-18.8 19.6-46.9 24.5-59.1 5.7-5.4 9.1 1.5 6.6 7-0.4 0.7-4.1 9.8-8.2 20.1-16.7 39.7-23.9 61.8-41 97.6-2.6-3.6-25.9-56.1-31.8-69-9.2 18.6-15.8 34-24.4 52.2-2.1 3.2-7.9 21.9-10.1 15.5zm-447.7-1.2c-1.8-3.4 0.7-65.5-0.4-82.9-10.2-0.1-30.7-0.3-40.9-0.4-0.1 21-0.3 63.4-0.4 84.4-8 0-45.7 0.8-45.8-0.5-1.4-1.2-1.5-122.1-0.1-123.5-0.4-1.3 38.5-0.8 46.4-0.9v32.2h41.2c0.1-8.1 0.3-24.5 0.4-32.6l3.1-0.2c5.3-0.4 5.5 0.5 5 18l-0.5 14.9c2.5 0.2 10.1-0.9 9.7 1.8 1.8 5.4-4.3 6.9-9.5 6.4-0.2 14.7 0.9 85.5-0.6 84.4-2 1.6-6.2 1.6-7.6-1.1zm665.9 0.3c-11-5.6-18.9-18.9-22.5-29.7-0.7-7.3-11.5-2.1-13.4-6.8-3.8-4.8 7.5-8.9 9.2-6.6 6.6 2.2 14-1 20.7-3.5 4.3-2.2 14.2-11.5 14.2-13.4 18.5-37.1-14.8-59.6-50.1-55.6-1.3-2.9-1.1 97.9-1.3 116.4h-45.8v-124.5c34.4 2 71.5-7.4 95.4 11.2 24.6 19.1 18.5 60.5-9.2 73.1-2.2 2.1-14.6 3.1-10.6 7.7 4.2 12.1 16.2 31.2 30.9 24.6 5-3.3 7.3 4.4 4.2 7.8-1 2-20.5 1.4-21.7-0.7zm286.1 1.4c-62.7-13.7-60.2-107.6-0.7-123.6 14.8-5.3 41.1-4.7 55.1 4.2 3.6 1 12.3 7.6 9 11.9-5.6 11.4-16.8-16.7-51-10.4v111.2c23.4-0.5 41.6-11.4 51-32.7 2-0.7 1-21.3 2.1-23.2 0.8-0.9 5.6-0.4 7.3-0.2-0.3 11.1 1.4 64.1-0.9 62-3.5 4.2-9.2-2-7.7-5.4 3.2-41.7-0.1 15.2-64.2 6.2zm-1131.5-59-0.2-58.7c-6.9-1.3-29.3 4.5-31-0.8-2.4-3.8 1.3-5.4 4-7.5 16.7 1.9 105-5.4 101.6 3.3 0 6.6-5.9 3.7-15.7 4.5h-12.8c-0.1 29.3-0.3 88.1-0.4 117.4-11.3 0.1-34.1 0.3-45.4 0.4l-0.1-58.6zm217.4 57.5c-0.5 1.8-1.1-133.1 0.6-124 1.7-1.4 80-0.8 81.7 0.6 1.8 1.5 1.6 6.3-0.2 7.9-1.3 1.2-2.1 1.2-9.2 0.4-7.3-0.9-19.5-1.3-27.6-1.6v24.8h13.7c10.8 0.8 19.5-2.7 17.8 6.5-1.6 2.6-9.6 4.4-10.8 2.4-0.9-1-16.7-0.7-20.6-0.8v76c6.5-0.1 37.3-1.3 37.4 0 2.7 11.4-3.3 8.1-43.4 8.8-34.9 0.2-39 0.1-39.4-1zm668.5-61.4v-62.6h45v125.2h-45v-62.6zm-902.1-98c-13.9-1.4-20.3-11.4-12.7-21.5 3.1-3.4 6.1-4 20.8-4.7 7.6-0.3 280.8-0.6 607-0.7 533.7 0 593.4 0.1 595.9 1.1 3.5 1.5 5.9 3.7 7.7 7.2-4.1 37.4-13.4 10.7-612.3 18.7-331.9 0.3-604.7 0.2-606.4-0.1zm-9.9-31.6c-13.9-22.7 129.3-3.9 610.3-10.1 533.2-0.2 610.3 0 612.6 0.9 4.1 1.7 4.9 6.1 1.5 8.3-1.4 0.9-84.9 1.1-611.5 1.3-335.3 0.1-611.2-0.1-612.9-0.4zm-4.5-35.1c-0.6 1.3-2-154.2 2.3-151 3.6-16.8 13.8-35 22.5-48-0.9-0.3 12.4-23.1 12-24.3 0-0.5 0.5-1.2 1.1-1.4 1.6-0.7 0.9-4.8 1.8-6.1 12.1-31.3 39.6-54.7 61.7-80.7 32-35.4 38.8-43.3 75.7-84 9.3-8.3-8.2-30.6-15.8-35.4-3.2-1.7-2.3-3.1-4.6-3.4-0.8 0-1.5-0.3-1.5-0.7 0.2-0.8-9.2-3.2-9-4-1.4-0.7-27.7-0.7-33.7-0.6v16.1c-0.9 12 2.1 16.8-3.3 19.6-2.3-0.1-6.1 9.9-7.3 10.9-1.3 1.3-2.2 4.3-3.2 6-7.9 13.9-15.9 29.5-24.2 43.3 2.1 1.4-62.5 0.8-74.5 0.9-1.6-11.3-1.5-68.3 3-80.6 5.3-20.6 17.6-38.6 27.6-57.4 3.8-7.2 9.9-16.3 11.3-23.6 0.1-1.4 2.4-2.6 2.2-4.2-0.1-1.8 2.2-1.8 2.3-3.4 0-1.3 3.1-7.2 3.9-7.6 11.7-20.8 34.5-40.9 57.1-50.7 29.6-13.7 78.4-14.1 108.8-1.8 0.9 0.9 3.4 0.3 3.9 1.8 0.2 0.6 1.1 1.1 1.9 1.1 1.6 0 9.1 3.7 9.5 4.7 0.1 0.3 0.9 0.6 1.7 0.6 57.7 32.6 78.9 109.2 48.9 165.8-2 3.3-11.3 18.8-13 19.5-2.4 5.9-9.7 18.5-12.6 24.1 0.1 1.8-2.2 1.9-2.2 3.4-0.1 1.7-2.9 5-3.3 6.8-0.3 0.9-0.8 1.7-1.2 1.7-1.1 0.3-0.5 2.5-1.5 3.2-2.8 2.9-4.1 7.2-5.1 8.8-38.3 51.1-86.8 98.4-128.7 146.2-3.3-3.3-1.4 36.5-2 45 45.5 0.1 137.1 0.3 182.6 0.4v78.7c-4.4 0.4-4 3.1-6.4 4.9-50 78.6 13.7 51.9-159.8 57h-128.1l-0.8-1.6zm281.6-100.4v-25.1c-45.9-0.1-138.2-0.3-184.1-0.4-1-77.9-5.1-81.9 46.4-134.5 35.1-38.3 57.1-63.2 89-98.5 18.8-20.7 35.9-36.9 44-62.1 3.5-12.7 7.4-32.9 4-47.2-1.4-2.3-0.7-9.2-2.3-11.3-3.2-14.6-10.2-28.7-18.4-40.4-3.6-5.4-13.3-15.3-12.7-15.7 0-0.3-0.4-0.6-1-0.6s-1.8-0.9-2.8-2c-1.1-1.8-10.8-8-11.8-9.5-2.6-1.5-10.1-5.7-12.9-7.3 0-0.6-8.5-3-11.4-5.2-17.6-4.9-18.3-5.9-43.3-5.7-32.8 0-42.2 2.9-66.1 17.5-4.9 0.7-25.9 21.8-31.4 29.1 0 1.1-5.4 9.9-6.1 9.9-0.4 0-0.6 0.6-0.6 1.3 0.1 1.5-3 5.9-3 7.2-0.1 1.5-2.4 2.6-2.2 4.4 0 0.8-0.5 2.1-1 2.7-1.2 0.8-2.6 10.2-3.6 11-0.8 1.1-0.5 7.1-1.7 8.2-1.6-1.3-1.1 45.5-1.1 55.1h50.2c0-7.6-0.3-45.6 1.1-44.5 1.6-20 17.8-40.9 35-47.7 10-4.7 8.3-3.8 30.2-4.1 31.9-1.9 48.7 10.2 61 34.1 2 0.9 1.7 8.3 3.5 10.5 1.6 1.3 1.7 27.9 0.1 29.2-3 12.3-9.8 23.1-18.5 31.4-11.8 13.5-20.3 22.7-33.8 37.8-31.8 34.4-65.6 74-96.7 106.5-5.3 7.4-14.1 16.7-18.7 24.7-1.7 2-5.9 12.4-7 14.2-1.2 1.1-2.6 10.6-3.6 11.6-0.9 1.2-0.5 7.8-1.8 9.1-0.9 1.3-1.1 10.4-1.1 66 0 35.5 0.2 64.8 0.5 65.1 10.2 0.4 191.8 0.4 233.9 0.1l-0.2-24.9zm142.7 100.9c-51.4-9-93.7-50.5-101.9-102 0.6-16.7-6-320.1 4.8-329.1 0.1-3.5 5.7-15.7 7.5-17.1 8.5-19.7 18.2-31.6 28-53.4 2.7-7.3 6.9-16.1 11-21.6 54.9-88.2 205-75.1 237.5 27.2 11.6 41.7 4.8 13.9 6.9 175.3-1.7 158.6 3.5 134.7-6.2 172.2-4 17.5-15.6 31.3-25.8 47.2-35.1 73.1-73.4 111.1-161.8 101.3zm79.3-76.2c19.1-0.9 34.1-8.5 49.3-17 19.3-14.4 33.9-31 43.7-55 10.6-35 8.9-302.3 1.9-340.1-0.7-4.3-2.4-5.3-3-8.5 0-0.9-0.3-1.8-0.7-2-0.9-0.5-4.5-8.5-4.5-9.9-9.5-14.4-25.3-33.5-39-40.7-4.5-2.9-10.2-6.2-15.6-8.4-3.1-1.5-4.3-0.8-6.2-2.5-0.6-1.4-4.8-0.8-5.2-1.8-24.5-7.1-58.8-6.6-81.7 1.8-34.5 11.1-67.7 49.9-72 85.1-4.9 6.7-1.7 295.3-1.1 302.6 9.1 65.2 67.5 105.3 134.1 96.4zm-35.2-51.1c-22.3-4-42.1-23.3-47-45.4-0.2-2.7-2.2-298.5 0.8-300.6 9.4-41 58.2-51.4 93-39.4 16.6 6.8 33.7 25.4 35.2 43.5 2.5 10.2 1.6 27.8 1.9 147.3 0 112.6-0.2 142.2-0.9 143-0.5 0.5-0.9 2.5-0.9 4.4 0 3.5-3.3 13.7-4.5 14.2-1 0.3-0.5 3-1.5 3.5-0.8 0.3-2.9 5.5-3.9 5.6-16.2 22.6-40.4 27.5-72.2 23.9zm27-13.7c2.7-1 5.9-1.2 8.6-1.1-1.3-52.7 2.2-251-3-267.4-0.2-2.7-2.1-3-3-5.9-0.6-1.5-1.3-2.7-1.7-2.7-0.3 0-0.6-0.5-0.6-1.1-4.6-7.8-19.3-18-26.7-19.5 0.4-1.5-28-1.1-34.1-1.1 0.9 52-1.4 253.8 2.2 269.6 8.2 22.3 36.2 34 58.3 29.2zm148.6 141.6c-0.3-0.3-0.5-32.2-0.5-70.9 0.4-68.2-1-62.8 2.5-78.9 3.7-22.9 18.6-42.3 29-62.3 1-0.3 0.5-3.2 1.4-3.4 0.9 0 6.2-11.4 6.2-13.3-0.1-1.9 2.3-2.9 2.3-4.7 0-1.6 3.8-10 4.6-10.4 0.8-0.2 0.3-3.1 1.4-3.1 0.4 0 1.2-1.1 1.9-2.4 1.4-3 2.1-4.1 7-10.6 7.7-10.4 10.1-13.3 11.1-13.7 0.6-0.2 1.1-0.7 1.1-1 36.3-41.4 73.2-81.1 109.6-122 4-3.2 2.4-7.8 1.4-11.1-3.1-13.4-20.9-29.4-32-31.5 0.5-1.5-28.6-1.1-34.8-1.1l-0.2 17.4c-0.2 16.9-0.2 17.4-1.7 17.7-6.5 4.3-13.4 24.1-19.2 30.9-1.2 0.6-0.6 2.7-1.7 4-3.5 4.8-4.8 9.8-7.3 12.5-1.2 0.8-0.6 2.9-2.1 4.4-1.4 1.5-1.7 4.6-3.1 5.4-1.1 0.5-0.6 2.3-2.1 3.3 4.4 2.1-62.8 0.6-74.7 0.9-3.4-80.7 2.3-89.4 40.1-154.4 8.5-26.1 29.9-51.5 54-65.5 0-0.6 0.2-0.7 7.3-4.2 8.3-5 19.9-8.4 27.6-10.2 13.5-2.4 7-2.6 33.7-2.9 30.3-0.1 21.8-0.2 39.1 3.6 31.1 6.2 70.1 35.9 81.9 68.4 16.9 31.5 16.1 76.4-0.4 107.9-9.1 18.1-10.8 15.3-18.8 31.5-3.4 7.1-5.1 8.4-6.1 11.2 0.1 1.8-2.3 1.8-2.2 3.4-2.6 5.9-7.6 14.6-11.4 19.8-3.1 8.4-16.1 23.8-23.6 32.3-32.7 36.3-69.7 77.4-102.6 113.6-7 7.1-6.4 4.5-6.4 28.1v21h91.4c82.7 0 91.5 0.1 91.9 1.2-0.6 2.3 3.1 78.4-1.8 78.3-1.4 0-3 1.6-4.4 4.5-10.5 17.6-20.8 40.8-32.4 57-46.4-0.3-245.9 0-257-0.7zm281.5-101.5v-25.5h-183.8c0.7-18.4-0.7-77.2 2.7-77.3 0.6-0.5 1.1-1.7 1.1-2.6 0-2.6 5.5-13.8 6.8-13.8 48.3-59.1 112.4-119.2 159-180.7 0-0.4 0.5-0.9 1.1-1.1 2.1-1.5 1-3.4 3.4-6.9 1.2-2.4 2.2-4.7 2.2-5.3 20.5-50.9-1.6-111.8-49.6-138.5-46.8-26.2-117.9-17.5-152.1 26.6-26.1 30.5-26 63.8-24.8 106.4 12.4-0.1 37.4-0.3 49.9-0.4 0-13.7 0.9-55.7 4.1-56.3 4.4-16.2 19.9-31.4 36.6-37.4 6.1-4.2 39.2-2.5 46.1-1.9 2.9 0.6 10.2 3.6 12.7 4.6 1.9-0.1 1.9 2.2 3.6 2.3 18.8 11.4 29.9 27.2 28.2 52.5-0.1 19.3 0.3 15.8-3.5 24.8-1.2 2.5-3.1 7.3-5.2 9-23.5 28.7-48.7 54.1-73.3 82.4-28.3 34-65.5 66.1-89 104.4-0.6 0.5-1.1 1.5-1.1 2.3-0.7 2.7-2.3 3.1-2.9 7.1-10.2 18.4-4.9 110.7-6.1 151.1h234l-0.1-25.8zm34.1 99.5c-0.2-0.5-0.3-32.8-0.1-71.8 0.2-68.8 0.3-71.1 1.8-78 6.5-31.1 28.9-54.9 39.2-83.9 0.4-3.5 6.6-14.7 9.3-18.9 38.4-49.8 85-95.1 126.7-143.6 5.4-5.5 1.8-10.4 0.1-15.9-11.8-25.9-35.6-31.3-64.9-27.8-0.1 8.4-0.3 25.4-0.4 33.9-4.9-0.2-15.2 23.7-20.3 31.2-1.3 0.7-0.7 3.3-1.8 3.7-4.7 6.9-9.9 19.3-15.3 26.9 0.4 1.2-61.9 0.4-74.3 0.4-4.3-79 5.2-94.7 41.1-157.9 19.8-48.2 63.8-82.4 122.7-79 75.8-4.1 131 53.4 132 125.1-0.7 23.1-3.3 32.6-10.1 49.1-1.3 0.7-0.8 3.3-1.8 3.8-1.1 0.3-2.5 6.4-3.6 6.9-2.8 4.6-5.8 10.1-9.5 14.3-11 18.7-20.8 39.1-32.5 57.4-39.1 47.9-85 95.2-126.2 141.6v42.4h182.8l0.5 1.7c0.6 2.2 0.6 74.3 0 75.9-0.3 0.7-1.5 1.7-2.8 2.3-3.2 1.2-6.1 9.4-7.9 12-9.1 15.4-17.6 34.7-28.1 49.1-41.7-0.1-264.9 0.7-256.6-0.9zm281.5-101.2 0.2-25.3h-91.8c-83 0-91.8-0.1-92.3-1.2-0.8-62.9-8.1-81 41.5-127.9 35.9-40.2 74.8-82.8 111.1-123.3 14.8-16.3 26-32.3 29.1-55.1 17.9-90.5-73.2-154.7-156.1-127.5-31.1 10.8-59.6 36.9-70.3 69.7-6.6 11.4-6.5 61.2-5.5 70.8-1.5 2.2 40.8 0.8 49.8 1.2-1.4-36.5 0-77.6 36.7-92.5 10.6-5 12.2-3.9 29.9-4.3 34.4-2.4 53.1 13.9 63.7 40.6 2.1 1.1 2.2 37.3 0.1 37.7-5.8 18.5-23.6 33.1-37.1 48.9-44.8 54.1-98.3 99.2-135.4 157.8-1 1.8-3.2 10.1-3.7 12.4-0.3 2.8-2.5 4.3-2.2 7.9-2.5 11-1.6 12.3-2.2 69.4-0.2 35.2-0.1 64.6 0.2 65.2-18.6 2 200.8 0.5 234.1 0.8l0.2-25.3zm-668.5-497c-49.5-6.6-82.4-71.5-55.7-114 22.5-40.6 73.7-45.5 102.5-14.2-17.9 25.6-6 7.7-37.4 4.9 0.2 14.5-0.6 102.6 0.9 97.5 0.5-0.3 9.4-2.8 9.6-3.7 1-1.1 2.8-0.9 5.2-2.9 4.3-2.7 4.1-3.3 7 1.1 2.3 4.3 3.5 1.7 4.6 4.1 2.8 3.5 6.5 8.8 10.2 13.2-8.4 9.3-36.1 16.2-46.9 14zm1-77.5 0.2-50.8h-4.5c1.1 16.5-2.8 112.6 3 101.7 0.9-0.1 1.1-6.4 1.3-50.9zm-8.8 0.2c0-27.2-0.3-49.6-0.6-49.8-0.6-0.4-3 0.6-3.9 0.9 1.2 16.7-3 107.8 3.1 98.3 1.3 0.1 1.4-2.3 1.4-49.4zm-8.3 0c-1-33.2 2.1-49.5-3-45.7-1.4 0.8-1.5 2.1-1.5 45.7 0 42 0.1 45 1.3 45.7 3.3 1.9 3.2 3.1 3.2-45.7zm-8.2 0c-1.2-33.5 3.1-47.8-5.2-38v76.1c1 0.8 3.8 3.1 4.6 3.1 0.3 0 0.6-18.5 0.6-41.2zm-8.3 0c0-19.4-0.3-33-0.7-33-0.9 0.1-3.7 5.5-4.6 6.9v52.4c0.9 1.3 4.3 6.5 4.9 6.6 0.3 0.1 0.4-14.8 0.4-32.9zm-8.3-0.2c0.6-39.8-5.4 6.2-1.8 13.7 3.1 9.7 1.3-2.8 1.8-13.7zm266.8 77.7c-1.6-5.8 1.9-6.6-6.5-6.2v-117.7h-22.4c-0.1-1.8-0.3-5.4-0.5-7.1-1.6-0.1-4.8-0.3-6.4-0.5l0.4-16.8c31.3-0.1 94.3-0.3 125.6-0.4v6.8h6.8l-0.4 17.6c-7 0.1-21.1 0.3-28.1 0.4-0.3 18.3 0.8 133.4-1.2 124-1.6 0.5-66.7 0.5-67.3-0.1zm16.8-77.9v-68.6h-4.5v137.2h4.5v-68.6zm8.2 0v-68.7c-1 0.1-3.1 0.4-4.1 0.5-0.1 34.1-0.3 102.8-0.4 136.9h4.5v-68.7zm8.3 0v-68.6h-3.7v137.2h3.7v-68.6zm8.8 0.2-0.2-68.4c-1-0.1-3.1-0.4-4.1-0.5v137.3h4.5l-0.2-68.4zm8.8-0.2v-68.2c-1.2-0.1-3.7-0.4-4.9-0.5v137.4c1.2-0.1 3.7-0.4 4.9-0.5v-68.2zm61.5 77.4c-0.8-6.6-1.1-5.3-7.1-6.6 0.1-35.2 0.3-106.1 0.4-141.3 16.9-0.1 51-0.3 67.9-0.4v6.7c1.8 0.1 5.3 0.3 7.1 0.5v141.8c-10.8-0.2-71 0.9-68.3-0.7zm16.7-77.3 0.2-68.9c-1.2 0.1-3.7 0.4-4.9 0.5l-0.2 68.2c-0.2 72.2-0.3 69.7 3.2 69.2 1.5-0.1 1.5-0.7 1.7-69zm8.2 68.7c1.4 6.2 0.5-116.2 0.6-137h-4.5c2.4 21.2-6 143.9 3.9 137zm8.3 0c1.4 6.2 0.5-116.2 0.6-137-1-0.1-3.1-0.4-4.1-0.5v69c0 65.3 0.1 69 1.3 69 0.6 0.1 1.7-0.2 2.2-0.5zm8 0.1c2.1 10.1 0.8-117 1.2-137.5h-4.5c1.7 19.1-4 145.6 3.3 137.5zm9.2-68.8 0.2-68.9c-1 0.1-3.1 0.4-4.1 0.5 2.4 22.2-5.8 141.9 3.8 137.3l0.1-68.9zm8.3 0.1 0.2-68.8h-3.8v138.1c0.8-0.1 2.5-0.4 3.4-0.5l0.2-68.8zm-837.1 76.2c-1.4-6.7 0.9-5.3-7.3-5.5 0.1-35.4 0.3-106.7 0.4-142.1h97.5c0.5 6.6-0.5 6.6 6.4 6.4v17.2h-28.5v31.5c4.4 0 19.5-0.1 21.3 0.5 1.6 0.3 1.1 5.3 1.2 7h6v17.3h-28.5v68.2c-12.5-0.1-65.2 0.2-68.5-0.5zm16.6-76.6-0.2-68.8h-3.8c-0.1 34.3-0.3 103.3-0.4 137.6h4.5l-0.1-68.8zm9.2 0.3c0-61.8-0.1-68.6-1.2-69-6.4-18.9-2.1 117.5-3.3 137.5h4.5v-68.5zm8.2-0.5v-69h-4.5v138h4.5v-69zm8.3 0v-69h-4.5v138h4.5v-69zm8.2 0v-69c-1 0.1-3.1 0.4-4.1 0.5-0.1 34.3-0.3 103.3-0.4 137.6h4.5v-69.1zm109.5 76.8c-70.7-19.6-56-84.5-56.6-146.9 17.3-0.1 52-0.3 69.3-0.4 0.4 7-0.2 6.5 6.8 6.9v57c0 52.3 0.1 57 1.2 57 14.3-4.1 26.2-15.1 30.7-31.5 0.8-5.2 1.3-72 1.4-88.9 4.4-0.1 13.2-0.3 17.5-0.4 0.1 1.6 0.3 4.8 0.5 6.4 1.8 0.1 5.3 0.3 7.1 0.5-1.4 31.3 3.9 83-5.3 103.4-12.1 28.9-42.1 40.8-72.6 36.9zm10.5-85v-60h-4.5v120h4.5v-60zm-8.4-0.6-0.2-59.1c-1-0.1-3.1-0.4-4.1-0.5v118.6h4.5l-0.2-59zm-8.8-0.9v-58.5h-4.5v115.4c0.9 0.3 4 1.5 4.3 1.6 0.1-0.1 0.2-26.3 0.2-58.5zm-8.3-1.9v-56.6h-4.5v110.9c0.9 0.6 3.2 2.4 3.9 2.3 0.4 0 0.6-25.5 0.6-56.6zm-8.2-3v-53.6h-4.5v103c0.8 0.8 3.9 4.1 4.3 4.2 0.1 0 0.2-24.1 0.2-53.6zm-9-6v-47.7c-1 0.1-3.1 0.4-4.1 0.5-2.7 43.7 4.5 156.2 4.1 47.2zm120.7 94.9v-3h-6.8c0.1-35.2 0.3-106.1 0.4-141.4 27.2-0.3 93.9-2.6 98.1 7.5 6.2 3.7 22.4 19.9 25.5 25.5 14.1 25.7 2.3 62.2-25.3 72.9-8 2.3-5.2 1.4 6.4 14.8 10.3 10.9 16.9 18 24.8 26.4-5.9 0.1-17.9 0.3-23.8 0.4-7.7-7.5-23.1-25-30.4-31.5-0.9 1-0.6 25.9-0.7 31.5h-68.3v-3.1zm17.1-73.7 0.2-68.1h-5.3v136.6c1.2-0.1 3.7-0.4 4.9-0.5l0.2-68zm9 0 0.2-68.1h-5.3v136.6c1.2-0.1 3.7-0.4 4.9-0.5l0.2-68zm8.4 0.2v-68.2h-5.3v136.5h5.3v-68.3zm8.3 0v-68.2h-5.2v136.5h5.2v-68.3zm8.2 0v-68.2h-4.5v136.5h4.5v-68.3zm28.6 10.4c28.1-14.4 23.9-60.1-11.3-56.3v59.6c3.8-0.4 7.1-1.2 11.3-3.3zm168.4 63.1 0.5-3c-6.3-1-9.1 2.3-5.5-9.5 11.3-44 21.5-88.7 33.4-132 11.4 1.4 63.8-4.2 61.8 3.5 0.7 5.1 6.2 0.2 6.6 6.5 10.4 44.1 23.8 92.9 34 137-2.9 0.5-57.5 0.2-70 0.1-0.9-2.4-1.2-5.6-4.3-5.6-2.5-0.4-2.6-0.5-3.7-5.6-1.5-6.5-2.4-8.2-3.4-14.2h-24.6c-2.1 8.2-4.3 17.3-6.2 25.5-4.7 0.1-14.3 0.3-19 0.4l0.4-3.1zm78.3-6.6c-10.4-44.4-21.6-87-32.2-129.9-1.1-2.6-0.3-6.1-3.8-6-2.5 0-2.5-0.3-1.1 5.6 8.5 34.2 19.2 76.5 27.8 111.7 1.3 5.6 2.8 8.9 4.6 17.8-0.3 2.7 4.6 2.8 4.7 0.8zm8.2-0.2c-9.1-41.6-20.6-81.7-30.4-124.1-1.4-4.1-1.9-11.5-5-11.5-2.3-0.3-2.5 0.5-1.2 5.5 10 40.3 18.3 73.6 28.5 114 1.4 2.9 3.2 23.5 8.1 16.1zm9.1 0c-10-40.7-21.2-84.7-31.2-125.3-2.3-9.8-2.7-10.5-5-10.5-2.4 0-2.5 0.4-1.3 4.9 8.9 35.2 17.7 72 27.3 108.5 1.2 5.2 3.9 15.9 5 20.7 0.7 3 0.9 3.2 3.1 3 1.7-0.1 2.3-0.5 2.1-1.3zm8.6 0.7c-9.3-38.8-23-91.6-31.5-127.1-1.8-8.1-2.5-9.4-5-9.4-4.7-0.7 0.9 7.7 0.8 11.6 8.7 34.4 15.8 63.7 26.3 105 0.6 1.3 1.3 4.5 3.8 15.4 0.4 1.9 0.9 3.8 1.1 4.3 0.3 1.2 3.8 1.3 4.5 0.2zm8.4-1.6c-10.2-41-22.1-87.5-32-128.4-1.4-5.9-1.4-6-3.8-6.2-2.7-0.3-3.1 1-1.6 4.8 10.4 40.5 20.6 82.3 30.8 123 1.2 2.2 1.2 10.7 5.3 9.4 2-0.2 2.1-0.3 1.3-2.6zm8.8 0.7c-10.9-42.3-21.2-84.8-32.4-129.6-1.3-5.5-1.4-5.6-3.9-5.9-2-0.2-2.4 0-2.1 0.9 9.4 36.2 19.2 77.6 28.7 114.1 2.1 9.3 3.4 13 4.8 20.2 0.1 2.4 6.3 3.1 4.9 0.3zm-78.4-41.2c-5.7-15.5-4.1-36.7-10.1-6.6-2.3 9.3-2.8 8.2 4.4 8.2 6.4 0.1 6.4 0.1 5.7-1.6zm364.8 49.4c-92.9-32.2-58.3-176.3 38.7-139.4 75.9 35.7 48.2 159-38.7 139.4zm11-74.7v-51h-4.5c0 18.4-0.2 96.9 0.5 101.5 0.5 0.6 3 0.5 4 0.5v-51zm13.5 49.8c43.4-13.1 46.8-93.6-4.5-95.8 0 17.4-0.2 92.9 0.6 97 0.2 0 2-0.6 3.9-1.2zm-21.8-50.2c0-30.4-0.3-49.9-0.7-49.9-0.8 0-3.5 1-4.5 1.5v96.8c8.4 5.3 4-6.5 5.2-48.4zm-9-0.1v-46.9c-1.2 0.7-3.7 2.1-4.9 2.8-0.1 22.1-0.3 66.5-0.4 88.6 1 0.5 4.7 2.3 5.1 2.4 0.1 0.1 0.2-21 0.2-46.9zm-8.2 0v-41.7c-1.2 0.9-3.7 2.8-4.9 3.8-0.1 18.7-0.3 56.4-0.4 75.1 1 0.9 4.7 4.4 5.1 4.6 0.1-0.1 0.2-18.8 0.2-41.8zm-8.3 0c0-36.1 0-35.9-3.7-28.7-1.5 2.8-1.5 4.2-1.5 28.8v25.8c0.9 1.4 4.4 7.3 4.9 7.5 0.2 0.1 0.3-15 0.3-33.4zm-9-0.1c0.3-32.9-3.9 6.2-1.3 11.8 2.3 8.5 0.9-3 1.3-11.8zm126 74.1c0-3 0-3-2.9-3-7.5 1.1-2.2-31.2-3.8-70.9 0-61.3 0.1-68.6 1.2-69.7 1-1 4.8-1.2 30.3-1.2h29.1c2.2 2.2 2.6 6.2 5.5 6.9 1.7 0.2 4.4 4.2 10.7 15.9 9.7 16.9 15.8 27.8 26.3 46.1 0.2-17.1 0.6-51.5 0.8-68.6h17.2c0.5 6.6-0.5 6.6 6.4 6.4v58.3c0 53.2-0.1 58.4-1.2 59.6-1.2 1.3-1.2 1.5 0 2.7 1.7 1.9 1.8 13.2 0.1 14.2-2.1 0.4 1.4 4.7 2.1 6.2h-59.4c-0.9-2.2-2.5-5.1-4.7-6.1-2.1-1-3-2.2-8.5-12.3-9.2-15.6-21.5-38.5-31.1-53.9-0.1 17.9-0.3 54-0.4 71.9l-17.6 0.4-0.1-2.9zm82.5-5.7c-23.4-42.2-50.4-88.5-73.5-130-1.4-0.7-0.7-1.9-2.4-4.1-1.3-2.6-4.5-3.5-5.8-1.8 23.5 43.9 47.9 84.3 72.8 129.2 0.8 2.3 5.2 9.4 8.9 6.7zm9-0.4c-20.5-38.9-56.7-98.9-75.7-134.8-0.3-1.9-5.9-1.9-6-1.2 24.7 44.7 47.9 83.7 73.8 130.4 3.5 6.6 4.6 7.6 7.9 5.6zm8.6-2.7c-25.5-45-50.7-89.8-75.5-132.8-0.7-0.9-5.1-1.4-5.1-0.6 17.6 32.4 45.3 79.6 62.6 111 7.4 13.8 7.7 12.3 13.3 23.8 0.6 2.7 4.2 2 6.5 2.1l-1.8-3.5zm10.9 2.8c-23.2-42-49-86-72.8-128.6-2.6-6-5.3-9.3-8.9-7.2 22.3 41.2 50.4 88.5 72.2 127.5 2.4 3.6 4.4 11.7 9.5 8.3zm0-16.8c-19.8-35.7-41.8-73.8-62.4-110.7-4.5-8.3-5-9-7.4-9-4-0.4-0.8 3.6 0.2 5.4 21 37.7 46 81.4 66.2 117.2 4.4 7.8 4.5 8 4.8 3.8 0.1-2.5-0.3-4.5-1.4-6.7zm-53.2-128c-22.3-2.5-38.4-40.4-17.9-52 13.7-8 29.8 1.2 29.8 17 0 11.7-9.5 20.8-20.9 19.9-3.9-0.3-4.4-0.2-3.8 0.9 4 8.1 26.3 10 33.4 6.6 7-3.7 12.9-11.7 16-21.8 2.5-3.5 2.2-33.2 2.5-43.8-97.1-9.1-90.2-116-5.9-154.6 5-3 5.1-3.4 5.1-18.8 0-22.3 2.7-37 9.1-49.8 49.9-84.7 78.8 31.9 3.8 87.1-0.1 9.8-0.4 29.6-0.5 39.5 52 12.8 44.9 82.5-4.1 95.2 1.9 38.9-0.6 81.5-46.6 74.6zm38.7-108.5c-0.3-20.3-0.5-28.7-0.5-39.4-14.4 1.1-24.2 12.8-24.3 30.2-1.2 7.4 6.6 13.5 9.3 20.1-23.3-6.4-31.2-41.7-11.7-58.6 28.4-26 27 5.7 26.7-43.4-16.6 11.4-37.7 27.1-41.7 31.2-32.4 32.9-3.6 90.4 42.7 86.6l-0.5-26.7zm17.8 20c20.6-16.9 17.7-49.4-7.5-57.6-0.3 2.8-0.6 50.8-0.7 62 2.8-1.1 5.4-2.4 8.2-4.4zm10.4-161.6c17.6-14.4 36.9-72.6-4.1-42.7-8.4 5.3-11.5 35-11.4 54.6 5-3.3 11.6-7.9 15.5-11.9z"/>
</g>
</svg>
