<?xml version="1.0" encoding="UTF-8" standalone="no"?>
<!-- Created with Inkscape (http://www.inkscape.org/) -->

<svg
   width="201.39775mm"
   height="145.18494mm"
   viewBox="0 0 201.39775 145.18494"
   version="1.1"
   id="svg5"
   xml:space="preserve"
   inkscape:version="1.2 (dc2aedaf03, 2022-05-15)"
   sodipodi:docname="redalert2.svg"
   xmlns:inkscape="http://www.inkscape.org/namespaces/inkscape"
   xmlns:sodipodi="http://sodipodi.sourceforge.net/DTD/sodipodi-0.dtd"
   xmlns="http://www.w3.org/2000/svg"
   xmlns:svg="http://www.w3.org/2000/svg"><sodipodi:namedview
     id="namedview7"
     pagecolor="#ffffff"
     bordercolor="#000000"
     borderopacity="0.25"
     inkscape:showpageshadow="2"
     inkscape:pageopacity="0.0"
     inkscape:pagecheckerboard="0"
     inkscape:deskcolor="#d1d1d1"
     inkscape:document-units="mm"
     showgrid="false"
     inkscape:zoom="2.0202243"
     inkscape:cx="362.5835"
     inkscape:cy="300.70918"
     inkscape:window-width="1734"
     inkscape:window-height="1017"
     inkscape:window-x="468"
     inkscape:window-y="411"
     inkscape:window-maximized="0"
     inkscape:current-layer="g4901" /><defs
     id="defs2" /><g
     id="g4901"
     transform="matrix(0.73298198,0,0,0.73298198,-180.79479,-38.375639)"><path
       id="bottom"
       style="fill:#eb4625;fill-opacity:1;stroke-width:0.949098;stop-color:#000000"
       d="m 321.14581,185.04135 h 125.89286 v 8.15552 H 321.14581 Z m -47.85958,32.18117 c 12.46023,13.80097 29.15784,25.30645 47.85958,33.20735 v -65.38852 h -8.15551 z m 221.61202,0 c -12.46023,13.80097 -29.15784,25.30645 -47.85958,33.20735 v -65.38852 h 8.15551 z"
       inkscape:label="bottom" /><path
       id="top"
       style="fill:#eb4625;fill-opacity:1;stroke-width:0.949098;stop-color:#000000"
       d="M 321.14581,117.74402 H 447.03867 V 109.5885 H 321.14581 Z M 273.28623,85.562851 c 12.46023,-13.80097 29.15784,-25.30645 47.85958,-33.20735 v 65.388519 h -8.15551 z m 221.61202,0 c -12.46023,-13.80097 -29.15784,-25.30645 -47.85958,-33.20735 v 65.388519 h 8.15551 z"
       inkscape:label="top" /><path
       id="right"
       style="fill:#eb4625;fill-opacity:1;stroke-width:1.17939;stop-color:#000000"
       d="m 486.67023,126.10474 h 31.15037 v 50.70195 h -31.15037 z m 31.15039,0 c 4.7835,16.67951 4.8187,34.0291 0,50.70195"
       inkscape:label="right" /><path
       id="left"
       style="fill:#eb4625;fill-opacity:1;stroke-width:1.17939;stop-color:#000000"
       d="m 281.40775,126.0417 h -31.15037 v 50.70195 h 31.15037 z m -31.15039,0 c -4.7835,16.67951 -4.8187,34.0291 0,50.70195"
       inkscape:label="left" /><rect
       style="fill:#eb4625;fill-opacity:1;stroke:none;stroke-width:2.93406;stroke-dasharray:none;stroke-opacity:1;stop-color:#000000"
       id="bottom-band-1"
       width="119.72541"
       height="6.3622203"
       x="324.17627"
       y="196.69658"
       inkscape:label="bottom-band-1" /><rect
       style="fill:#c83012;fill-opacity:1;stroke:none;stroke-width:2.93406;stroke-dasharray:none;stroke-opacity:1;stop-color:#000000"
       id="bottom-band-2"
       width="119.72541"
       height="6.3622203"
       x="324.17627"
       y="205.69237"
       inkscape:label="bottom-band-2" /><rect
       style="fill:#99260f;fill-opacity:1;stroke:none;stroke-width:2.93406;stroke-dasharray:none;stroke-opacity:1;stop-color:#000000"
       id="bottom-band-3"
       width="119.72541"
       height="6.3622203"
       x="324.22952"
       y="214.68816"
       inkscape:label="bottom-band-3" /><rect
       style="fill:#6b180b;fill-opacity:1;stroke:none;stroke-width:2.93406;stroke-dasharray:none;stroke-opacity:1;stop-color:#000000"
       id="bottom-band-4"
       width="119.72541"
       height="6.3622203"
       x="324.22952"
       y="223.68394"
       inkscape:label="bottom-band-4" /><rect
       style="fill:#3a0e06;fill-opacity:1;stroke:none;stroke-width:2.93406;stroke-dasharray:none;stroke-opacity:1;stop-color:#000000"
       id="bottom-band-5"
       width="119.72541"
       height="6.3622203"
       x="324.22952"
       y="232.67973"
       inkscape:label="bottom-band-5" /><rect
       style="fill:#070707;fill-opacity:1;stroke:none;stroke-width:2.93406;stroke-dasharray:none;stroke-opacity:1;stop-color:#000000"
       id="bottom-band-6"
       width="119.72541"
       height="6.3622203"
       x="324.28278"
       y="241.67552"
       inkscape:label="bottom-band-6" /><rect
       style="fill:#0e0302;fill-opacity:1;stroke:none;stroke-width:2.93406;stroke-dasharray:none;stroke-opacity:1;stop-color:#000000"
       id="top-band-6"
       width="119.72541"
       height="6.3622203"
       x="324.22952"
       y="55.013931"
       inkscape:label="top-band-6" /><rect
       style="fill:#3d0f06;fill-opacity:1;stroke:none;stroke-width:2.93406;stroke-dasharray:none;stroke-opacity:1;stop-color:#000000"
       id="top-band-5"
       width="119.72541"
       height="6.3622203"
       x="324.22952"
       y="64.00972"
       inkscape:label="top-band-5" /><rect
       style="fill:#6b1a0a;fill-opacity:1;stroke:none;stroke-width:2.93406;stroke-dasharray:none;stroke-opacity:1;stop-color:#000000"
       id="top-band-4"
       width="119.72541"
       height="6.3622203"
       x="324.28278"
       y="73.005508"
       inkscape:label="top-band-4" /><rect
       style="fill:#9c260d;fill-opacity:1;stroke:none;stroke-width:2.93406;stroke-dasharray:none;stroke-opacity:1;stop-color:#000000"
       id="top-band-3"
       width="119.72541"
       height="6.3622203"
       x="324.28278"
       y="82.001297"
       inkscape:label="top-band-3" /><rect
       style="fill:#cb3212;fill-opacity:1;stroke:none;stroke-width:2.93406;stroke-dasharray:none;stroke-opacity:1;stop-color:#000000"
       id="top-band-2"
       width="119.72541"
       height="6.3622203"
       x="324.28278"
       y="90.997086"
       inkscape:label="top-band-2" /><rect
       style="fill:#eb4625;fill-opacity:1;stroke:none;stroke-width:2.93406;stroke-dasharray:none;stroke-opacity:1;stop-color:#000000"
       id="top-band-1"
       width="119.72541"
       height="6.3622203"
       x="324.33603"
       y="99.992874"
       inkscape:label="top-band-1" /><g
       aria-label="ALERT"
       transform="scale(0.98925481,1.0108619)"
       id="text750"
       style="font-size:37.9005px;opacity:1;fill:#eb4424;fill-opacity:0.996078;stroke:#000000;stroke-width:1.29207"><path
         d="m 314.39881,145.16656 h 10.5855 l -5.34827,-9.75272 z m -5.86643,11.2147 h -9.17903 l 15.04546,-27.55559 h 10.73354 l 14.76788,27.55559 h -9.23455 l -2.66488,-4.58952 h -16.78504 z"
         style="font-stretch:expanded;font-family:'Square721 BdEx BT';-inkscape-font-specification:'Square721 BdEx BT Expanded';stroke:none"
         id="path1068" /><path
         d="m 351.68861,149.71906 h 18.33955 v 6.6622 h -26.75982 v -27.55559 h 8.42027 z"
         style="font-stretch:expanded;font-family:'Square721 BdEx BT';-inkscape-font-specification:'Square721 BdEx BT Expanded';stroke:none"
         id="path1070" /><path
         d="m 403.39467,135.54338 h -21.68915 v 4.16388 h 20.43074 v 5.79241 h -20.43074 v 4.21939 h 22.02226 v 6.6622 h -30.42403 v -27.55559 h 30.09092 z"
         style="font-stretch:expanded;font-family:'Square721 BdEx BT';-inkscape-font-specification:'Square721 BdEx BT Expanded';stroke:none"
         id="path1072" /><path
         d="m 430.56163,135.69143 h -13.37992 v 6.73622 h 13.37992 q 1.68405,0 2.35027,-0.77725 0.68473,-0.79577 0.68473,-2.84994 0,-1.62854 -0.72174,-2.36878 -0.72174,-0.74025 -2.31326,-0.74025 z m 0.3146,-6.86576 q 6.55116,0 8.91994,1.94314 2.36878,1.94314 2.36878,7.08784 0,3.57167 -1.05485,5.31125 -1.05484,1.73957 -3.53466,2.33177 2.18372,0.51817 3.27558,1.8321 1.09186,1.31393 1.09186,3.40512 v 5.64437 h -8.42028 v -4.20089 q 0,-1.62854 -0.77725,-2.23924 -0.75875,-0.6107 -3.0165,-0.6107 h -12.54714 v 7.05083 h -8.43878 v -27.55559 z"
         style="font-stretch:expanded;font-family:'Square721 BdEx BT';-inkscape-font-specification:'Square721 BdEx BT Expanded';stroke:none"
         id="path1074" /><path
         d="m 465.53816,156.38126 h -8.40177 V 135.5804 h -11.5293 v -6.75473 h 31.46037 v 6.75473 h -11.5293 z"
         style="font-stretch:expanded;font-family:'Square721 BdEx BT';-inkscape-font-specification:'Square721 BdEx BT Expanded';stroke:none"
         id="path1076" /></g><g
       aria-label="CONDITION RED"
       transform="scale(1.1416635,0.87591483)"
       id="text854"
       style="font-stretch:expanded;font-size:12.0884px;font-family:'Square721 BdEx BT';-inkscape-font-specification:'Square721 BdEx BT Expanded';fill:#eb4424;fill-opacity:0.996078;stroke-width:0.412104"><path
         d="m 273.93426,191.56273 v -0.0885 q 0,-0.51352 -0.34235,-0.74962 -0.33645,-0.24201 -1.07426,-0.24201 h -2.14853 q -1.38119,0 -1.77666,0.33645 -0.38957,0.33054 -0.38957,1.393 v 1.22182 q 0,0.95031 0.43679,1.30446 0.43679,0.35416 1.72944,0.35416 h 1.55827 q 1.28085,0 1.67632,-0.25381 0.40138,-0.25971 0.40138,-0.95621 v -0.0944 h 2.72107 q 0,0.0177 0.006,0.0649 0.0177,0.38367 0.0177,0.57255 0,0.84406 -0.2125,1.393 -0.21249,0.54894 -0.66698,0.87948 -0.43089,0.31873 -1.151,0.45449 -0.7142,0.13576 -2.1013,0.13576 h -2.99849 q -1.37529,0 -2.02457,-0.14756 -0.64928,-0.14757 -1.10968,-0.50172 -0.53123,-0.41908 -0.77323,-1.02704 -0.24201,-0.61386 -0.24201,-1.54646 v -2.39644 q 0,-1.88881 0.89719,-2.63253 0.89719,-0.74962 3.2523,-0.74962 h 2.99849 q 1.44612,0 2.13082,0.12986 0.68469,0.12985 1.08016,0.43678 0.41908,0.31874 0.61386,0.86177 0.20069,0.53714 0.20069,1.35169 0,0.19478 -0.006,0.30102 0,0.10035 -0.0118,0.19479 z"
         id="path1079" /><path
         d="m 282.4044,197.28819 q -1.54056,0 -2.25477,-0.13576 -0.71421,-0.14166 -1.1628,-0.4781 -0.50762,-0.37777 -0.73192,-0.98573 -0.22429,-0.61386 -0.22429,-1.62319 v -2.39644 q 0,-1.10377 0.22429,-1.74715 0.2243,-0.64337 0.73192,-1.02114 0.44269,-0.33054 1.1746,-0.4722 0.73782,-0.14166 2.23116,-0.14166 h 3.15786 q 1.49925,0 2.23706,0.14166 0.74372,0.14166 1.18051,0.4722 0.48991,0.37186 0.71421,1.01524 0.2302,0.64338 0.2302,1.64681 v 2.44955 q 0,1.01524 -0.2302,1.65271 -0.2243,0.63157 -0.71421,1.00934 -0.44269,0.33644 -1.1687,0.4781 -0.72601,0.13576 -2.24887,0.13576 z m 0.72601,-2.19574 h 1.70584 q 1.42251,0 1.88881,-0.35416 0.4663,-0.36005 0.4663,-1.32807 v -1.24543 q 0,-0.96802 -0.4663,-1.32217 -0.4663,-0.36006 -1.88881,-0.36006 h -1.71764 q -1.45203,0 -1.90652,0.36006 -0.4486,0.36005 -0.4486,1.36939 v 1.22182 q 0,0.95031 0.47221,1.30446 0.4781,0.35416 1.89471,0.35416 z"
         id="path1081" /><path
         d="m 303.41744,197.18195 h -3.93109 l -5.27097,-6.39245 v 6.39245 h -2.67975 v -8.78888 h 3.97241 l 5.23555,6.44557 v -6.44557 h 2.67385 z"
         id="path1083" /><path
         d="m 312.05876,190.5593 h -4.20851 v 4.48593 h 4.54495 q 0.85587,0 1.25134,-0.34825 0.39547,-0.34825 0.39547,-1.09197 v -1.54647 q 0,-0.77323 -0.48401,-1.13329 -0.47811,-0.36595 -1.49924,-0.36595 z m 0.82045,-2.16623 q 2.01276,0 2.92766,0.7083 0.91489,0.7024 0.91489,2.24296 v 3.0221 q 0,1.46383 -0.73191,2.14263 -0.73192,0.67289 -2.3256,0.67289 h -8.49376 v -8.78888 z"
         id="path1085" /><path
         d="m 321.08964,197.18195 h -2.68566 v -8.78888 h 2.68566 z"
         id="path1087" /><path
         d="m 328.73933,197.18195 h -2.67975 v -6.63446 h -3.67728 v -2.15442 h 10.03431 v 2.15442 h -3.67728 z"
         id="path1089" /><path
         d="m 336.39492,197.18195 h -2.68565 v -8.78888 h 2.68565 z"
         id="path1091" /><path
         d="m 342.47454,197.28819 q -1.54057,0 -2.25477,-0.13576 -0.71421,-0.14166 -1.1628,-0.4781 -0.50762,-0.37777 -0.73192,-0.98573 -0.22429,-0.61386 -0.22429,-1.62319 v -2.39644 q 0,-1.10377 0.22429,-1.74715 0.2243,-0.64337 0.73192,-1.02114 0.44269,-0.33054 1.1746,-0.4722 0.73782,-0.14166 2.23116,-0.14166 h 3.15786 q 1.49925,0 2.23706,0.14166 0.74372,0.14166 1.18051,0.4722 0.48991,0.37186 0.71421,1.01524 0.2302,0.64338 0.2302,1.64681 v 2.44955 q 0,1.01524 -0.2302,1.65271 -0.2243,0.63157 -0.71421,1.00934 -0.44269,0.33644 -1.1687,0.4781 -0.72601,0.13576 -2.24887,0.13576 z m 0.72601,-2.19574 h 1.70583 q 1.42252,0 1.88882,-0.35416 0.4663,-0.36005 0.4663,-1.32807 v -1.24543 q 0,-0.96802 -0.4663,-1.32217 -0.4663,-0.36006 -1.88882,-0.36006 h -1.71764 q -1.45202,0 -1.90652,0.36006 -0.44859,0.36005 -0.44859,1.36939 v 1.22182 q 0,0.95031 0.4722,1.30446 0.47811,0.35416 1.89472,0.35416 z"
         id="path1093" /><path
         d="m 363.48758,197.18195 h -3.93109 l -5.27097,-6.39245 v 6.39245 h -2.67975 v -8.78888 h 3.97241 l 5.23555,6.44557 v -6.44557 h 2.67385 z"
         id="path1095" /><path
         d="m 378.13178,190.58291 h -4.26754 v 2.14852 h 4.26754 q 0.53713,0 0.74962,-0.24791 0.2184,-0.2538 0.2184,-0.90899 0,-0.51942 -0.2302,-0.75552 -0.2302,-0.2361 -0.73782,-0.2361 z m 0.10034,-2.18984 q 2.0895,0 2.84503,0.61976 0.75552,0.61977 0.75552,2.26067 0,1.13919 -0.33644,1.69403 -0.33645,0.55484 -1.12739,0.74372 0.6965,0.16527 1.04475,0.58435 0.34825,0.41908 0.34825,1.08607 v 1.80028 h -2.68565 v -1.33988 q 0,-0.51942 -0.24791,-0.71421 -0.24201,-0.19478 -0.96212,-0.19478 h -4.00192 v 2.24887 h -2.69155 v -8.78888 z"
         id="path1097" /><path
         d="m 393.12422,190.53569 h -6.91777 v 1.32807 h 6.5164 v 1.84749 h -6.5164 v 1.34578 h 7.02402 v 2.12492 h -9.70378 v -8.78888 h 9.59753 z"
         id="path1099" /><path
         d="m 401.6829,190.5593 h -4.20851 v 4.48593 h 4.54496 q 0.85587,0 1.25134,-0.34825 0.39547,-0.34825 0.39547,-1.09197 v -1.54647 q 0,-0.77323 -0.48401,-1.13329 -0.47811,-0.36595 -1.49925,-0.36595 z m 0.82046,-2.16623 q 2.01276,0 2.92766,0.7083 0.91489,0.7024 0.91489,2.24296 v 3.0221 q 0,1.46383 -0.73191,2.14263 -0.73192,0.67289 -2.3256,0.67289 h -8.49376 v -8.78888 z"
         id="path1101" /></g></g></svg>
