<svg width="761.188" height="548.73" viewBox="0 0 201.398 145.185" xml:space="preserve" xmlns="http://www.w3.org/2000/svg"><path style="fill:#eb4625;fill-opacity:1;stroke-width:.949098;stop-color:#000" d="M321.146 185.041h125.893v8.156H321.146zm-47.86 32.182c12.46 13.8 29.158 25.306 47.86 33.207V185.04h-8.156zm221.612 0c-12.46 13.8-29.158 25.306-47.86 33.207V185.04h8.156zM321.146 117.744h125.893v-8.156H321.146zm-47.86-32.181c12.46-13.801 29.158-25.307 47.86-33.207v65.388h-8.156zm221.612 0c-12.46-13.801-29.158-25.307-47.86-33.207v65.388h8.156z" transform="translate(-180.795 -38.376) scale(.73298)"/><path style="fill:#eb4625;fill-opacity:1;stroke-width:1.17939;stop-color:#000" d="M486.67 126.105h31.15v50.702h-31.15zm31.15 0c4.784 16.68 4.82 34.029 0 50.702M281.408 126.042h-31.15v50.702h31.15zm-31.15 0c-4.784 16.68-4.82 34.029 0 50.702" transform="translate(-180.795 -38.376) scale(.73298)"/><path style="fill:#eb4625;fill-opacity:1;stroke:none;stroke-width:2.93406;stroke-dasharray:none;stroke-opacity:1;stop-color:#000" d="M324.176 196.697h119.725v6.362H324.176z" transform="translate(-180.795 -38.376) scale(.73298)"/><path style="fill:#c83012;fill-opacity:1;stroke:none;stroke-width:2.93406;stroke-dasharray:none;stroke-opacity:1;stop-color:#000" d="M324.176 205.692h119.725v6.362H324.176z" transform="translate(-180.795 -38.376) scale(.73298)"/><path style="fill:#99260f;fill-opacity:1;stroke:none;stroke-width:2.93406;stroke-dasharray:none;stroke-opacity:1;stop-color:#000" d="M324.23 214.688h119.725v6.362H324.23z" transform="translate(-180.795 -38.376) scale(.73298)"/><path style="fill:#6b180b;fill-opacity:1;stroke:none;stroke-width:2.93406;stroke-dasharray:none;stroke-opacity:1;stop-color:#000" d="M324.23 223.684h119.725v6.362H324.23z" transform="translate(-180.795 -38.376) scale(.73298)"/><path style="fill:#3a0e06;fill-opacity:1;stroke:none;stroke-width:2.93406;stroke-dasharray:none;stroke-opacity:1;stop-color:#000" d="M324.23 232.68h119.725v6.362H324.23z" transform="translate(-180.795 -38.376) scale(.73298)"/><path style="fill:#070707;fill-opacity:1;stroke:none;stroke-width:2.93406;stroke-dasharray:none;stroke-opacity:1;stop-color:#000" d="M324.283 241.676h119.725v6.362H324.283z" transform="translate(-180.795 -38.376) scale(.73298)"/><path style="fill:#0e0302;fill-opacity:1;stroke:none;stroke-width:2.93406;stroke-dasharray:none;stroke-opacity:1;stop-color:#000" d="M324.23 55.014h119.725v6.362H324.23z" transform="translate(-180.795 -38.376) scale(.73298)"/><path style="fill:#3d0f06;fill-opacity:1;stroke:none;stroke-width:2.93406;stroke-dasharray:none;stroke-opacity:1;stop-color:#000" d="M324.23 64.01h119.725v6.362H324.23z" transform="translate(-180.795 -38.376) scale(.73298)"/><path style="fill:#6b1a0a;fill-opacity:1;stroke:none;stroke-width:2.93406;stroke-dasharray:none;stroke-opacity:1;stop-color:#000" d="M324.283 73.006h119.725v6.362H324.283z" transform="translate(-180.795 -38.376) scale(.73298)"/><path style="fill:#9c260d;fill-opacity:1;stroke:none;stroke-width:2.93406;stroke-dasharray:none;stroke-opacity:1;stop-color:#000" d="M324.283 82.001h119.725v6.362H324.283z" transform="translate(-180.795 -38.376) scale(.73298)"/><path style="fill:#cb3212;fill-opacity:1;stroke:none;stroke-width:2.93406;stroke-dasharray:none;stroke-opacity:1;stop-color:#000" d="M324.283 90.997h119.725v6.362H324.283z" transform="translate(-180.795 -38.376) scale(.73298)"/><path style="fill:#eb4625;fill-opacity:1;stroke:none;stroke-width:2.93406;stroke-dasharray:none;stroke-opacity:1;stop-color:#000" d="M324.336 99.993h119.725v6.362H324.336z" transform="translate(-180.795 -38.376) scale(.73298)"/><g aria-label="ALERT" style="font-size:37.9005px;opacity:1;fill:#eb4424;fill-opacity:.996078;stroke:#000;stroke-width:1.29207"><path d="M314.399 145.167h10.585l-5.348-9.753zm-5.867 11.214h-9.179l15.046-27.555h10.733L339.9 156.38h-9.234l-2.665-4.59h-16.785zM351.689 149.72h18.34v6.661h-26.76v-27.555h8.42zM403.395 135.543h-21.69v4.164h20.431v5.793h-20.43v4.22h22.022v6.661h-30.424v-27.555h30.09zM430.562 135.691h-13.38v6.737h13.38q1.684 0 2.35-.778.685-.795.685-2.85 0-1.628-.722-2.368t-2.313-.74zm.314-6.865q6.551 0 8.92 1.943 2.369 1.943 2.369 7.088 0 3.571-1.055 5.31-1.055 1.74-3.535 2.333 2.184.518 3.276 1.832 1.092 1.314 1.092 3.405v5.644h-8.42v-4.2q0-1.63-.778-2.24-.758-.61-3.016-.61h-12.547v7.05h-8.44v-27.555zM465.538 156.381h-8.402v-20.8h-11.529v-6.755h31.46v6.754h-11.529z" style="font-stretch:expanded;font-family:'Square721 BdEx BT';-inkscape-font-specification:'Square721 BdEx BT Expanded';stroke:none" transform="matrix(.7251 0 0 .74094 -180.795 -38.376)"/></g><g aria-label="CONDITION RED" style="font-stretch:expanded;font-size:12.0884px;font-family:'Square721 BdEx BT';-inkscape-font-specification:'Square721 BdEx BT Expanded';fill:#eb4424;fill-opacity:.996078;stroke-width:.412104"><path d="M48.439 84.613v-.056q0-.33-.287-.482-.281-.155-.899-.155h-1.798q-1.156 0-1.487.216-.326.212-.326.894v.785q0 .61.366.837.365.228 1.447.228h1.304q1.072 0 1.403-.163.336-.167.336-.614v-.06h2.277q0 .01.005.04.015.247.015.368 0 .542-.178.895-.178.352-.558.564-.36.205-.963.292-.598.087-1.759.087h-2.51q-1.15 0-1.693-.094-.544-.095-.929-.323-.444-.269-.647-.659-.202-.394-.202-.993v-1.538q0-1.213.75-1.69.751-.482 2.722-.482h2.51q1.21 0 1.782.084.573.083.904.28.35.205.514.553.168.345.168.868 0 .125-.005.193 0 .065-.01.125zM55.527 88.29q-1.29 0-1.887-.088-.598-.09-.973-.307-.425-.242-.613-.633-.188-.394-.188-1.042v-1.538q0-.71.188-1.122.188-.413.613-.656.37-.212.983-.303.617-.09 1.867-.09h2.642q1.255 0 1.872.09.623.091.988.303.41.239.598.652.192.413.192 1.057v1.573q0 .652-.192 1.061-.188.406-.598.648-.37.216-.978.307-.607.087-1.882.087zm.607-1.41h1.428q1.19 0 1.58-.228.39-.231.39-.853V85q0-.62-.39-.848-.39-.231-1.58-.231h-1.438q-1.215 0-1.595.231-.376.231-.376.88v.784q0 .61.396.837.4.228 1.585.228zM73.11 88.221h-3.289l-4.41-4.104v4.104h-2.243v-5.643h3.324l4.381 4.139v-4.139h2.238zM80.342 83.97H76.82v2.88h3.803q.717 0 1.048-.224.33-.224.33-.701v-.993q0-.497-.405-.728-.4-.235-1.254-.235zm.686-1.392q1.685 0 2.45.455.766.451.766 1.44v1.94q0 .94-.613 1.376-.612.432-1.946.432h-7.107v-5.643zM87.899 88.221h-2.247v-5.643h2.247zM94.3 88.221h-2.242v-4.26h-3.077v-1.383h8.397v1.384H94.3zM100.707 88.221h-2.248v-5.643h2.248zM105.794 88.29q-1.289 0-1.886-.088-.598-.09-.974-.307-.424-.242-.612-.633-.188-.394-.188-1.042v-1.538q0-.71.188-1.122.188-.413.612-.656.37-.212.983-.303.618-.09 1.867-.09h2.643q1.255 0 1.872.09.622.091.988.303.41.239.598.652.192.413.192 1.057v1.573q0 .652-.192 1.061-.188.406-.598.648-.37.216-.978.307-.608.087-1.882.087zm.608-1.41h1.427q1.19 0 1.58-.228.391-.231.391-.853V85q0-.62-.39-.848-.39-.231-1.58-.231h-1.438q-1.215 0-1.595.231-.376.231-.376.88v.784q0 .61.395.837.4.228 1.586.228zM123.378 88.221h-3.29l-4.41-4.104v4.104h-2.242v-5.643h3.324l4.38 4.139v-4.139h2.238zM135.633 83.984h-3.571v1.38h3.571q.45 0 .627-.16.183-.162.183-.583 0-.334-.193-.485-.192-.152-.617-.152zm.084-1.406q1.748 0 2.38.398.633.398.633 1.452 0 .731-.282 1.087-.281.356-.943.478.583.106.874.375.292.269.292.697v1.156h-2.248v-.86q0-.334-.207-.459-.203-.125-.805-.125h-3.35v1.444h-2.252v-5.643zM148.179 83.954h-5.789v.853h5.453v1.186h-5.453v.864h5.878v1.364h-8.12v-5.643h8.03zM155.341 83.97h-3.522v2.88h3.804q.716 0 1.047-.224.33-.224.33-.701v-.993q0-.497-.404-.728-.4-.235-1.255-.235zm.687-1.392q1.684 0 2.45.455.765.451.765 1.44v1.94q0 .94-.612 1.376-.613.432-1.946.432h-7.108v-5.643z"/></g></svg>