<svg xmlns="http://www.w3.org/2000/svg" xmlns:xlink="http://www.w3.org/1999/xlink" viewBox="0 0 452.572 285.751" height="1080" width="1710.508" xmlns:v="https://vecta.io/nano"><style><![CDATA[.U{stroke-linecap:round}.V{stroke-linejoin:bevel}.W{color-interpolation-filters:sRGB}.X{flood-opacity:1}.Y{flood-color:#fff}.Z{stroke-width:.6}.a{filter:url(#Q)}.b{stroke-width:.646}]]></style><defs><linearGradient id="A" xlink:href="#j" gradientUnits="userSpaceOnUse"><stop offset="0"/><stop offset=".103" stop-color="#5b5b5b"/><stop offset=".148" stop-color="#777"/><stop offset=".186" stop-color="#5e5e5e"/><stop offset=".318" stop-color="#616161"/><stop offset=".334" stop-color="#c6c6c6"/><stop offset=".359" stop-color="#bebebe"/><stop offset=".375" stop-color="#6f6f6f"/><stop offset=".398" stop-color="#707070"/><stop offset=".414" stop-color="#d5d5d5"/><stop offset=".423" stop-color="#cecece"/><stop offset=".435" stop-color="#8e8e8e"/><stop offset=".672" stop-color="#8e8e8e"/><stop offset=".695" stop-color="#a5a5a5"/><stop offset=".761" stop-color="#bababa"/><stop offset="1" stop-color="#292929"/></linearGradient><linearGradient id="B" xlink:href="#j" gradientUnits="userSpaceOnUse"><stop offset=".102" stop-color="#c9ffff"/><stop offset=".81" stop-color="#4fbeff"/><stop offset="1" stop-color="#009cff"/></linearGradient><linearGradient id="C" xlink:href="#j" gradientUnits="userSpaceOnUse"><stop offset="0" stop-color="#3d4653"/><stop offset="1" stop-color="#69757e"/></linearGradient><linearGradient id="D" x1="121.537" y1="231.912" x2="169.876" y2="231.912" xlink:href="#j"><stop offset="0" stop-color="#4a5d6c"/><stop offset=".5" stop-color="#7c96ac"/><stop offset="1" stop-color="#495d6f"/></linearGradient><linearGradient id="E" x1="121.537" y1="208.799" x2="121.537" y2="247.616" xlink:href="#j"><stop offset="0" stop-color="#2d3a46"/><stop offset="1" stop-color="#3f4b55"/></linearGradient><linearGradient id="F" x1="171.42" y1="208.749" x2="171.42" y2="247.631" xlink:href="#j"><stop offset="0" stop-color="#2d3945"/><stop offset="1" stop-color="#45515c"/></linearGradient><filter id="G" x="-.128" y="-1.364" width="1.256" height="3.727" class="W"><feFlood class="X Y"/><feComposite in2="SourceGraphic" operator="in"/><feGaussianBlur stdDeviation=".5"/><feOffset/><feComposite in="SourceGraphic" result="L"/><feColorMatrix values="0 0 0 -1 0 0 0 0 -1 0 0 0 0 -1 0 0 0 0 1 0"/><feGaussianBlur stdDeviation="0.05 0.05" in="L"/></filter><filter id="H" x="-.136" y="-1.448" width="1.272" height="3.896" class="W"><feFlood class="X Y"/><feComposite in2="SourceGraphic" operator="in"/><feGaussianBlur stdDeviation=".5"/><feOffset/><feComposite in="SourceGraphic" result="L"/><feColorMatrix values="0 0 0 -1 0 0 0 0 -1 0 0 0 0 -1 0 0 0 0 1 0"/><feGaussianBlur stdDeviation="0.05 0.05" in="L"/></filter><filter id="I" x="-.152" y="-1.624" width="1.305" height="4.248" class="W"><feFlood class="X Y"/><feComposite in2="SourceGraphic" operator="in"/><feGaussianBlur stdDeviation=".5"/><feOffset/><feComposite in="SourceGraphic" result="L"/><feColorMatrix values="0 0 0 -1 0 0 0 0 -1 0 0 0 0 -1 0 0 0 0 1 0"/><feGaussianBlur stdDeviation="0.05 0.05" in="L"/></filter><filter id="J" x="-.162" y="-1.727" width="1.324" height="4.454" class="W"><feFlood class="X Y"/><feComposite in2="SourceGraphic" operator="in"/><feGaussianBlur stdDeviation=".5"/><feOffset/><feComposite in="SourceGraphic" result="L"/><feColorMatrix values="0 0 0 -1 0 0 0 0 -1 0 0 0 0 -1 0 0 0 0 1 0"/><feGaussianBlur stdDeviation="0.05 0.05" in="L"/></filter><linearGradient id="K" x1="116.159" y1="249.466" x2="175.255" y2="249.466" xlink:href="#j"><stop offset="0" stop-color="#172129"/><stop offset=".076" stop-color="#101820"/><stop offset=".088" stop-color="#252d35"/><stop offset=".104" stop-color="#262e36"/><stop offset=".111" stop-color="#121925"/><stop offset=".13" stop-color="#151c27"/><stop offset=".138" stop-color="#262f37"/><stop offset=".836" stop-color="#1f2931"/><stop offset=".85" stop-color="#0f161f"/><stop offset="1" stop-color="#121720"/></linearGradient><linearGradient xlink:href="#C" id="L" x1="1795.948" y1="8636.294" x2="1795.948" y2="10261.308"/><linearGradient xlink:href="#C" id="M" x1="1520.053" y1="8628.755" x2="1520.053" y2="10250.103"/><linearGradient id="N" x1="113.799" y1="234.569" x2="113.799" y2="247.827" xlink:href="#j"><stop offset="0" stop-color="#3a4650"/><stop offset="1" stop-color="#424e58"/></linearGradient><filter id="O" x="-.047" y="-.04" width="1.101" height="1.081" class="W"><feFlood class="X Y"/><feComposite in="SourceGraphic" operator="in"/><feGaussianBlur stdDeviation=".3"/><feOffset/><feComposite in="SourceGraphic"/></filter><radialGradient xlink:href="#B" id="P" cx="1158.262" cy="3029.394" fx="1158.262" fy="3029.394" r="91.834" gradientTransform="scale(1.2840675,0.77877527)"/><filter id="Q" x="-.07" y="-.095" width="1.14" height="1.19" class="W"><feFlood class="X Y"/><feComposite in="SourceGraphic" operator="in"/><feGaussianBlur stdDeviation=".3"/><feOffset/><feComposite in="SourceGraphic" result="M"/><feColorMatrix values="0 0 0 -1 0 0 0 0 -1 0 0 0 0 -1 0 0 0 0 1 0"/><feGaussianBlur stdDeviation="0.11 0.11" in="M"/></filter><radialGradient xlink:href="#B" id="R" cx="1552.814" cy="3398.431" fx="1552.814" fy="3398.431" r="124.304" gradientTransform="scale(1.139884,0.87728225)"/><linearGradient id="S" x1="123.345" y1="216.391" x2="167.902" y2="216.391" xlink:href="#j"><stop offset="0" stop-color="#252525"/><stop offset="1" stop-color="#191919"/></linearGradient><linearGradient xlink:href="#A" id="T" x1="5977.57" y1="1504.337" x2="8298.631" y2="1504.337"/><linearGradient id="U" x1="119.03" y1="248.35" x2="129.362" y2="254.939" gradientTransform="matrix(0.74632885,0,0,0.99999233,27.225364,0.001932)" xlink:href="#j"><stop offset="0" stop-color="#2f3749"/><stop offset=".519" stop-color="#2e3848"/><stop offset=".611" stop-color="#4b5a73"/><stop offset=".683" stop-color="#3e4d61"/><stop offset=".723" stop-color="#2f3948"/><stop offset=".842" stop-color="#2d3747"/><stop offset=".887" stop-color="#333d50"/></linearGradient><linearGradient id="V" gradientTransform="matrix(0.25513351,0,0,1.0030584,-207.97008,-0.76170504)" x1="158.521" y1="254.921" x2="156.739" y2="249.04" xlink:href="#j"><stop offset="0" stop-color="#333d50"/><stop offset=".198" stop-color="#2f384a"/><stop offset=".276" stop-color="#252c37"/><stop offset="1" stop-color="#161b1d"/></linearGradient><linearGradient id="W" x1="119.676" y1="213.275" x2="126.951" y2="208.799" spreadMethod="reflect" xlink:href="#j"><stop offset="0"/><stop offset="1" stop-color="#333d50"/></linearGradient><linearGradient id="X" x1="126.578" y1="210.356" x2="152.2" y2="209.118" spreadMethod="pad" xlink:href="#j"><stop offset=".184" stop-color="#333d50" stop-opacity="0"/><stop offset=".397" stop-color="#333d50"/><stop offset=".423" stop-color="#7486a8"/><stop offset=".478" stop-color="#7587a8"/><stop offset=".511" stop-color="#333d50"/><stop offset=".55" stop-color="#333d50"/><stop offset=".579" stop-color="#667b9e"/><stop offset=".598" stop-color="#67799d"/><stop offset=".622" stop-color="#333d50"/><stop offset=".773" stop-color="#2a3343"/></linearGradient><linearGradient id="Y" x1="171.426" y1="212.151" x2="158.17" y2="208.752" spreadMethod="reflect" xlink:href="#j"><stop offset="0" stop-color="#0b0f17"/><stop offset="1" stop-color="#333d50"/></linearGradient><linearGradient id="Z" x1="151.786" y1="209.583" x2="154.844" y2="209.663" xlink:href="#j"><stop offset="0" stop-color="#2a3343"/><stop offset="1" stop-color="#2b3444"/></linearGradient><linearGradient id="a" x1="121.537" y1="231.912" x2="169.876" y2="231.912" xlink:href="#j"><stop offset="0" stop-color="#4a5d6c" stop-opacity="0"/><stop offset=".5" stop-color="#25a8ff" stop-opacity=".347"/><stop offset="1" stop-color="#495d6f" stop-opacity="0"/></linearGradient><linearGradient xlink:href="#A" id="b" x1="5977.329" y1="1504.319" x2="8298.871" y2="1504.319"/><path id="c" d="M121.538 216.415v29.659c5.529-1.285 14.546-1.521 24.169-1.521s18.637.235 24.17 1.518v-29.656h-.166c0 2.177-10.784 3.942-24.086 3.942s-24.086-1.765-24.086-3.942z"/><path id="d" d="M24.008 201.131c.568-.158 1.044-.826 1.066-1.493l.004-9.003-.002-13.104c-.007-.666-.472-1.355-1.039-1.533l-1.787-.355c-.356-.084-.742-.141-1.048.053-.409.224-.623.75-.584 1.3v4.171 18.912c-.01.709.485 1.287 1.102 1.274l2.288-.223z"/><path id="e" d="M29.191 200.753c.568-.147 1.044-.767 1.066-1.386l.004-8.888-.002-12.022c-.007-.618-.472-1.258-1.039-1.423l-2.316-.475c-.356-.078-.742-.131-1.048.049-.409.208-.623.696-.584 1.207v21.962c-.01.658.485 1.195 1.102 1.183l2.817-.208z"/><path id="f" d="M35.096 200.448c.646-.136 1.187-.747 1.212-1.321l.005-8.796-.002-11.275c-.008-.573-.537-1.166-1.181-1.319-.665-.12-1.926-.251-2.634-.328-.405-.072-.844-.099-1.192.068a1.08 1.08 0 0 0-.664 1.119v20.866c-.011.61.552 1.143 1.253 1.132l1.353-.039 1.85-.108z"/><path id="g" d="M42.913 177.808a1.26 1.26 0 0 1 1.121 1.167l.004 7.916-.002 12.262c-.008.596-.501 1.134-1.093 1.195l-1.803.011c-1.058-.004-2.116.008-3.174-.006a1.26 1.26 0 0 1-1.122-1.167l-.005-5.188v-14.942a1.26 1.26 0 0 1 1.05-1.236c.389-.039.783-.008 1.173-.018z"/><path id="h" d="M42.407 186.132l.058-7.014"/><path id="i" d="M42.407 199.457l.058-7.11"/><linearGradient id="j" gradientUnits="userSpaceOnUse"/></defs><g transform="matrix(6.186282 0 0 6.186282 -664.71041 -1291.374)"><use xlink:href="#c" fill="url(#D)" stroke="#34414c" stroke-width=".182"/><g transform="matrix(-1 0 0 1 189.95386 43.60395)"><g fill="#2d374f"><use xlink:href="#d"/><use xlink:href="#e"/><use xlink:href="#f"/><use xlink:href="#g"/></g><g filter="url(#O)" fill="#9cbbcc" stroke="#9cbbcc" class="U V"><g stroke-width=".7"><path d="M31.943 186.074v-7.593"/><path d="M33.427 186.095v-7.412"/><path d="M34.912 186.074v-7.199"/></g><g class="b"><path d="M34.939 192.347v7.385"/><path d="M33.401 192.347v7.506"/><path d="M31.943 192.347v7.559"/></g><g stroke-width=".8"><use xlink:href="#h"/><use xlink:href="#h" x="-1.997"/><use xlink:href="#h" x="-3.995"/><use xlink:href="#i"/><use xlink:href="#i" x="-1.997"/><use xlink:href="#i" x="-3.995"/></g><g class="Z"><path d="M42.158 190.98h-3.39"/><path d="M42.109 189.255h-3.39"/><path d="M42.134 187.529h-3.39"/><path d="M34.673 191.019h-2.455"/><path d="M34.637 189.255h-2.455"/><path d="M34.655 187.49H32.2"/></g><g transform="matrix(-1 0 0 1 127.29381 -1.890551)" class="Z"><path d="M100.844 187.933v-8.286"/><path d="M99.547 187.953v-8.088"/><path d="M98.25 187.932v-7.86"/><path d="M98.225 194.247l.014 7.732"/><path d="M99.572 194.258l-.008 7.82"/><path d="M100.844 194.264v7.935"/><path d="M98.403 192.909h2.255"/><path d="M98.436 191.145h2.255"/><path d="M98.42 189.381h2.255"/></g><g stroke-width=".5"><path d="M21.743 185.825v-9.16"/><path d="M22.83 185.847v-8.945"/><path d="M23.917 185.825v-8.606"/><path d="M23.938 192.664l-.011 7.858"/><path d="M22.809 192.676l.007 7.962"/><path d="M21.743 192.682v8.071"/><path d="M23.963 191.215h-2.234"/><path d="M23.931 189.304h-2.234"/><path d="M23.947 187.393h-2.234"/></g></g></g><g transform="translate(101.352 43.604)"><g fill="#2d374f"><use xlink:href="#d"/><use xlink:href="#e"/><use xlink:href="#f"/><use xlink:href="#g"/></g><g filter="url(#O)" fill="#9cbbcc" stroke="#9cbbcc" class="U V"><g stroke-width=".7"><path d="M31.943 186.074v-7.593"/><path d="M33.427 186.095v-7.412"/><path d="M34.912 186.074v-7.199"/></g><g class="b"><path d="M34.939 192.347v7.385"/><path d="M33.401 192.347v7.506"/><path d="M31.943 192.347v7.559"/></g><g stroke-width=".8"><use xlink:href="#h"/><use xlink:href="#h" x="-1.997"/><use xlink:href="#h" x="-3.995"/><use xlink:href="#i"/><use xlink:href="#i" x="-1.997"/><use xlink:href="#i" x="-3.995"/></g><g class="Z"><path d="M42.158 190.98h-3.39"/><path d="M42.109 189.255h-3.39"/><path d="M42.134 187.529h-3.39"/><path d="M34.673 191.019h-2.455"/><path d="M34.637 189.255h-2.455"/><path d="M34.655 187.49H32.2"/></g><g transform="matrix(-1 0 0 1 127.29381 -1.890551)" class="Z"><path d="M100.844 187.933v-8.286"/><path d="M99.547 187.953v-8.088"/><path d="M98.25 187.932v-7.86"/><path d="M98.225 194.247l.014 7.732"/><path d="M99.572 194.258l-.008 7.82"/><path d="M100.844 194.264v7.935"/><path d="M98.403 192.909h2.255"/><path d="M98.436 191.145h2.255"/><path d="M98.42 189.381h2.255"/></g><g stroke-width=".5"><path d="M21.743 185.825v-9.16"/><path d="M22.83 185.847v-8.945"/><path d="M23.917 185.825v-8.606"/><path d="M23.938 192.664l-.011 7.858"/><path d="M22.809 192.676l.007 7.962"/><path d="M21.743 192.682v8.071"/><path d="M23.963 191.215h-2.234"/><path d="M23.931 189.304h-2.234"/><path d="M23.947 187.393h-2.234"/></g></g></g><g stroke="#333d50"><path fill="url(#U)" stroke-width=".086" d="M107.493 249.065h54.431v5.831h-54.431z"/><path transform="scale(-1 1)" fill="url(#V)" stroke-width=".051" d="M-180.531 249.065h18.607v5.848h-18.607z"/></g><path fill="url(#M)" stroke="#37434e" stroke-width=".1" d="M107.499 208.849h12.328v40.216h-12.328z"/><path d="M119.827 208.799v37.724a29.548 6.039 0 0 1 1.71-.561v-37.163z" fill="url(#E)"/><path fill="url(#L)" stroke="#4c5662" stroke-width=".101" d="M171.426 208.799h9.13v40.261h-9.13z"/><path d="M169.71 208.749v37.173a29.548 6.049 0 0 1 1.71.547v-37.721z" fill="url(#F)"/><path fill="#171e29" d="M107.449 208.749h73.107v3.773h-73.107z"/><path d="M165.504 208.749l-38.553.05c-3.168-.026-7.087 2.25-8.87 3.723l3.456 1.794c0-2.177 10.784-3.96 24.086-3.96s24.086 1.773 24.086 3.95l3.277-1.784c-1.383-1.67-5.617-3.554-7.483-3.773z" fill="url(#W)"/><path d="M158.17 208.749l-27.844.036v2.588c4.281-.639 9.974-1.028 16.225-1.028 4.214 0 8.174.178 11.619.489z" fill="url(#X)"/><ellipse cx="145.624" cy="216.415" rx="24.086" ry="3.942" fill="#2f2f2f" stroke="#252525" stroke-width=".05"/><path d="M165.504 208.752c-2.925.067-6.977.029-10.761 0l-2.544 1.705c8.71.433 17.51 2.222 17.51 3.842l3.277-1.775c-1.383-1.669-5.617-3.552-7.483-3.771z" fill="url(#Y)"/><path d="M153.006 208.765l-2.44 1.636 2.929.111 2.697-1.697z" fill="url(#Z)"/><ellipse cx="145.624" cy="216.391" rx="22.279" ry="3.305" fill="url(#S)"/><g transform="matrix(1.151368 0 0 1.304176 53.883201 -9.590339)" fill="#fff" stroke="#8ba7b8" stroke-width=".082"><ellipse cx="79.68" cy="171.447" rx="5.315" ry=".499" filter="url(#G)"/><ellipse cx="68.241" cy="172.23" rx="5.007" ry=".47" filter="url(#H)"/><ellipse cx="91.118" cy="172.23" rx="5.007" ry=".47" filter="url(#H)"/><ellipse cx="68.241" cy="174.141" rx="4.468" ry=".419" filter="url(#I)"/><ellipse cx="91.118" cy="174.141" rx="4.468" ry=".419" filter="url(#I)"/><ellipse cx="79.68" cy="175.128" rx="4.198" ry=".394" filter="url(#J)"/></g><path d="m 145.62392,210.35634 a 24.086323,3.9424174 0 0 0 -24.08639,3.94239 v 2.11667 a 24.086323,3.9424174 0 0 1 24.08639,-3.9424 24.086323,3.9424174 0 0 1 24.08638,3.9424 v -2.11667 a 24.086323,3.9424174 0 0 0 -24.08638,-3.94239 z" fill="url(#T)" stroke="url(#b)" stroke-width=".01"/><rect width="10.213" height="13.258" x="108.693" y="234.569" ry=".917" fill="url(#N)"/><rect width="10.213" height=".852" x="108.693" y="232.658" ry=".426" fill="#38434f"/><ellipse cx="145.707" cy="246.363" rx="29.548" ry="1.937" fill="#394349" stroke="#394349" stroke-width=".1"/><ellipse cx="145.624" cy="246.393" rx="24.086" ry="1.579" fill="#5b6d7b"/><path d="M116.159 246.363v3.409.057c-.001 1.07 13.228 1.937 29.548 1.937s29.549-.867 29.548-1.937v-.057-3.409c-.003 1.07-13.231 1.937-29.548 1.937s-29.544-.867-29.548-1.937z" fill="url(#K)"/><g transform="matrix(.822132 0 0 .059259 76.47835 233.84251)" class="a"><g fill="#e9eced"><g transform="matrix(1.202469 0 0 1.015775 -17.048258 -4.07855)"><path d="M88.589 235.208h-8.765l-4.383-5.474 4.383-8.649h8.765l4.383 8.649z"/><path d="M87.963 188.831H80.45l-3.756 5.254 3.756 8.301h7.513l3.756-8.301z"/></g><path d="M61.42 225.702l-5.022-6.914 3.574-6.23 12.124-.925 5.022 6.914-7.102 7.838z"/><path d="M109.751 202.388l-4.59-6.037-7.856-.597-6.491 6.845 4.59 6.037 11.081-.807z"/><path d="M92.68 220.633l-3.655-6.352-6.255-.628-5.169 7.201 3.655 6.352 8.824-.849z" transform="matrix(-1.255874 0 0 .950456 174.89356 -7.313961)" class="a"/><path d="M112.008 218.938l-5.083 6.886-8.601.636-7.033-7.878 5.083-6.886 12.116.992z"/></g><path d="M84.613 203.765v.461a9.296 6.855 0 0 1 7.562 3.32l.548-.219a9.914 7.311 0 0 0-8.11-3.563zm-.813.005a9.914 7.311 0 0 0-7.68 3.078l.523.249a9.296 6.855 0 0 1 7.156-2.87zm-8.127 3.591a9.914 7.311 0 0 0-1.38 3.708 9.914 7.311 0 0 0 1.007 3.202l.545-.218a9.296 6.855 0 0 1-.933-2.985 9.296 6.855 0 0 1 1.282-3.461zm17.443.505l-.547.218a9.296 6.855 0 0 1 .934 2.985 9.296 6.855 0 0 1-1.282 3.461l.522.249a9.914 7.311 0 0 0 1.378-3.71 9.914 7.311 0 0 0-1.005-3.203zm-16.877 6.725l-.546.218a9.914 7.311 0 0 0 8.108 3.559v-.457a9.296 6.855 0 0 1-7.561-3.32zm15.531.45a9.296 6.855 0 0 1-7.157 2.87v.461a9.914 7.311 0 0 0 7.682-3.081z" fill="#e8ebed"/><ellipse cx="84.207" cy="211.07" rx="8.381" ry="5.083" fill="url(#P)"/><ellipse cx="84.105" cy="-294.087" rx="8.835" ry="6.515" transform="matrix(1 0 0 2.01768 0 299.28687)" fill="url(#R)" stroke="#bac3c9" stroke-width=".503" class="a"/></g><path d="M137.869 249.948h16.092 0l.529.769h0-17.151 0z" fill="#5e6870"/><path fill="#252e36" d="M137.34 250.717h17.033v1.915H137.34z"/><use xlink:href="#c" fill="url(#a)"/></g></svg>