<svg xmlns="http://www.w3.org/2000/svg" xmlns:xlink="http://www.w3.org/1999/xlink" width="501.109" height="178.983" viewBox="0 0 132.585 47.356" xmlns:v="https://vecta.io/nano"><g fill="#3d98f7"><path d="M19.516 0H9.725l-1.8 4.2h9.791zm-9.409 11.298h4.582l1.8-4.2H6.697L1.543 19.119h5.209zM35.416 0h-5.182L24.37 13.702c-.355.811-.9 1.217-1.636 1.217s-1.118-.29-1.118-.811c0-.174.027-.377.136-.608L27.507 0h-5.209l-6.764 15.817c-.218.492-.3.898-.3 1.217 0 1.246.927 2.086 2.564 2.086h5.836c2.536 0 3.818-.463 4.8-2.781zm5.973 12.428L38.58 19.12h5.073l2.1-4.896c.218-.492.3-.927.3-1.217a1.98 1.98 0 0 0-.927-1.709h.164c1.255 0 1.882-.377 2.373-1.506l2.755-6.489c.218-.492.3-.869.3-1.188C50.716.84 49.789 0 48.153 0h-9.437l-1.773 4.143h6.6c.6 0 .955.377.955.84a1.22 1.22 0 0 1-.082.435l-.736 1.825h-8.046l-5.1 11.877h5.209l3.464-7.966h1.309c.573 0 .955.435.955.898a.84.84 0 0 1-.082.377zm14.749 17.501h-6.082c-.6 0-.955-.348-.955-.811 0-.145.027-.29.109-.463l2.809-6.547.682-1.68c.327-.84.927-1.217 1.827-1.217h5.782l.382-.898c.218-.492.3-.898.3-1.188 0-1.304-.927-2.115-2.564-2.115H53.41c-2.536 0-3.791.377-4.8 2.781l-5.564 13.036c-.218.492-.3.898-.3 1.217 0 1.246.927 2.086 2.564 2.086h5.427c2.564 0 3.791-.377 4.8-2.781zM66.939 15.01l-1.745 4.2h5.782c.464 0 .736.261.736.637 0 .145-.027.232-.055.348l-2.864 9.733H64.92l5.591-7.822h-5.373L55.757 34.13h17.182l4.473-16.309c.082-.29.109-.579.109-.869 0-1.188-.764-1.941-2.018-1.941zm20.236 7.098h-5.209L76.839 34.13h5.209zm5.346-2.897l1.8-4.2H80.384l-1.8 4.2zm8.4-4.201h-5.209L87.53 34.13h5.209zm14.973 3.303c.218-.492.3-.898.3-1.217 0-1.246-.955-2.086-2.591-2.086h-5.836c-2.536 0-3.791.435-4.8 2.781L97.43 30.827c-.218.492-.327.898-.327 1.217 0 1.246.927 2.086 2.564 2.086h5.836c2.564 0 3.818-.463 4.8-2.781zm-6.164 2.173l-3.518 8.227c-.355.811-.873 1.217-1.609 1.217-.764 0-1.145-.319-1.145-.811 0-.174.027-.348.109-.521l3.491-8.169c.355-.811.927-1.217 1.745-1.217.655 0 1.036.348 1.036.84 0 .145-.055.29-.109.435zm22.555-2.173c.218-.492.3-.898.3-1.188 0-1.275-.927-2.115-2.564-2.115h-9.437l-1.773 4.2h6.491c.627 0 .955.319.955.84a1.22 1.22 0 0 1-.082.435l-5.836 13.644h5.182zm-14.728 3.795l-5.155 12.022h5.209l5.127-12.022zM5.941 41.665H3.535c-.75 0-1.164.103-1.397.629l-.5 1.121c-.095.207-.129.397-.129.509 0 .397.354.526 1.061.776.56.198.871.259.871.517a.58.58 0 0 1-.06.224l-.129.302c-.147.354-.371.362-.871.362H.569L0 47.356h2.656c1.138 0 1.673-.069 2.043-.914l.526-1.19c.095-.216.138-.422.138-.543 0-.448-.379-.647-1.061-.879-.578-.198-.914-.25-.914-.44 0-.026.009-.069.043-.138l.069-.147c.078-.172.207-.19.5-.19h1.371zm2.578 2.518l.569-1.267h.414c.19 0 .302.112.302.25a.35.35 0 0 1-.026.129l-.388.888zm-.569 1.25h1.923c.724 0 .983-.112 1.276-.767l.905-2.018c.069-.147.095-.259.095-.354 0-.379-.293-.629-.81-.629H7.674l-2.587 5.691H7.07zm5.751-3.768l-.552 1.25h1.828c.147 0 .233.078.233.19 0 .043-.009.069-.017.103l-.897 2.897h-1.233l1.776-2.328h-2.043L9.83 47.355h6.113l1.405-4.854c.026-.086.043-.172.043-.259 0-.354-.25-.578-.647-.578zm7.786 4.441h-1.923c-.181 0-.293-.103-.293-.241 0-.043.009-.086.034-.138l1.095-2.449c.112-.25.293-.362.578-.362h1.828l.121-.267c.069-.147.095-.267.095-.354 0-.388-.293-.629-.81-.629h-1.923c-.802 0-1.199.112-1.518.828l-1.759 3.88c-.069.147-.095.267-.095.362 0 .371.293.621.81.621h2.052c.81 0 1.198-.112 1.518-.828zm6.225-4.441H24.28l-2.587 5.691h3.432l.569-1.25h-1.449l.491-1.078h1.449l.569-1.25h-1.449l.388-.862h1.449zm1.069 4.268h-1.983l-.655 1.423h1.983zm.974-2.156h-1.983l-.655 1.423H29.1zm7.209-.862h1.293l.569-1.25h-4.742l-.569 1.25h1.466l-2.018 4.44h1.983zm7.13-1.25h-1.983l-.957 2.112h-.862l.957-2.112h-1.983l-2.587 5.691h1.983l1.061-2.328h.862l-1.061 2.328h1.983zm4.475 0h-3.432l-2.587 5.691h3.432l.569-1.25h-1.449l.491-1.078h1.449l.569-1.25h-1.449l.388-.862H48zm4.975 2.113l.388-.862h1.449l.569-1.25h-3.432l-2.587 5.691h1.983l1.061-2.328h1.449l.569-1.25zm5.269-2.113H56.83l-2.587 5.691h1.983zm5.414.983c.069-.147.095-.267.095-.354 0-.379-.293-.629-.811-.629h-3.664l-2.587 5.691h1.983l2.018-4.44h.414c.198 0 .302.095.302.25a.35.35 0 0 1-.026.129l-1.845 4.061h1.983zm2.13-.983l-.552 1.25h1.828c.147 0 .233.078.233.19 0 .043-.009.069-.017.103l-.897 2.897h-1.233l1.776-2.328h-2.043l-2.966 3.578h6.113l1.405-4.854a.9.9 0 0 0 .043-.259c0-.354-.25-.578-.647-.578zm7.433 0h-1.983l-2.587 5.691h3.518l.569-1.25h-1.535zm6.121 2.113l.388-.862h1.449l.569-1.25h-3.432l-2.587 5.691h1.983l1.061-2.328h1.449l.569-1.25zm8.114-2.113h-1.983l-1.854 4.078c-.112.241-.285.362-.517.362s-.354-.086-.354-.241c0-.052.009-.112.043-.181l1.819-4.018h-1.983l-2.138 4.708c-.069.147-.095.267-.095.362 0 .371.293.621.811.621H84.3c.802 0 1.207-.138 1.518-.828z"/><use xlink:href="#B"/><path d="M93.414 45.114h2.5l.604-1.319h-2.492z"/><use xlink:href="#B" x="9.39"/><path d="M108.71 42.648a.9.9 0 0 0 .103-.362c0-.371-.302-.621-.819-.621h-2.526c-.802 0-1.198.129-1.518.828l-1.75 3.88a.9.9 0 0 0-.103.362c0 .371.293.621.81.621h2.526c.81 0 1.207-.138 1.518-.828zm-2.276.647l-1.112 2.449c-.112.241-.276.362-.509.362-.241 0-.362-.095-.362-.241 0-.052.009-.103.035-.155l1.095-2.431c.112-.241.302-.362.56-.362.207 0 .328.103.328.25a.36.36 0 0 1-.035.129zm8.148-.647c.069-.147.095-.267.095-.354 0-.379-.293-.629-.81-.629h-3.664l-2.587 5.691h1.983l2.018-4.44h.414c.198 0 .302.095.302.25a.35.35 0 0 1-.026.129l-1.845 4.061h1.983zm3.759.267h1.293l.569-1.25h-4.742l-.569 1.25h1.466l-2.018 4.44h1.983zm4.285-1.25h-1.983l-2.587 5.691h1.983zm4.467 0h-3.432l-2.587 5.691h3.432l.569-1.25h-1.449l.491-1.078h1.449l.569-1.25h-1.449l.388-.862h1.449z"/><use xlink:href="#B" x="39.042"/></g><defs ><path id="B" d="M90.051 43.838l.414-.94h.509c.19 0 .302.103.302.25 0 .043-.009.086-.026.129l-.224.56zm.241 1.569l-.862 1.949h1.88l.664-1.457c.069-.147.095-.276.095-.362 0-.216-.103-.388-.293-.509h.052c.397 0 .595-.112.75-.448l.871-1.931c.069-.147.095-.259.095-.354 0-.379-.293-.629-.81-.629h-3.664l-2.587 5.691h1.957l1.061-2.328h.517c.181 0 .302.129.302.267 0 .043-.009.078-.026.112z"/></defs></svg>