<svg width="502.261" height="180.117" viewBox="0 0 132.89 47.656" xml:space="preserve" xmlns="http://www.w3.org/2000/svg"><g fill="#3d98f7" stroke="#000"><g stroke-width=".4" aria-label="FUR"><path d="M61.642 241.65H51.551l-1.855 4.076h10.09zm-9.697 10.962h4.722l1.855-4.076H48.431l-5.312 11.665h5.368zM78.029 241.65h-5.34l-6.044 13.295c-.365.787-.927 1.18-1.686 1.18-.76 0-1.153-.28-1.153-.786 0-.17.028-.366.14-.59l5.932-13.099h-5.37l-6.97 15.347c-.225.478-.31.872-.31 1.18 0 1.21.957 2.025 2.643 2.025h6.015c2.614 0 3.935-.45 4.947-2.699zM84.185 253.71l-2.895 6.493h5.228l2.164-4.75c.225-.478.31-.9.31-1.18 0-.704-.338-1.266-.956-1.66h.168c1.293 0 1.94-.365 2.446-1.46l2.839-6.297c.225-.478.309-.843.309-1.152 0-1.237-.956-2.052-2.642-2.052H81.43l-1.827 4.02h6.803c.618 0 .983.365.983.814 0 .14-.028.281-.084.422l-.759 1.77h-8.292l-5.256 11.525h5.369l3.57-7.73h1.349c.59 0 .983.422.983.871 0 .14-.028.253-.084.366z" transform="matrix(.97029 0 0 1.0306 -40.195 -248.85)"/></g><g stroke-width=".4" aria-label="CATION"><path d="M99.386 270.69h-6.268c-.618 0-.984-.337-.984-.787 0-.14.028-.281.113-.45l2.895-6.352.702-1.63c.338-.816.956-1.181 1.884-1.181h5.958l.394-.871c.225-.478.31-.872.31-1.153 0-1.265-.957-2.052-2.643-2.052h-5.172c-2.614 0-3.907.366-4.947 2.699l-5.734 12.649c-.225.478-.31.871-.31 1.18 0 1.209.956 2.024 2.643 2.024h5.593c2.643 0 3.907-.365 4.947-2.698zM110.52 256.22l-1.799 4.076h5.959c.478 0 .759.253.759.618 0 .14-.028.225-.056.337l-2.952 9.445h-3.991l5.762-7.59h-5.537l-9.67 11.666h17.709l4.61-15.825c.084-.281.112-.563.112-.844 0-1.152-.787-1.883-2.08-1.883zM131.37 263.1h-5.369l-5.284 11.665h5.369zm5.51-2.81 1.854-4.076h-14.363l-1.855 4.075zM145.54 256.22h-5.369l-8.432 18.551h5.368zM160.97 259.42c.225-.478.31-.871.31-1.18 0-1.21-.985-2.024-2.671-2.024h-6.015c-2.614 0-3.907.421-4.947 2.698l-5.706 12.65c-.225.477-.338.87-.338 1.18 0 1.208.956 2.023 2.643 2.023h6.015c2.642 0 3.935-.45 4.947-2.698zm-6.352 2.108-3.626 7.983c-.366.787-.9 1.18-1.659 1.18-.787 0-1.18-.309-1.18-.787 0-.168.028-.337.112-.506l3.598-7.926c.365-.787.956-1.18 1.799-1.18.674 0 1.068.337 1.068.814 0 .141-.056.282-.113.422zM177.86 259.42c.225-.478.31-.871.31-1.152 0-1.237-.956-2.052-2.643-2.052h-9.725l-1.827 4.075h6.69c.646 0 .983.31.983.816 0 .14-.028.28-.084.421l-6.015 13.24h5.34zm-15.178 3.682-5.312 11.665h5.368l5.285-11.665z" transform="matrix(.97029 0 0 1.0306 -40.195 -248.85)"/></g><g stroke-width=".2" aria-label="SPACE: THE FINAL FUR-RONTIER"><path d="M6.041 41.87H3.635c-.75 0-1.164.103-1.396.63l-.5 1.12c-.095.207-.13.397-.13.509 0 .397.354.526 1.06.776.561.198.872.259.872.517a.58.58 0 0 1-.06.225l-.13.301c-.147.354-.37.362-.871.362H.67L.1 47.56h2.656c1.138 0 1.673-.068 2.043-.913l.526-1.19c.095-.216.138-.423.138-.543 0-.449-.38-.647-1.06-.88-.578-.198-.914-.25-.914-.44 0-.025.008-.069.043-.138l.069-.146c.078-.173.207-.19.5-.19h1.37zM8.619 44.38l.57-1.267h.413c.19 0 .302.112.302.25a.346.346 0 0 1-.026.129l-.388.888zm-.57 1.25h1.924c.724 0 .983-.112 1.276-.767l.905-2.018a.833.833 0 0 0 .095-.353c0-.38-.293-.63-.81-.63H7.774l-2.587 5.691H7.17zM13.801 41.87l-.552 1.25h1.828c.147 0 .233.078.233.19 0 .043-.009.069-.017.103l-.897 2.897h-1.233l1.776-2.328h-2.043l-2.967 3.579h6.114l1.405-4.855a.903.903 0 0 0 .043-.258c0-.354-.25-.578-.646-.578zM21.587 46.31h-1.923c-.18 0-.293-.103-.293-.241 0-.044.009-.087.035-.138l1.095-2.45c.112-.25.293-.361.577-.361h1.828l.12-.268a.865.865 0 0 0 .096-.353c0-.388-.293-.63-.81-.63h-1.924c-.802 0-1.198.113-1.517.828l-1.759 3.88a.866.866 0 0 0-.095.362c0 .371.293.621.81.621h2.053c.81 0 1.198-.112 1.517-.828zM27.812 41.87H24.38l-2.586 5.69h3.431l.57-1.25h-1.45l.492-1.077h1.449l.569-1.25h-1.449l.388-.863h1.449zM28.881 46.14h-1.983l-.655 1.423h1.983zm.974-2.156h-1.983l-.655 1.423H29.2zM37.064 43.12h1.293l.57-1.25h-4.743l-.569 1.25h1.466l-2.018 4.44h1.983zM44.194 41.87h-1.983l-.957 2.113h-.862l.957-2.113h-1.983l-2.587 5.69h1.983l1.06-2.327h.863l-1.06 2.328h1.982zM48.669 41.87h-3.432l-2.586 5.69h3.431l.57-1.25h-1.45l.492-1.077h1.449l.569-1.25h-1.449l.388-.863H48.1zM53.644 43.98l.388-.862h1.448l.57-1.25h-3.432l-2.587 5.69h1.983l1.06-2.328h1.45l.568-1.25zM58.913 41.87H56.93l-2.587 5.69h1.983zM64.325 42.85a.864.864 0 0 0 .095-.354c0-.379-.293-.629-.81-.629h-3.665l-2.587 5.69h1.983l2.018-4.44h.414c.198 0 .301.095.301.25a.353.353 0 0 1-.025.13l-1.846 4.06h1.983zM66.455 41.87l-.552 1.25h1.828c.147 0 .233.078.233.19 0 .043-.01.069-.017.103l-.897 2.897h-1.233l1.776-2.328H65.55l-2.966 3.579h6.113l1.405-4.855a.902.902 0 0 0 .043-.258c0-.354-.25-.578-.646-.578zM73.885 41.87h-1.983l-2.587 5.69h3.518l.57-1.25h-1.536zM80.015 43.98l.388-.862h1.449l.569-1.25h-3.432l-2.587 5.69h1.983l1.06-2.328h1.45l.569-1.25zM88.125 41.87h-1.983l-1.854 4.078c-.112.242-.284.363-.517.363-.233 0-.354-.087-.354-.242 0-.052.01-.112.043-.181l1.82-4.018h-1.983l-2.139 4.708a.865.865 0 0 0-.095.362c0 .37.294.62.81.62H84.4c.802 0 1.207-.137 1.518-.827zM90.155 44.04l.414-.94h.509c.19 0 .301.104.301.25a.353.353 0 0 1-.026.13l-.224.56zm.241 1.57-.862 1.948h1.88l.664-1.457a.897.897 0 0 0 .095-.362.582.582 0 0 0-.293-.51h.051c.397 0 .595-.111.75-.448l.871-1.93a.833.833 0 0 0 .095-.354c0-.38-.293-.63-.81-.63h-3.665l-2.587 5.69h1.958l1.06-2.327h.517c.182 0 .302.13.302.267a.243.243 0 0 1-.026.112zM93.515 45.32h2.5L96.62 44h-2.492zM99.545 44.04l.414-.94h.509c.19 0 .301.104.301.25a.353.353 0 0 1-.026.13l-.224.56zm.241 1.57-.862 1.948h1.88l.664-1.457a.897.897 0 0 0 .095-.362.582.582 0 0 0-.293-.51h.051c.397 0 .595-.111.75-.448l.871-1.93a.833.833 0 0 0 .095-.354c0-.38-.293-.63-.81-.63h-3.665l-2.587 5.69h1.958l1.06-2.327h.518c.18 0 .301.13.301.267a.243.243 0 0 1-.026.112zM108.805 42.85a.9.9 0 0 0 .103-.362c0-.37-.301-.62-.819-.62h-2.526c-.802 0-1.198.128-1.517.827l-1.75 3.88a.9.9 0 0 0-.104.362c0 .37.293.62.81.62h2.527c.81 0 1.207-.137 1.517-.827zm-2.276.647-1.113 2.448c-.112.242-.276.363-.508.363-.242 0-.362-.095-.362-.242 0-.052.009-.103.034-.155l1.095-2.432a.579.579 0 0 1 .56-.362c.207 0 .328.104.328.25a.36.36 0 0 1-.034.13zM114.685 42.85a.865.865 0 0 0 .095-.354c0-.379-.293-.629-.81-.629h-3.665l-2.587 5.69h1.983l2.018-4.44h.414c.198 0 .302.095.302.25a.353.353 0 0 1-.026.13l-1.846 4.06h1.984zM118.445 43.12h1.293l.57-1.25h-4.743l-.569 1.25h1.466l-2.018 4.44h1.983zM122.725 41.87h-1.983l-2.587 5.69h1.983zM127.195 41.87h-3.432l-2.586 5.69h3.431l.57-1.25h-1.45l.492-1.077h1.449l.569-1.25h-1.449l.388-.863h1.449zM129.195 44.04l.414-.94h.509c.19 0 .301.104.301.25a.353.353 0 0 1-.026.13l-.224.56zm.241 1.57-.862 1.948h1.88l.664-1.457a.897.897 0 0 0 .095-.362.582.582 0 0 0-.294-.51h.052c.397 0 .595-.111.75-.448l.871-1.93a.833.833 0 0 0 .095-.354c0-.38-.293-.63-.81-.63h-3.665l-2.587 5.69h1.958l1.06-2.327h.517c.182 0 .302.13.302.267a.243.243 0 0 1-.026.112z"/></g></g></svg>